<svg width="1728" height="498" viewBox="0 0 1728 498" fill="none" xmlns="http://www.w3.org/2000/svg">
<g clip-path="url(#clip0_1294_3832)">
<mask id="path-1-inside-1_1294_3832" fill="white">
<path d="M0 0H1728V498H0V0Z"/>
</mask>
<path d="M0 0H1728V498H0V0Z" fill="url(#paint0_linear_1294_3832)"/>
<g opacity="0.05">
<path d="M1084 80.1604C1075.9 64.4869 1064.63 52.0657 1050.24 42.8968C1035.8 33.6911 1019.6 29.0791 1001.61 29.0791C987.753 29.0791 974.946 32.5335 963.204 39.4056C951.445 46.2593 942.055 55.612 934.999 67.4085V34.7385H891.599V282.354L937.259 236.693V219.917L936.304 197.464C936.616 197.997 936.929 198.529 937.259 199.062C943.746 209.646 952.529 218.135 963.682 224.566C975.387 231.273 988.231 234.635 1002.2 234.635C1019.93 234.635 1035.95 230.079 1050.24 220.873C1064.49 211.704 1075.71 199.246 1083.91 183.609C1092.12 167.917 1096.18 150.664 1096.18 131.756C1096.18 113.069 1092.12 95.8523 1084 80.1604ZM1043.15 163.893C1037.97 173.062 1031.06 180.155 1022.39 185.098C1013.7 190.077 1004.2 192.576 993.89 192.576C983.582 192.576 974.045 189.93 965.262 184.712C956.534 179.53 949.589 172.291 944.444 163.03C939.262 153.769 936.671 143.369 936.671 131.756C936.671 120.731 939.226 110.515 944.352 101.218C949.442 91.9202 956.351 84.5703 965.115 79.2049C973.843 73.8763 983.398 71.1936 993.706 71.1936C1004.16 71.1936 1013.75 73.7293 1022.48 78.8742C1031.21 83.9456 1038.15 91.0933 1043.24 100.262C1048.33 109.468 1050.87 119.96 1050.87 131.756C1050.87 143.994 1048.28 154.688 1043.15 163.893Z" fill="#231F20"/>
<path d="M1260.23 34.7741V67.6095C1253.93 55.5374 1244.65 46.0561 1232.39 39.2024C1220.12 32.3486 1206.06 28.9126 1190.2 28.9126C1173.21 28.9126 1157.77 33.543 1143.86 42.7854C1129.95 52.0462 1119 64.5225 1111.03 80.2512C1103.04 95.9798 1099.03 113.16 1099.03 131.792C1099.03 150.534 1103 167.769 1110.94 183.498C1118.86 199.227 1129.81 211.684 1143.77 220.872C1157.74 230.059 1173.28 234.653 1190.39 234.653C1206.12 234.653 1220.12 231.253 1232.39 224.455C1244.65 217.656 1253.93 208.23 1260.23 196.14V228.81H1303.63V34.7741H1260.23ZM1250.79 162.459C1245.75 171.701 1238.86 179.014 1230.11 184.343C1221.37 189.708 1211.78 192.373 1201.34 192.373C1191.01 192.373 1181.51 189.911 1172.84 185.005C1164.15 180.099 1157.24 173.061 1152.08 163.874C1146.91 154.687 1144.34 143.993 1144.34 131.792C1144.34 119.959 1146.88 109.448 1151.99 100.261C1157.08 91.0738 1163.97 83.9445 1172.66 78.8363C1181.33 73.7466 1190.88 71.1925 1201.34 71.1925C1211.78 71.1925 1221.35 73.9119 1230.02 79.3141C1238.71 84.7346 1245.6 92.0476 1250.69 101.308C1255.78 110.551 1258.34 120.712 1258.34 131.792C1258.34 142.982 1255.82 153.217 1250.79 162.459Z" fill="#231F20"/>
<path d="M1408.53 34.7783C1396.18 34.7783 1385.6 37.8836 1376.72 44.1126C1367.85 50.3416 1361.08 58.9409 1356.42 69.8738V34.7783H1312.63V228.814H1358.31V138.576C1358.31 124.997 1360.51 113.366 1364.92 103.665C1369.32 93.9812 1375.49 86.613 1383.41 81.5784C1391.35 76.5437 1400.53 74.0264 1410.97 74.0264H1429.29V34.7783H1408.53Z" fill="#231F20"/>
<path d="M1508.39 34.7757V-22.4243L1462.71 -22.0385V34.7757H1422.51V74.0238H1462.71V155.001C1462.71 183.683 1468.81 203.16 1481.01 213.413C1493.23 223.685 1508.58 228.811 1527.08 228.811H1566.53V190.868H1536.52C1517.76 190.868 1508.39 179.604 1508.39 157.077V74.0238H1566.53V34.7757H1508.39Z" fill="#231F20"/>
<path d="M1705.09 34.9621L1660.17 152.357L1655.08 172.183L1650.17 152.173L1604.49 34.7783H1556.35L1566.53 60.0985L1630.73 219.755L1628.45 226.352C1625.57 233.904 1622.63 239.875 1619.69 244.285C1616.73 248.677 1613.07 251.947 1608.74 254.097C1604.38 256.229 1598.89 257.313 1592.22 257.313H1566.53V295.054H1592.6C1607.56 295.054 1619.87 293.143 1629.5 289.303C1639.13 285.463 1647.71 278.535 1655.26 268.54C1662.81 258.544 1670.42 243.844 1678.1 224.459L1753.79 34.7783L1705.09 34.9621Z" fill="#231F20"/>
<path d="M1089.09 302.79C1087.66 298.858 1085.93 295.072 1084 291.324C1075.9 275.65 1064.63 263.229 1050.24 254.024C1047.36 252.186 1044.44 250.569 1041.42 249.118C1040.95 248.879 1040.47 248.64 1039.97 248.456C1033.36 245.332 1026.45 243.127 1019.17 241.841C1013.51 240.776 1007.65 240.243 1001.61 240.243C991.685 240.243 982.296 242.025 973.512 245.535C970.058 246.913 966.696 248.548 963.388 250.459C951.739 257.221 942.68 266.298 936.102 277.617L937.002 257.827L891.599 303.231V439.956H934.999V407.286C941.669 419.285 951.022 428.674 963.002 435.528C975.038 442.4 988.084 445.799 1002.2 445.799C1019.93 445.799 1035.95 441.187 1050.24 432.036C1064.49 422.831 1075.71 410.41 1083.91 394.773C1085.87 391.08 1087.56 387.239 1089.03 383.362C1089.03 383.307 1089.09 383.307 1089.09 383.27C1093.83 370.739 1096.18 357.325 1096.18 342.938C1096.18 328.643 1093.83 315.266 1089.09 302.79ZM1043.15 375.02C1037.97 384.226 1031.06 391.263 1022.39 396.261C1013.7 401.241 1004.2 403.74 993.89 403.74C983.582 403.74 974.045 401.094 965.262 395.875C956.534 390.639 949.589 383.399 944.444 374.193C939.262 364.933 936.671 354.533 936.671 342.938C936.671 331.858 939.226 321.679 944.352 312.381C949.442 303.029 956.351 295.734 965.115 290.369C971.491 286.491 978.363 283.993 985.603 282.927C988.231 282.541 990.913 282.357 993.706 282.357C996.536 282.357 999.31 282.541 1001.99 282.927C1009.29 283.937 1016.1 286.289 1022.48 289.983C1031.21 295.072 1038.15 302.257 1043.24 311.426C1048.33 320.631 1050.87 331.123 1050.87 342.938C1050.87 355.157 1048.28 365.851 1043.15 375.02Z" fill="#231F20"/>
<path d="M1260.85 249.119V278.757C1254.57 266.722 1245.25 257.222 1232.98 250.369C1232.21 249.946 1231.4 249.505 1230.59 249.119H1152.65C1149.87 250.571 1147.19 252.188 1144.51 253.97C1130.6 263.231 1119.61 275.689 1111.65 291.417C1109.78 295.111 1108.11 298.914 1106.66 302.791C1102.01 315.304 1099.65 328.681 1099.65 342.94C1099.65 357.272 1101.97 370.796 1106.62 383.364C1108.05 387.204 1109.69 390.989 1111.56 394.683C1119.46 410.411 1130.39 422.869 1144.4 432.038C1158.36 441.244 1173.91 445.801 1191.01 445.801C1206.74 445.801 1220.76 442.438 1232.98 435.639C1245.25 428.822 1254.57 419.378 1260.85 407.343V439.994H1304.26V249.119H1260.85ZM1251.39 373.625C1246.36 382.886 1239.47 390.162 1230.74 395.546C1221.99 400.856 1212.4 403.557 1201.95 403.557C1191.64 403.557 1182.16 401.095 1173.46 396.171C1164.79 391.265 1157.83 384.227 1152.7 375.058C1147.52 365.853 1144.93 355.159 1144.93 342.94C1144.93 331.125 1147.52 320.633 1152.61 311.427C1157.68 302.258 1164.59 295.111 1173.28 290.039C1181.95 284.894 1191.51 282.359 1201.95 282.359C1212.4 282.359 1221.96 285.097 1230.63 290.462C1239.32 295.882 1246.23 303.214 1251.3 312.475C1256.39 321.735 1258.98 331.897 1258.98 342.94C1258.98 354.148 1256.43 364.364 1251.39 373.625Z" fill="#231F20"/>
<path d="M1480.63 264.609C1475.5 258.141 1469.31 253.015 1462.16 249.119H1384.05C1383.46 249.358 1382.95 249.707 1382.36 249.983C1370.47 256.598 1361.69 265.344 1356.03 276.13V249.119H1312.63V439.994H1358.29V340.863C1358.29 328.681 1360.64 318.134 1365.38 309.259C1370.09 300.384 1376.37 293.677 1384.14 289.065C1391.95 284.472 1400.44 282.175 1409.65 282.175C1424 282.175 1435.08 286.53 1442.85 295.313C1450.66 304.041 1454.54 317.711 1454.54 336.362V439.994H1500.25V335.406C1500.25 304.555 1493.68 280.962 1480.63 264.609Z" fill="#231F20"/>
<path d="M1599.11 373.46L1656.8 299.851H1601.22L1552.77 360.579V249.119H1507.11V439.994H1552.77V419.231L1565.87 403.3L1616.27 490.726H1667.59L1599.11 373.46Z" fill="#231F20"/>
<path d="M937.26 236.695V241.215C935.974 240.977 934.688 240.756 933.383 240.572L937.26 236.695Z" fill="white"/>
<path d="M1639.17 404.125C1639.89 386.357 1655.32 371.602 1672.98 371.841C1691.41 372.08 1706.5 387.827 1706.11 406.495C1705.74 425.017 1689.61 440.433 1671.45 439.643C1652.93 438.834 1638.42 422.849 1639.17 404.125Z" fill="black"/>
</g>
<g opacity="0.05">
<path d="M180.999 80.1604C172.896 64.4869 161.632 52.0657 147.245 42.8968C132.802 33.6911 116.596 29.0791 98.6072 29.0791C84.7528 29.0791 71.9457 32.5335 60.2043 39.4056C48.4446 46.2593 39.0552 55.612 31.9994 67.4085V34.7385H-11.4014V282.354L34.2594 236.693V219.917L33.304 197.464C33.6163 197.997 33.9287 198.529 34.2594 199.062C40.7457 209.646 49.5287 218.135 60.6821 224.566C72.3867 231.273 85.2305 234.635 99.1952 234.635C116.927 234.635 132.949 230.079 147.245 220.873C161.485 211.704 172.712 199.246 180.907 183.609C189.12 167.917 193.181 150.664 193.181 131.756C193.181 113.069 189.12 95.8523 180.999 80.1604ZM140.152 163.893C134.97 173.062 128.062 180.155 119.389 185.098C110.698 190.077 101.198 192.576 90.8899 192.576C80.5817 192.576 71.0453 189.93 62.2623 184.712C53.5344 179.53 46.5888 172.291 41.4439 163.03C36.2623 153.769 33.6715 143.369 33.6715 131.756C33.6715 120.731 36.2255 110.515 41.352 101.218C46.4418 91.9202 53.3506 84.5703 62.1153 79.2049C70.8432 73.8763 80.398 71.1936 90.7061 71.1936C101.161 71.1936 110.753 73.7293 119.481 78.8742C128.209 83.9456 135.154 91.0933 140.244 100.262C145.334 109.468 147.869 119.96 147.869 131.756C147.869 143.994 145.279 154.688 140.152 163.893Z" fill="#231F20"/>
<path d="M357.23 34.7741V67.6095C350.927 55.5374 341.648 46.0561 329.392 39.2024C317.118 32.3486 303.062 28.9126 287.204 28.9126C270.208 28.9126 254.773 33.543 240.864 42.7854C226.954 52.0462 216.003 64.5225 208.028 80.2512C200.035 95.9798 196.03 113.16 196.03 131.792C196.03 150.534 199.999 167.769 207.937 183.498C215.856 199.227 226.807 211.684 240.772 220.872C254.737 230.059 270.281 234.653 287.388 234.653C303.117 234.653 317.118 231.253 329.392 224.455C341.648 217.656 350.927 208.23 357.23 196.14V228.81H400.631V34.7741H357.23ZM347.785 162.459C342.751 171.701 335.86 179.014 327.114 184.343C318.368 189.708 308.776 192.373 298.339 192.373C288.013 192.373 278.513 189.911 269.84 185.005C261.149 180.099 254.24 173.061 249.077 163.874C243.914 154.687 241.341 143.993 241.341 131.792C241.341 119.959 243.877 109.448 248.985 100.261C254.075 91.0738 260.966 83.9445 269.657 78.8363C278.329 73.7466 287.884 71.1925 298.339 71.1925C308.776 71.1925 318.349 73.9119 327.022 79.3141C335.713 84.7346 342.604 92.0476 347.694 101.308C352.783 110.551 355.337 120.712 355.337 131.792C355.337 142.982 352.82 153.217 347.785 162.459Z" fill="#231F20"/>
<path d="M505.527 34.7783C493.18 34.7783 482.596 37.8836 473.721 44.1126C464.846 50.3416 458.084 58.9409 453.417 69.8738V34.7783H409.63V228.814H455.31V138.576C455.31 124.997 457.514 113.366 461.924 103.665C466.316 93.9812 472.49 86.613 480.409 81.5784C488.347 76.5437 497.534 74.0264 507.971 74.0264H526.291V34.7783H505.527Z" fill="#231F20"/>
<path d="M605.393 34.7757V-22.4243L559.714 -22.0385V34.7757H519.51V74.0238H559.714V155.001C559.714 183.683 565.814 203.16 578.015 213.413C590.234 223.685 605.577 228.811 624.08 228.811H663.53V190.868H633.525C614.764 190.868 605.393 179.604 605.393 157.077V74.0238H663.53V34.7757H605.393Z" fill="#231F20"/>
<path d="M802.094 34.9621L757.168 152.357L752.078 172.183L747.172 152.173L701.493 34.7783H653.352L663.531 60.0985L727.732 219.755L725.453 226.352C722.569 233.904 719.629 239.875 716.689 244.285C713.73 248.677 710.074 251.947 705.737 254.097C701.383 256.229 695.889 257.313 689.219 257.313H663.531V295.054H689.605C704.562 295.054 716.872 293.143 726.501 289.303C736.129 285.463 744.71 278.535 752.262 268.54C759.814 258.544 767.421 243.844 775.102 224.459L850.786 34.7783L802.094 34.9621Z" fill="#231F20"/>
<path d="M186.089 302.79C184.655 298.858 182.928 295.072 180.999 291.324C172.896 275.65 161.632 263.229 147.245 254.024C144.36 252.186 141.438 250.569 138.425 249.118C137.947 248.879 137.469 248.64 136.973 248.456C130.358 245.332 123.45 243.127 116.173 241.841C110.514 240.776 104.652 240.243 98.6072 240.243C88.6849 240.243 79.2955 242.025 70.5125 245.535C67.0581 246.913 63.6955 248.548 60.3881 250.459C48.7386 257.221 39.6799 266.298 33.1019 277.617L34.0022 257.827L-11.4014 303.231V439.956H31.9994V407.286C38.6693 419.285 48.022 428.674 60.0022 435.528C72.0376 442.4 85.0835 445.799 99.1952 445.799C116.927 445.799 132.949 441.187 147.245 432.036C161.485 422.831 172.712 410.41 180.907 394.773C182.873 391.08 184.563 387.239 186.033 383.362C186.033 383.307 186.089 383.307 186.089 383.27C190.829 370.739 193.181 357.325 193.181 342.938C193.181 328.643 190.829 315.266 186.089 302.79ZM140.152 375.02C134.97 384.226 128.062 391.263 119.389 396.261C110.698 401.241 101.198 403.74 90.8899 403.74C80.5817 403.74 71.0453 401.094 62.2623 395.875C53.5344 390.639 46.5888 383.399 41.4439 374.193C36.2623 364.933 33.6715 354.533 33.6715 342.938C33.6715 331.858 36.2255 321.679 41.352 312.381C46.4418 303.029 53.3506 295.734 62.1153 290.369C68.4913 286.491 75.3634 283.993 82.603 282.927C85.2305 282.541 87.9132 282.357 90.7061 282.357C93.5358 282.357 96.3104 282.541 98.9931 282.927C106.288 283.937 113.105 286.289 119.481 289.983C128.209 295.072 135.154 302.257 140.244 311.426C145.334 320.631 147.869 331.123 147.869 342.938C147.869 355.157 145.279 365.851 140.152 375.02Z" fill="#231F20"/>
<path d="M357.854 249.119V278.757C351.57 266.722 342.254 257.222 329.98 250.369C329.208 249.946 328.4 249.505 327.592 249.119H249.647C246.872 250.571 244.189 252.188 241.507 253.97C227.597 263.231 216.609 275.689 208.653 291.417C206.779 295.111 205.107 298.914 203.655 302.791C199.006 315.304 196.654 328.681 196.654 342.94C196.654 357.272 198.969 370.796 203.618 383.364C205.051 387.204 206.687 390.989 208.561 394.683C216.462 410.411 227.395 422.869 241.396 432.038C255.361 441.244 270.906 445.801 288.013 445.801C303.741 445.801 317.761 442.438 329.98 435.639C342.254 428.822 351.57 419.378 357.854 407.343V439.994H401.255V249.119H357.854ZM348.392 373.625C343.357 382.886 336.466 390.162 327.739 395.546C318.992 400.856 309.401 403.557 298.946 403.557C288.637 403.557 279.156 401.095 270.465 396.171C261.792 391.265 254.828 384.227 249.702 375.058C244.52 365.853 241.929 355.159 241.929 342.94C241.929 331.125 244.52 320.633 249.61 311.427C254.681 302.258 261.59 295.111 270.281 290.039C278.954 284.894 288.509 282.359 298.946 282.359C309.401 282.359 318.955 285.097 327.628 290.462C336.319 295.882 343.228 303.214 348.3 312.475C353.389 321.735 355.98 331.897 355.98 342.94C355.98 354.148 353.426 364.364 348.392 373.625Z" fill="#231F20"/>
<path d="M577.629 264.609C572.503 258.141 566.31 253.015 559.163 249.119H481.052C480.464 249.358 479.95 249.707 479.362 249.983C467.473 256.598 458.69 265.344 453.031 276.13V249.119H409.63V439.994H455.291V340.863C455.291 328.681 457.643 318.134 462.384 309.259C467.088 300.384 473.372 293.677 481.144 289.065C488.953 284.472 497.442 282.175 506.648 282.175C520.999 282.175 532.079 286.53 539.851 295.313C547.66 304.041 551.537 317.711 551.537 336.362V439.994H597.253V335.406C597.253 304.555 590.675 280.962 577.629 264.609Z" fill="#231F20"/>
<path d="M696.108 373.46L753.805 299.851H698.222L649.768 360.579V249.119H604.107V439.994H649.768V419.231L662.869 403.3L713.27 490.726H764.59L696.108 373.46Z" fill="#231F20"/>
<path d="M34.2603 236.695V241.215C32.9741 240.977 31.6879 240.756 30.3833 240.572L34.2603 236.695Z" fill="white"/>
<path d="M736.171 404.125C736.887 386.357 752.322 371.602 769.98 371.841C788.41 372.08 803.495 387.827 803.109 406.495C802.742 425.017 786.609 440.433 768.455 439.643C749.933 438.834 735.417 422.849 736.171 404.125Z" fill="black"/>
</g>
</g>
<path d="M1728 488H0V508H1728V488Z" fill="#E91B41" mask="url(#path-1-inside-1_1294_3832)"/>
<defs>
<linearGradient id="paint0_linear_1294_3832" x1="864" y1="0" x2="864" y2="498" gradientUnits="userSpaceOnUse">
<stop stop-color="#E91B41"/>
<stop offset="1" stop-color="#9E3AC3"/>
</linearGradient>
<clipPath id="clip0_1294_3832">
<path d="M0 0H1728V498H0V0Z" fill="white"/>
</clipPath>
</defs>
</svg>
