<svg width="780" height="400" viewBox="0 0 780 400" fill="none" xmlns="http://www.w3.org/2000/svg">
<rect width="780" height="400" rx="20" fill="#FBFBFB"/>
<g clip-path="url(#clip0_1290_3606)">
<rect x="101" y="52" width="596.037" height="295.334" rx="17.899" fill="white"/>
<line x1="101" y1="101.819" x2="697.037" y2="101.819" stroke="#DDE0E3" stroke-width="0.596634"/>
<path d="M153.363 84.5117V72.8177H159.076C159.867 72.8177 160.563 72.9736 161.165 73.2855C161.777 73.5862 162.25 74.0094 162.585 74.5551C162.93 75.1008 163.102 75.7301 163.102 76.4428C163.102 77.189 162.896 77.8461 162.484 78.4141C162.072 78.9821 161.521 79.4053 160.83 79.6838L163.42 84.5117H160.714L158.425 80.0346H155.785V84.5117H153.363ZM155.785 78.0466H158.859C159.405 78.0466 159.839 77.9018 160.162 77.6122C160.496 77.3227 160.663 76.944 160.663 76.4763C160.663 76.0085 160.496 75.6298 160.162 75.3403C159.839 75.0507 159.405 74.9059 158.859 74.9059H155.785V78.0466ZM168.305 84.6788C167.437 84.6788 166.646 84.4783 165.933 84.0774C165.231 83.6764 164.675 83.1363 164.262 82.4569C163.85 81.7775 163.644 81.0146 163.644 80.1682C163.644 79.3218 163.839 78.5589 164.229 77.8795C164.63 77.2002 165.17 76.66 165.85 76.2591C166.529 75.8581 167.286 75.6577 168.121 75.6577C168.957 75.6577 169.697 75.8637 170.343 76.2758C170.989 76.6879 171.496 77.2447 171.864 77.9464C172.242 78.648 172.432 79.4443 172.432 80.3353V80.9367H165.983C166.083 81.2819 166.245 81.5938 166.468 81.8722C166.702 82.1506 166.985 82.3678 167.32 82.5237C167.665 82.6797 168.032 82.7576 168.422 82.7576C168.812 82.7576 169.168 82.6964 169.491 82.5739C169.825 82.4513 170.109 82.2787 170.343 82.056L171.847 83.4258C171.312 83.8602 170.761 84.1776 170.193 84.3781C169.636 84.5785 169.007 84.6788 168.305 84.6788ZM165.95 79.2995H170.176C170.098 78.9543 169.954 78.6536 169.742 78.3974C169.541 78.1301 169.296 77.9241 169.007 77.7793C168.728 77.6234 168.417 77.5454 168.071 77.5454C167.715 77.5454 167.392 77.6178 167.102 77.7626C166.813 77.9074 166.568 78.1134 166.367 78.3807C166.178 78.6369 166.039 78.9431 165.95 79.2995ZM180.364 87.9197V83.8268C179.663 84.3614 178.85 84.6287 177.925 84.6287C177.101 84.6287 176.355 84.4282 175.687 84.0273C175.018 83.6263 174.484 83.0917 174.083 82.4235C173.693 81.7441 173.498 80.9868 173.498 80.1515C173.498 79.3162 173.693 78.5645 174.083 77.8962C174.484 77.2169 175.024 76.6823 175.703 76.2925C176.383 75.8916 177.146 75.6911 177.992 75.6911C178.437 75.6911 178.861 75.7523 179.262 75.8748C179.674 75.9974 180.052 76.17 180.398 76.3927V75.808H182.653V87.9197H180.364ZM178.293 82.6741C178.716 82.6741 179.1 82.6073 179.445 82.4736C179.802 82.3288 180.108 82.1172 180.364 81.8388V78.4475C180.108 78.1914 179.802 77.9909 179.445 77.8461C179.089 77.7013 178.705 77.629 178.293 77.629C177.814 77.629 177.379 77.7403 176.99 77.9631C176.611 78.1747 176.31 78.4754 176.088 78.8652C175.865 79.2438 175.753 79.6726 175.753 80.1515C175.753 80.6304 175.865 81.0592 176.088 81.4379C176.31 81.8165 176.611 82.1172 176.99 82.34C177.379 82.5627 177.814 82.6741 178.293 82.6741ZM187.813 84.6788C187.144 84.6788 186.549 84.534 186.025 84.2444C185.513 83.9437 185.106 83.5316 184.806 83.0082C184.516 82.4848 184.371 81.8833 184.371 81.204V75.808H186.66V80.8699C186.66 81.4267 186.821 81.8722 187.144 82.2063C187.478 82.5404 187.924 82.7075 188.481 82.7075C188.859 82.7075 189.199 82.6351 189.5 82.4903C189.812 82.3344 190.068 82.1172 190.268 81.8388V75.808H192.557V84.5117H190.268V83.8101C189.6 84.3892 188.782 84.6788 187.813 84.6788ZM198.601 84.6788C197.732 84.6788 196.941 84.4783 196.229 84.0774C195.527 83.6764 194.97 83.1363 194.558 82.4569C194.146 81.7775 193.94 81.0146 193.94 80.1682C193.94 79.3218 194.135 78.5589 194.525 77.8795C194.925 77.2002 195.466 76.66 196.145 76.2591C196.824 75.8581 197.582 75.6577 198.417 75.6577C199.252 75.6577 199.993 75.8637 200.639 76.2758C201.285 76.6879 201.792 77.2447 202.159 77.9464C202.538 78.648 202.727 79.4443 202.727 80.3353V80.9367H196.279C196.379 81.2819 196.54 81.5938 196.763 81.8722C196.997 82.1506 197.281 82.3678 197.615 82.5237C197.96 82.6797 198.328 82.7576 198.718 82.7576C199.107 82.7576 199.464 82.6964 199.787 82.5739C200.121 82.4513 200.405 82.2787 200.639 82.056L202.142 83.4258C201.608 83.8602 201.056 84.1776 200.488 84.3781C199.932 84.5785 199.302 84.6788 198.601 84.6788ZM196.245 79.2995H200.472C200.394 78.9543 200.249 78.6536 200.037 78.3974C199.837 78.1301 199.592 77.9241 199.302 77.7793C199.024 77.6234 198.712 77.5454 198.367 77.5454C198.01 77.5454 197.687 77.6178 197.398 77.7626C197.108 77.9074 196.863 78.1134 196.663 78.3807C196.474 78.6369 196.334 78.9431 196.245 79.2995ZM207.468 84.6788C206.667 84.6788 205.926 84.5785 205.247 84.3781C204.567 84.1665 203.977 83.8658 203.476 83.476L204.612 81.9557C205.113 82.2899 205.592 82.5404 206.048 82.7075C206.516 82.8746 206.978 82.9581 207.435 82.9581C207.947 82.9581 208.354 82.8746 208.655 82.7075C208.966 82.5293 209.122 82.301 209.122 82.0226C209.122 81.7998 209.033 81.6216 208.855 81.488C208.688 81.3543 208.415 81.2597 208.036 81.204L206.366 80.9534C205.497 80.8197 204.84 80.5413 204.395 80.1181C203.949 79.6838 203.726 79.1158 203.726 78.4141C203.726 77.8461 203.871 77.3617 204.161 76.9607C204.461 76.5486 204.879 76.2312 205.414 76.0085C205.959 75.7746 206.605 75.6577 207.352 75.6577C207.986 75.6577 208.604 75.7468 209.206 75.925C209.818 76.1032 210.392 76.376 210.927 76.7435L209.824 78.2304C209.345 77.9297 208.888 77.7125 208.454 77.5788C208.02 77.4452 207.58 77.3784 207.134 77.3784C206.722 77.3784 206.388 77.4563 206.132 77.6122C205.887 77.7682 205.764 77.9742 205.764 78.2304C205.764 78.4642 205.854 78.648 206.032 78.7816C206.21 78.9153 206.516 79.01 206.951 79.0656L208.604 79.3162C209.473 79.4387 210.136 79.7172 210.592 80.1515C211.049 80.5747 211.277 81.126 211.277 81.8054C211.277 82.3622 211.11 82.8579 210.776 83.2922C210.442 83.7154 209.991 84.0551 209.423 84.3112C208.855 84.5563 208.204 84.6788 207.468 84.6788ZM216.38 84.6454C215.411 84.6454 214.676 84.4282 214.175 83.9938C213.685 83.5484 213.44 82.9024 213.44 82.056V77.7125H211.652V75.808H213.44V73.5862L215.729 73.0683V75.808H218.218V77.7125H215.729V81.5882C215.729 81.9892 215.818 82.2787 215.996 82.4569C216.174 82.624 216.486 82.7075 216.931 82.7075C217.154 82.7075 217.355 82.6964 217.533 82.6741C217.722 82.6407 217.928 82.585 218.151 82.507V84.3948C217.917 84.4727 217.622 84.534 217.265 84.5785C216.92 84.6231 216.625 84.6454 216.38 84.6454ZM222.845 84.5117V72.8177H228.709C229.477 72.8177 230.151 72.9736 230.73 73.2855C231.321 73.5973 231.783 74.0316 232.117 74.5885C232.451 75.1342 232.618 75.769 232.618 76.493C232.618 77.1835 232.451 77.8016 232.117 78.3473C231.783 78.893 231.321 79.3218 230.73 79.6336C230.14 79.9455 229.466 80.1014 228.709 80.1014H225.268V84.5117H222.845ZM225.268 78.0967H228.442C228.965 78.0967 229.383 77.9519 229.695 77.6624C230.018 77.3728 230.179 76.9886 230.179 76.5097C230.179 76.0196 230.018 75.6298 229.695 75.3403C229.383 75.0507 228.965 74.9059 228.442 74.9059H225.268V78.0967ZM236.513 84.6621C235.889 84.6621 235.338 84.5507 234.859 84.328C234.38 84.0941 234.007 83.7767 233.74 83.3757C233.472 82.9748 233.339 82.5126 233.339 81.9892C233.339 81.1539 233.65 80.5079 234.274 80.0513C234.909 79.5835 235.778 79.3496 236.88 79.3496C237.638 79.3496 238.35 79.4666 239.019 79.7005V79.0656C239.019 78.5645 238.863 78.1858 238.551 77.9297C238.239 77.6735 237.782 77.5454 237.181 77.5454C236.813 77.5454 236.418 77.6067 235.995 77.7292C235.572 77.8406 235.082 78.0188 234.525 78.2638L233.689 76.5765C234.38 76.2646 235.037 76.0308 235.661 75.8748C236.296 75.7189 236.93 75.641 237.565 75.641C238.735 75.641 239.642 75.925 240.288 76.493C240.945 77.0498 241.274 77.8406 241.274 78.8652V84.5117H239.019V83.8936C238.662 84.1609 238.278 84.3558 237.866 84.4783C237.454 84.6008 237.003 84.6621 236.513 84.6621ZM235.51 81.939C235.51 82.2731 235.655 82.5404 235.945 82.7409C236.234 82.9302 236.619 83.0249 237.097 83.0249C237.476 83.0249 237.827 82.9804 238.15 82.8913C238.473 82.791 238.762 82.6462 239.019 82.4569V81.1873C238.74 81.0759 238.451 80.9924 238.15 80.9367C237.849 80.881 237.526 80.8532 237.181 80.8532C236.658 80.8532 236.245 80.9534 235.945 81.1539C235.655 81.3432 235.51 81.6049 235.51 81.939ZM243.695 88.1035C243.494 88.1035 243.3 88.0923 243.11 88.07C242.932 88.0589 242.782 88.0422 242.659 88.0199V86.0486C242.882 86.0932 243.149 86.1155 243.461 86.1155C244.296 86.1155 244.875 85.7201 245.198 84.9294L245.332 84.5952L241.941 75.808H244.463L246.635 81.7386L249.091 75.808H251.563L247.554 85.2134C247.253 85.915 246.925 86.4774 246.568 86.9006C246.212 87.3239 245.8 87.6301 245.332 87.8195C244.875 88.0088 244.33 88.1035 243.695 88.1035ZM256.483 84.6788C255.614 84.6788 254.829 84.4783 254.128 84.0774C253.426 83.6764 252.869 83.1363 252.457 82.4569C252.045 81.7775 251.839 81.0146 251.839 80.1682C251.839 79.3218 252.039 78.5589 252.44 77.8795C252.852 77.189 253.409 76.6433 254.111 76.2424C254.824 75.8414 255.614 75.641 256.483 75.641C257.352 75.641 258.137 75.8414 258.839 76.2424C259.551 76.6433 260.108 77.189 260.509 77.8795C260.921 78.5589 261.127 79.3218 261.127 80.1682C261.127 81.0146 260.921 81.7775 260.509 82.4569C260.108 83.1363 259.557 83.6764 258.855 84.0774C258.154 84.4783 257.363 84.6788 256.483 84.6788ZM256.483 82.6908C256.94 82.6908 257.346 82.5794 257.703 82.3567C258.07 82.1339 258.36 81.8332 258.571 81.4546C258.794 81.0648 258.905 80.636 258.905 80.1682C258.905 79.6893 258.794 79.2605 258.571 78.8819C258.36 78.5032 258.07 78.2025 257.703 77.9798C257.346 77.7459 256.94 77.629 256.483 77.629C256.038 77.629 255.631 77.7459 255.264 77.9798C254.896 78.2025 254.607 78.5032 254.395 78.8819C254.183 79.2605 254.078 79.6893 254.078 80.1682C254.078 80.636 254.183 81.0648 254.395 81.4546C254.607 81.8332 254.896 82.1339 255.264 82.3567C255.631 82.5794 256.038 82.6908 256.483 82.6908ZM265.909 84.6788C265.24 84.6788 264.645 84.534 264.121 84.2444C263.609 83.9437 263.202 83.5316 262.902 83.0082C262.612 82.4848 262.467 81.8833 262.467 81.204V75.808H264.756V80.8699C264.756 81.4267 264.917 81.8722 265.24 82.2063C265.575 82.5404 266.02 82.7075 266.577 82.7075C266.956 82.7075 267.295 82.6351 267.596 82.4903C267.908 82.3344 268.164 82.1172 268.364 81.8388V75.808H270.653V84.5117H268.364V83.8101C267.696 84.3892 266.878 84.6788 265.909 84.6788ZM276.563 84.6454C275.594 84.6454 274.859 84.4282 274.358 83.9938C273.868 83.5484 273.623 82.9024 273.623 82.056V77.7125H271.835V75.808H273.623V73.5862L275.912 73.0683V75.808H278.401V77.7125H275.912V81.5882C275.912 81.9892 276.001 82.2787 276.179 82.4569C276.357 82.624 276.669 82.7075 277.114 82.7075C277.337 82.7075 277.538 82.6964 277.716 82.6741C277.905 82.6407 278.111 82.585 278.334 82.507V84.3948C278.1 84.4727 277.805 84.534 277.449 84.5785C277.103 84.6231 276.808 84.6454 276.563 84.6454Z" fill="#080D18"/>
<rect x="114.126" y="66.3184" width="23.8653" height="23.8653" rx="11.9327" fill="#F7F6F7"/>
<path d="M125.723 82.2782L121.696 78.2509L125.723 74.2236M122.255 78.2509H130.422" stroke="#080D18" stroke-width="1.19327" stroke-linecap="round" stroke-linejoin="round"/>
<path d="M123.309 129.79C122.507 129.79 121.734 129.632 120.99 129.317C120.245 129.002 119.586 128.558 119.013 127.985L119.93 126.926C120.474 127.46 121.028 127.857 121.591 128.114C122.164 128.372 122.76 128.501 123.381 128.501C123.868 128.501 124.292 128.434 124.655 128.3C125.028 128.157 125.314 127.957 125.514 127.699C125.715 127.441 125.815 127.15 125.815 126.826C125.815 126.377 125.658 126.033 125.343 125.795C125.028 125.556 124.507 125.375 123.782 125.25L122.106 124.978C121.19 124.816 120.503 124.52 120.044 124.091C119.596 123.661 119.371 123.088 119.371 122.372C119.371 121.8 119.524 121.298 119.83 120.869C120.135 120.43 120.565 120.091 121.118 119.852C121.682 119.613 122.331 119.494 123.066 119.494C123.791 119.494 124.503 119.613 125.199 119.852C125.906 120.081 126.541 120.415 127.104 120.854L126.273 122C125.195 121.179 124.102 120.769 122.994 120.769C122.555 120.769 122.173 120.831 121.849 120.955C121.524 121.079 121.271 121.255 121.09 121.485C120.908 121.704 120.818 121.962 120.818 122.258C120.818 122.668 120.956 122.983 121.233 123.203C121.51 123.413 121.968 123.566 122.608 123.661L124.226 123.933C125.285 124.105 126.063 124.415 126.56 124.864C127.056 125.313 127.304 125.928 127.304 126.711C127.304 127.322 127.137 127.861 126.803 128.329C126.469 128.787 126.001 129.145 125.4 129.403C124.798 129.661 124.102 129.79 123.309 129.79ZM132.159 129.775C131.443 129.775 130.794 129.608 130.212 129.274C129.639 128.94 129.181 128.487 128.837 127.914C128.503 127.341 128.336 126.702 128.336 125.995C128.336 125.298 128.498 124.668 128.823 124.105C129.147 123.532 129.586 123.079 130.14 122.745C130.694 122.401 131.31 122.229 131.987 122.229C132.665 122.229 133.267 122.401 133.792 122.745C134.317 123.079 134.732 123.537 135.037 124.119C135.352 124.692 135.51 125.341 135.51 126.067V126.468H129.768C129.844 126.869 129.992 127.227 130.212 127.542C130.441 127.857 130.727 128.105 131.071 128.286C131.424 128.468 131.806 128.558 132.216 128.558C132.57 128.558 132.909 128.506 133.233 128.401C133.567 128.286 133.844 128.124 134.064 127.914L134.98 128.816C134.55 129.141 134.107 129.384 133.648 129.546C133.2 129.699 132.703 129.775 132.159 129.775ZM129.782 125.394H134.092C134.035 125.012 133.901 124.678 133.691 124.391C133.491 124.095 133.238 123.866 132.932 123.704C132.636 123.532 132.312 123.446 131.959 123.446C131.596 123.446 131.262 123.527 130.956 123.69C130.651 123.852 130.393 124.081 130.183 124.377C129.983 124.663 129.849 125.002 129.782 125.394ZM136.874 129.646V119.623L138.306 119.351V129.646H136.874ZM143.486 129.775C142.77 129.775 142.121 129.608 141.538 129.274C140.966 128.94 140.508 128.487 140.164 127.914C139.83 127.341 139.663 126.702 139.663 125.995C139.663 125.298 139.825 124.668 140.15 124.105C140.474 123.532 140.913 123.079 141.467 122.745C142.021 122.401 142.636 122.229 143.314 122.229C143.992 122.229 144.593 122.401 145.118 122.745C145.643 123.079 146.059 123.537 146.364 124.119C146.679 124.692 146.837 125.341 146.837 126.067V126.468H141.095C141.171 126.869 141.319 127.227 141.538 127.542C141.768 127.857 142.054 128.105 142.398 128.286C142.751 128.468 143.133 128.558 143.543 128.558C143.896 128.558 144.235 128.506 144.56 128.401C144.894 128.286 145.171 128.124 145.39 127.914L146.307 128.816C145.877 129.141 145.433 129.384 144.975 129.546C144.526 129.699 144.03 129.775 143.486 129.775ZM141.109 125.394H145.419C145.362 125.012 145.228 124.678 145.018 124.391C144.818 124.095 144.565 123.866 144.259 123.704C143.963 123.532 143.639 123.446 143.285 123.446C142.923 123.446 142.589 123.527 142.283 123.69C141.978 123.852 141.72 124.081 141.51 124.377C141.309 124.663 141.176 125.002 141.109 125.394ZM151.651 129.775C150.954 129.775 150.319 129.608 149.746 129.274C149.173 128.94 148.72 128.487 148.386 127.914C148.061 127.341 147.899 126.702 147.899 125.995C147.899 125.289 148.066 124.654 148.4 124.091C148.734 123.518 149.183 123.064 149.746 122.73C150.319 122.387 150.954 122.215 151.651 122.215C152.204 122.215 152.734 122.32 153.24 122.53C153.756 122.74 154.199 123.036 154.572 123.418L153.684 124.406C153.407 124.1 153.097 123.871 152.753 123.718C152.41 123.566 152.052 123.489 151.679 123.489C151.24 123.489 150.839 123.599 150.476 123.819C150.123 124.038 149.842 124.339 149.632 124.721C149.422 125.103 149.317 125.527 149.317 125.995C149.317 126.463 149.422 126.888 149.632 127.269C149.842 127.651 150.128 127.957 150.491 128.186C150.854 128.405 151.259 128.515 151.708 128.515C152.08 128.515 152.429 128.444 152.753 128.3C153.078 128.148 153.383 127.928 153.67 127.642L154.543 128.558C154.161 128.95 153.717 129.25 153.211 129.46C152.715 129.67 152.195 129.775 151.651 129.775ZM158.957 129.775C158.251 129.775 157.711 129.613 157.339 129.289C156.967 128.954 156.781 128.472 156.781 127.842V123.561H155.234V122.358H156.781V120.497L158.198 120.153V122.358H160.346V123.561H158.198V127.513C158.198 127.885 158.279 128.153 158.442 128.315C158.613 128.468 158.89 128.544 159.272 128.544C159.473 128.544 159.649 128.53 159.802 128.501C159.964 128.472 160.136 128.429 160.317 128.372V129.575C160.126 129.642 159.902 129.689 159.644 129.718C159.396 129.756 159.167 129.775 158.957 129.775ZM164.565 129.646V119.623H171.954V120.94H166.069V123.947H169.935V125.222H166.069V128.329H172.011V129.646H164.565ZM175.593 129.646L172.443 122.358H174.018L176.295 127.814L178.572 122.358H180.09L176.968 129.646H175.593ZM184.262 129.775C183.546 129.775 182.897 129.608 182.315 129.274C181.742 128.94 181.284 128.487 180.94 127.914C180.606 127.341 180.439 126.702 180.439 125.995C180.439 125.298 180.601 124.668 180.926 124.105C181.25 123.532 181.689 123.079 182.243 122.745C182.797 122.401 183.412 122.229 184.09 122.229C184.768 122.229 185.369 122.401 185.894 122.745C186.42 123.079 186.835 123.537 187.14 124.119C187.455 124.692 187.613 125.341 187.613 126.067V126.468H181.871C181.947 126.869 182.095 127.227 182.315 127.542C182.544 127.857 182.83 128.105 183.174 128.286C183.527 128.468 183.909 128.558 184.319 128.558C184.673 128.558 185.011 128.506 185.336 128.401C185.67 128.286 185.947 128.124 186.167 127.914L187.083 128.816C186.653 129.141 186.209 129.384 185.751 129.546C185.303 129.699 184.806 129.775 184.262 129.775ZM181.885 125.394H186.195C186.138 125.012 186.004 124.678 185.794 124.391C185.594 124.095 185.341 123.866 185.035 123.704C184.739 123.532 184.415 123.446 184.062 123.446C183.699 123.446 183.365 123.527 183.059 123.69C182.754 123.852 182.496 124.081 182.286 124.377C182.086 124.663 181.952 125.002 181.885 125.394ZM188.977 129.646V122.358H190.408V123.103C190.972 122.511 191.702 122.215 192.599 122.215C193.163 122.215 193.654 122.334 194.074 122.573C194.504 122.811 194.838 123.146 195.077 123.575C195.325 124.005 195.449 124.501 195.449 125.064V129.646H194.017V125.308C194.017 124.735 193.855 124.286 193.53 123.962C193.215 123.628 192.771 123.461 192.198 123.461C191.817 123.461 191.473 123.542 191.167 123.704C190.862 123.866 190.609 124.1 190.408 124.406V129.646H188.977ZM200.013 129.775C199.306 129.775 198.767 129.613 198.395 129.289C198.023 128.954 197.836 128.472 197.836 127.842V123.561H196.29V122.358H197.836V120.497L199.254 120.153V122.358H201.402V123.561H199.254V127.513C199.254 127.885 199.335 128.153 199.497 128.315C199.669 128.468 199.946 128.544 200.328 128.544C200.528 128.544 200.705 128.53 200.858 128.501C201.02 128.472 201.192 128.429 201.373 128.372V129.575C201.182 129.642 200.958 129.689 200.7 129.718C200.452 129.756 200.223 129.775 200.013 129.775Z" fill="#080D18"/>
<path d="M121.534 201.241L119.343 191.218H120.889L122.45 198.879L124.713 191.218H126.144L128.407 198.864L129.982 191.218H131.457L129.266 201.241H127.72L125.414 193.366L123.094 201.241H121.534ZM132.749 201.241V193.953H134.18V201.241H132.749ZM133.464 192.779C133.226 192.779 133.021 192.693 132.849 192.521C132.677 192.339 132.591 192.129 132.591 191.891C132.591 191.643 132.677 191.437 132.849 191.275C133.021 191.103 133.226 191.017 133.464 191.017C133.713 191.017 133.923 191.103 134.095 191.275C134.266 191.437 134.352 191.643 134.352 191.891C134.352 192.129 134.266 192.339 134.095 192.521C133.923 192.693 133.713 192.779 133.464 192.779ZM138.988 201.37C138.282 201.37 137.743 201.208 137.37 200.883C136.998 200.549 136.812 200.067 136.812 199.437V195.156H135.265V193.953H136.812V192.091L138.23 191.748V193.953H140.377V195.156H138.23V199.108C138.23 199.48 138.311 199.747 138.473 199.91C138.645 200.062 138.922 200.139 139.303 200.139C139.504 200.139 139.681 200.124 139.833 200.096C139.996 200.067 140.167 200.024 140.349 199.967V201.17C140.158 201.236 139.934 201.284 139.676 201.313C139.428 201.351 139.198 201.37 138.988 201.37ZM141.432 201.241V191.218L142.864 190.903V194.697C143.427 194.105 144.158 193.81 145.055 193.81C145.618 193.81 146.11 193.929 146.53 194.168C146.96 194.406 147.294 194.74 147.532 195.17C147.781 195.599 147.905 196.096 147.905 196.659V201.241H146.473V196.902C146.473 196.33 146.31 195.881 145.986 195.556C145.661 195.222 145.217 195.055 144.654 195.055C144.272 195.055 143.929 195.136 143.623 195.299C143.318 195.461 143.065 195.695 142.864 196V201.241H141.432ZM152.907 201.356C152.23 201.356 151.609 201.189 151.046 200.855C150.483 200.52 150.039 200.072 149.714 199.509C149.39 198.936 149.227 198.296 149.227 197.59C149.227 196.883 149.39 196.249 149.714 195.685C150.048 195.122 150.497 194.673 151.06 194.339C151.624 194.005 152.249 193.838 152.936 193.838C153.337 193.838 153.724 193.9 154.096 194.024C154.468 194.148 154.812 194.33 155.127 194.568V191.218L156.559 190.946V201.241H155.141V200.54C154.521 201.084 153.776 201.356 152.907 201.356ZM153.094 200.11C153.514 200.11 153.896 200.034 154.239 199.881C154.592 199.728 154.888 199.509 155.127 199.222V195.943C154.888 195.676 154.592 195.466 154.239 195.313C153.896 195.151 153.514 195.07 153.094 195.07C152.635 195.07 152.22 195.179 151.848 195.399C151.476 195.619 151.18 195.919 150.96 196.301C150.741 196.673 150.631 197.098 150.631 197.575C150.631 198.053 150.741 198.482 150.96 198.864C151.18 199.246 151.476 199.552 151.848 199.781C152.22 200 152.635 200.11 153.094 200.11ZM158.255 201.241V193.953H159.687V194.883C159.916 194.54 160.197 194.273 160.531 194.082C160.875 193.881 161.262 193.781 161.691 193.781C161.987 193.79 162.231 193.833 162.421 193.91V195.199C162.288 195.141 162.149 195.103 162.006 195.084C161.863 195.055 161.72 195.041 161.577 195.041C161.157 195.041 160.784 195.156 160.46 195.385C160.135 195.604 159.877 195.929 159.687 196.358V201.241H158.255ZM165.58 201.37C165.055 201.37 164.592 201.279 164.191 201.098C163.79 200.907 163.475 200.645 163.246 200.31C163.017 199.976 162.902 199.59 162.902 199.151C162.902 198.463 163.165 197.924 163.69 197.533C164.215 197.132 164.936 196.931 165.852 196.931C166.568 196.931 167.232 197.07 167.843 197.346V196.573C167.843 196.048 167.69 195.657 167.384 195.399C167.088 195.141 166.649 195.012 166.067 195.012C165.733 195.012 165.384 195.065 165.022 195.17C164.659 195.265 164.253 195.418 163.805 195.628L163.275 194.554C163.828 194.296 164.344 194.11 164.821 193.996C165.298 193.872 165.781 193.81 166.267 193.81C167.212 193.81 167.943 194.034 168.458 194.483C168.983 194.931 169.246 195.571 169.246 196.401V201.241H167.843V200.611C167.518 200.869 167.17 201.06 166.797 201.184C166.425 201.308 166.019 201.37 165.58 201.37ZM164.277 199.122C164.277 199.475 164.425 199.762 164.721 199.981C165.026 200.191 165.423 200.296 165.909 200.296C166.291 200.296 166.64 200.244 166.955 200.139C167.279 200.024 167.575 199.847 167.843 199.609V198.377C167.566 198.215 167.275 198.101 166.969 198.034C166.673 197.957 166.339 197.919 165.967 197.919C165.442 197.919 165.026 198.029 164.721 198.248C164.425 198.459 164.277 198.75 164.277 199.122ZM172.116 201.241L170.083 193.953H171.472L172.89 199.308L174.551 193.953H175.782L177.443 199.308L178.861 193.953H180.207L178.159 201.241H176.784L175.152 195.9L173.505 201.241H172.116ZM183.392 201.241L187.53 191.218H189.305L193.401 201.241H191.768L190.609 198.306H186.127L184.952 201.241H183.392ZM186.613 197.06H190.122L188.375 192.65L186.613 197.06ZM194.262 201.241V193.953H195.694V194.654C196.238 194.091 196.921 193.81 197.742 193.81C198.238 193.81 198.677 193.919 199.059 194.139C199.451 194.358 199.761 194.654 199.99 195.027C200.296 194.626 200.654 194.325 201.064 194.125C201.474 193.915 201.937 193.81 202.453 193.81C202.997 193.81 203.47 193.929 203.871 194.168C204.281 194.406 204.601 194.74 204.83 195.17C205.069 195.599 205.188 196.096 205.188 196.659V201.241H203.756V196.902C203.756 196.33 203.603 195.881 203.298 195.556C203.002 195.222 202.596 195.055 202.081 195.055C201.727 195.055 201.408 195.136 201.121 195.299C200.835 195.461 200.587 195.709 200.377 196.043C200.396 196.139 200.41 196.239 200.42 196.344C200.429 196.449 200.434 196.554 200.434 196.659V201.241H199.016V196.902C199.016 196.33 198.864 195.881 198.558 195.556C198.262 195.222 197.856 195.055 197.341 195.055C196.997 195.055 196.687 195.132 196.41 195.284C196.133 195.428 195.895 195.647 195.694 195.943V201.241H194.262ZM210.299 201.384C209.592 201.384 208.948 201.217 208.366 200.883C207.793 200.549 207.34 200.096 207.005 199.523C206.671 198.95 206.504 198.311 206.504 197.604C206.504 196.898 206.671 196.258 207.005 195.685C207.34 195.113 207.793 194.659 208.366 194.325C208.948 193.981 209.592 193.81 210.299 193.81C211.015 193.81 211.659 193.981 212.232 194.325C212.805 194.659 213.258 195.113 213.592 195.685C213.926 196.258 214.093 196.898 214.093 197.604C214.093 198.311 213.926 198.95 213.592 199.523C213.258 200.096 212.805 200.549 212.232 200.883C211.659 201.217 211.015 201.384 210.299 201.384ZM210.299 200.124C210.748 200.124 211.153 200.015 211.516 199.795C211.879 199.566 212.165 199.26 212.375 198.879C212.585 198.497 212.69 198.067 212.69 197.59C212.69 197.122 212.58 196.702 212.361 196.33C212.151 195.948 211.864 195.642 211.502 195.413C211.148 195.184 210.748 195.07 210.299 195.07C209.85 195.07 209.445 195.184 209.082 195.413C208.729 195.642 208.442 195.948 208.223 196.33C208.013 196.702 207.908 197.122 207.908 197.59C207.908 198.067 208.013 198.497 208.223 198.879C208.433 199.26 208.719 199.566 209.082 199.795C209.445 200.015 209.85 200.124 210.299 200.124ZM218.268 201.384C217.705 201.384 217.209 201.265 216.779 201.026C216.35 200.788 216.016 200.454 215.777 200.024C215.538 199.585 215.419 199.084 215.419 198.521V193.953H216.836V198.277C216.836 198.85 216.999 199.303 217.323 199.637C217.657 199.972 218.101 200.139 218.655 200.139C219.046 200.139 219.395 200.057 219.7 199.895C220.006 199.723 220.254 199.485 220.445 199.179V193.953H221.877V201.241H220.445V200.497C219.882 201.088 219.156 201.384 218.268 201.384ZM223.572 201.241V193.953H225.004V194.697C225.567 194.105 226.297 193.81 227.195 193.81C227.758 193.81 228.25 193.929 228.67 194.168C229.099 194.406 229.433 194.74 229.672 195.17C229.92 195.599 230.044 196.096 230.044 196.659V201.241H228.612V196.902C228.612 196.33 228.45 195.881 228.126 195.556C227.81 195.222 227.367 195.055 226.794 195.055C226.412 195.055 226.068 195.136 225.763 195.299C225.457 195.461 225.204 195.695 225.004 196V201.241H223.572ZM234.608 201.37C233.902 201.37 233.363 201.208 232.99 200.883C232.618 200.549 232.432 200.067 232.432 199.437V195.156H230.885V193.953H232.432V192.091L233.849 191.748V193.953H235.997V195.156H233.849V199.108C233.849 199.48 233.931 199.747 234.093 199.91C234.265 200.062 234.541 200.139 234.923 200.139C235.124 200.139 235.3 200.124 235.453 200.096C235.615 200.067 235.787 200.024 235.969 199.967V201.17C235.778 201.236 235.553 201.284 235.296 201.313C235.047 201.351 234.818 201.37 234.608 201.37Z" fill="#080D18"/>
<path d="M402.124 201.241V191.218H403.584L409.183 198.664V191.218H410.601V201.241H409.283L403.556 193.566V201.241H402.124ZM414.647 201.37C414.122 201.37 413.659 201.279 413.258 201.098C412.857 200.907 412.542 200.645 412.313 200.31C412.084 199.976 411.969 199.59 411.969 199.151C411.969 198.463 412.232 197.924 412.757 197.533C413.282 197.132 414.003 196.931 414.919 196.931C415.635 196.931 416.298 197.07 416.909 197.346V196.573C416.909 196.048 416.757 195.657 416.451 195.399C416.155 195.141 415.716 195.012 415.134 195.012C414.8 195.012 414.451 195.065 414.089 195.17C413.726 195.265 413.32 195.418 412.871 195.628L412.342 194.554C412.895 194.296 413.411 194.11 413.888 193.996C414.365 193.872 414.847 193.81 415.334 193.81C416.279 193.81 417.01 194.034 417.525 194.483C418.05 194.931 418.313 195.571 418.313 196.401V201.241H416.909V200.611C416.585 200.869 416.236 201.06 415.864 201.184C415.492 201.308 415.086 201.37 414.647 201.37ZM413.344 199.122C413.344 199.475 413.492 199.762 413.788 199.981C414.093 200.191 414.489 200.296 414.976 200.296C415.358 200.296 415.707 200.244 416.022 200.139C416.346 200.024 416.642 199.847 416.909 199.609V198.377C416.633 198.215 416.341 198.101 416.036 198.034C415.74 197.957 415.406 197.919 415.034 197.919C414.509 197.919 414.093 198.029 413.788 198.248C413.492 198.459 413.344 198.75 413.344 199.122ZM419.963 201.241V193.953H421.395V194.883C421.624 194.54 421.905 194.273 422.239 194.082C422.583 193.881 422.97 193.781 423.399 193.781C423.695 193.79 423.939 193.833 424.13 193.91V195.199C423.996 195.141 423.857 195.103 423.714 195.084C423.571 195.055 423.428 195.041 423.285 195.041C422.865 195.041 422.492 195.156 422.168 195.385C421.843 195.604 421.585 195.929 421.395 196.358V201.241H419.963ZM425.276 201.241V193.953H426.708V194.883C426.937 194.54 427.219 194.273 427.553 194.082C427.897 193.881 428.283 193.781 428.713 193.781C429.009 193.79 429.252 193.833 429.443 193.91V195.199C429.31 195.141 429.171 195.103 429.028 195.084C428.885 195.055 428.742 195.041 428.598 195.041C428.178 195.041 427.806 195.156 427.482 195.385C427.157 195.604 426.899 195.929 426.708 196.358V201.241H425.276ZM432.602 201.37C432.077 201.37 431.614 201.279 431.213 201.098C430.812 200.907 430.497 200.645 430.268 200.31C430.039 199.976 429.924 199.59 429.924 199.151C429.924 198.463 430.187 197.924 430.712 197.533C431.237 197.132 431.958 196.931 432.874 196.931C433.59 196.931 434.253 197.07 434.864 197.346V196.573C434.864 196.048 434.712 195.657 434.406 195.399C434.11 195.141 433.671 195.012 433.089 195.012C432.755 195.012 432.406 195.065 432.043 195.17C431.681 195.265 431.275 195.418 430.826 195.628L430.297 194.554C430.85 194.296 431.366 194.11 431.843 193.996C432.32 193.872 432.802 193.81 433.289 193.81C434.234 193.81 434.965 194.034 435.48 194.483C436.005 194.931 436.268 195.571 436.268 196.401V201.241H434.864V200.611C434.54 200.869 434.191 201.06 433.819 201.184C433.447 201.308 433.041 201.37 432.602 201.37ZM431.299 199.122C431.299 199.475 431.447 199.762 431.743 199.981C432.048 200.191 432.444 200.296 432.931 200.296C433.313 200.296 433.662 200.244 433.977 200.139C434.301 200.024 434.597 199.847 434.864 199.609V198.377C434.588 198.215 434.296 198.101 433.991 198.034C433.695 197.957 433.361 197.919 432.989 197.919C432.464 197.919 432.048 198.029 431.743 198.248C431.447 198.459 431.299 198.75 431.299 199.122ZM440.829 201.37C440.123 201.37 439.584 201.208 439.211 200.883C438.839 200.549 438.653 200.067 438.653 199.437V195.156H437.106V193.953H438.653V192.091L440.071 191.748V193.953H442.218V195.156H440.071V199.108C440.071 199.48 440.152 199.747 440.314 199.91C440.486 200.062 440.763 200.139 441.144 200.139C441.345 200.139 441.522 200.124 441.674 200.096C441.837 200.067 442.008 200.024 442.19 199.967V201.17C441.999 201.236 441.774 201.284 441.517 201.313C441.269 201.351 441.039 201.37 440.829 201.37ZM443.273 201.241V193.953H444.705V201.241H443.273ZM443.989 192.779C443.751 192.779 443.545 192.693 443.374 192.521C443.202 192.339 443.116 192.129 443.116 191.891C443.116 191.643 443.202 191.437 443.374 191.275C443.545 191.103 443.751 191.017 443.989 191.017C444.237 191.017 444.447 191.103 444.619 191.275C444.791 191.437 444.877 191.643 444.877 191.891C444.877 192.129 444.791 192.339 444.619 192.521C444.447 192.693 444.237 192.779 443.989 192.779ZM449.857 201.384C449.15 201.384 448.506 201.217 447.924 200.883C447.351 200.549 446.898 200.096 446.563 199.523C446.229 198.95 446.062 198.311 446.062 197.604C446.062 196.898 446.229 196.258 446.563 195.685C446.898 195.113 447.351 194.659 447.924 194.325C448.506 193.981 449.15 193.81 449.857 193.81C450.573 193.81 451.217 193.981 451.79 194.325C452.363 194.659 452.816 195.113 453.15 195.685C453.484 196.258 453.651 196.898 453.651 197.604C453.651 198.311 453.484 198.95 453.15 199.523C452.816 200.096 452.363 200.549 451.79 200.883C451.217 201.217 450.573 201.384 449.857 201.384ZM449.857 200.124C450.306 200.124 450.711 200.015 451.074 199.795C451.437 199.566 451.723 199.26 451.933 198.879C452.143 198.497 452.248 198.067 452.248 197.59C452.248 197.122 452.138 196.702 451.919 196.33C451.709 195.948 451.422 195.642 451.06 195.413C450.707 195.184 450.306 195.07 449.857 195.07C449.408 195.07 449.003 195.184 448.64 195.413C448.287 195.642 448 195.948 447.781 196.33C447.571 196.702 447.466 197.122 447.466 197.59C447.466 198.067 447.571 198.497 447.781 198.879C447.991 199.26 448.277 199.566 448.64 199.795C449.003 200.015 449.408 200.124 449.857 200.124ZM455.006 201.241V193.953H456.437V194.697C457.001 194.105 457.731 193.81 458.628 193.81C459.192 193.81 459.683 193.929 460.103 194.168C460.533 194.406 460.867 194.74 461.106 195.17C461.354 195.599 461.478 196.096 461.478 196.659V201.241H460.046V196.902C460.046 196.33 459.884 195.881 459.559 195.556C459.244 195.222 458.8 195.055 458.227 195.055C457.846 195.055 457.502 195.136 457.196 195.299C456.891 195.461 456.638 195.695 456.437 196V201.241H455.006Z" fill="#080D18"/>
<path d="M403.742 129.646L401.551 119.623H403.097L404.658 127.284L406.921 119.623H408.352L410.615 127.269L412.19 119.623H413.665L411.474 129.646H409.928L407.622 121.771L405.302 129.646H403.742ZM414.957 129.646V122.358H416.388V129.646H414.957ZM415.672 121.184C415.434 121.184 415.229 121.098 415.057 120.926C414.885 120.745 414.799 120.535 414.799 120.296C414.799 120.048 414.885 119.843 415.057 119.68C415.229 119.508 415.434 119.423 415.672 119.423C415.921 119.423 416.131 119.508 416.303 119.68C416.474 119.843 416.56 120.048 416.56 120.296C416.56 120.535 416.474 120.745 416.303 120.926C416.131 121.098 415.921 121.184 415.672 121.184ZM421.196 129.775C420.49 129.775 419.951 129.613 419.578 129.289C419.206 128.954 419.02 128.472 419.02 127.842V123.561H417.473V122.358H419.02V120.497L420.438 120.153V122.358H422.585V123.561H420.438V127.513C420.438 127.885 420.519 128.153 420.681 128.315C420.853 128.468 421.13 128.544 421.511 128.544C421.712 128.544 421.889 128.53 422.041 128.501C422.204 128.472 422.375 128.429 422.557 128.372V129.575C422.366 129.642 422.142 129.689 421.884 129.718C421.636 129.756 421.406 129.775 421.196 129.775ZM423.64 129.646V119.623L425.072 119.308V123.103C425.635 122.511 426.366 122.215 427.263 122.215C427.826 122.215 428.318 122.334 428.738 122.573C429.168 122.811 429.502 123.146 429.74 123.575C429.989 124.005 430.113 124.501 430.113 125.064V129.646H428.681V125.308C428.681 124.735 428.518 124.286 428.194 123.962C427.869 123.628 427.425 123.461 426.862 123.461C426.48 123.461 426.137 123.542 425.831 123.704C425.526 123.866 425.273 124.1 425.072 124.406V129.646H423.64ZM435.115 129.761C434.438 129.761 433.817 129.594 433.254 129.26C432.691 128.926 432.247 128.477 431.922 127.914C431.598 127.341 431.435 126.702 431.435 125.995C431.435 125.289 431.598 124.654 431.922 124.091C432.256 123.527 432.705 123.079 433.268 122.745C433.832 122.411 434.457 122.243 435.144 122.243C435.545 122.243 435.932 122.306 436.304 122.43C436.676 122.554 437.02 122.735 437.335 122.974V119.623L438.767 119.351V129.646H437.349V128.945C436.729 129.489 435.984 129.761 435.115 129.761ZM435.302 128.515C435.722 128.515 436.104 128.439 436.447 128.286C436.8 128.133 437.096 127.914 437.335 127.627V124.348C437.096 124.081 436.8 123.871 436.447 123.718C436.104 123.556 435.722 123.475 435.302 123.475C434.843 123.475 434.428 123.585 434.056 123.804C433.684 124.024 433.388 124.325 433.168 124.706C432.949 125.079 432.839 125.503 432.839 125.981C432.839 126.458 432.949 126.888 433.168 127.269C433.388 127.651 433.684 127.957 434.056 128.186C434.428 128.405 434.843 128.515 435.302 128.515ZM440.463 129.646V122.358H441.895V123.289C442.124 122.945 442.405 122.678 442.739 122.487C443.083 122.286 443.47 122.186 443.899 122.186C444.195 122.196 444.439 122.239 444.629 122.315V123.604C444.496 123.547 444.357 123.508 444.214 123.489C444.071 123.461 443.928 123.446 443.785 123.446C443.365 123.446 442.992 123.561 442.668 123.79C442.343 124.009 442.085 124.334 441.895 124.764V129.646H440.463ZM447.788 129.775C447.263 129.775 446.8 129.685 446.399 129.503C445.998 129.312 445.683 129.05 445.454 128.716C445.225 128.382 445.11 127.995 445.11 127.556C445.11 126.869 445.373 126.329 445.898 125.938C446.423 125.537 447.144 125.336 448.06 125.336C448.776 125.336 449.44 125.475 450.051 125.752V124.978C450.051 124.453 449.898 124.062 449.592 123.804C449.296 123.547 448.857 123.418 448.275 123.418C447.941 123.418 447.592 123.47 447.23 123.575C446.867 123.671 446.461 123.823 446.013 124.033L445.483 122.959C446.036 122.702 446.552 122.516 447.029 122.401C447.507 122.277 447.989 122.215 448.475 122.215C449.421 122.215 450.151 122.439 450.666 122.888C451.191 123.336 451.454 123.976 451.454 124.807V129.646H450.051V129.016C449.726 129.274 449.378 129.465 449.005 129.589C448.633 129.713 448.227 129.775 447.788 129.775ZM446.485 127.527C446.485 127.88 446.633 128.167 446.929 128.386C447.234 128.596 447.631 128.701 448.117 128.701C448.499 128.701 448.848 128.649 449.163 128.544C449.487 128.429 449.783 128.253 450.051 128.014V126.783C449.774 126.62 449.483 126.506 449.177 126.439C448.881 126.363 448.547 126.324 448.175 126.324C447.65 126.324 447.234 126.434 446.929 126.654C446.633 126.864 446.485 127.155 446.485 127.527ZM454.324 129.646L452.291 122.358H453.68L455.098 127.713L456.759 122.358H457.99L459.651 127.713L461.069 122.358H462.415L460.367 129.646H458.992L457.36 124.305L455.713 129.646H454.324ZM465.645 129.775C465.12 129.775 464.657 129.685 464.256 129.503C463.855 129.312 463.54 129.05 463.311 128.716C463.082 128.382 462.967 127.995 462.967 127.556C462.967 126.869 463.23 126.329 463.755 125.938C464.28 125.537 465.001 125.336 465.917 125.336C466.633 125.336 467.297 125.475 467.908 125.752V124.978C467.908 124.453 467.755 124.062 467.449 123.804C467.153 123.547 466.714 123.418 466.132 123.418C465.798 123.418 465.449 123.47 465.087 123.575C464.724 123.671 464.318 123.823 463.87 124.033L463.34 122.959C463.893 122.702 464.409 122.516 464.886 122.401C465.364 122.277 465.846 122.215 466.332 122.215C467.278 122.215 468.008 122.439 468.523 122.888C469.048 123.336 469.311 123.976 469.311 124.807V129.646H467.908V129.016C467.583 129.274 467.235 129.465 466.862 129.589C466.49 129.713 466.084 129.775 465.645 129.775ZM464.342 127.527C464.342 127.88 464.49 128.167 464.786 128.386C465.091 128.596 465.488 128.701 465.975 128.701C466.356 128.701 466.705 128.649 467.02 128.544C467.344 128.429 467.64 128.253 467.908 128.014V126.783C467.631 126.62 467.34 126.506 467.034 126.439C466.738 126.363 466.404 126.324 466.032 126.324C465.507 126.324 465.091 126.434 464.786 126.654C464.49 126.864 464.342 127.155 464.342 127.527ZM470.961 129.646V119.623L472.393 119.351V129.646H470.961ZM476.241 129.646L480.379 119.623H482.155L486.25 129.646H484.618L483.458 126.711H478.976L477.802 129.646H476.241ZM479.463 125.465H482.971L481.224 121.055L479.463 125.465ZM490.157 129.775C489.46 129.775 488.825 129.608 488.252 129.274C487.679 128.94 487.226 128.487 486.892 127.914C486.567 127.341 486.405 126.702 486.405 125.995C486.405 125.289 486.572 124.654 486.906 124.091C487.24 123.518 487.689 123.064 488.252 122.73C488.825 122.387 489.46 122.215 490.157 122.215C490.71 122.215 491.24 122.32 491.746 122.53C492.262 122.74 492.705 123.036 493.078 123.418L492.19 124.406C491.913 124.1 491.603 123.871 491.259 123.718C490.916 123.566 490.558 123.489 490.185 123.489C489.746 123.489 489.345 123.599 488.982 123.819C488.629 124.038 488.348 124.339 488.138 124.721C487.928 125.103 487.823 125.527 487.823 125.995C487.823 126.463 487.928 126.888 488.138 127.269C488.348 127.651 488.634 127.957 488.997 128.186C489.36 128.405 489.765 128.515 490.214 128.515C490.586 128.515 490.935 128.444 491.259 128.3C491.584 128.148 491.889 127.928 492.176 127.642L493.049 128.558C492.667 128.95 492.223 129.25 491.717 129.46C491.221 129.67 490.701 129.775 490.157 129.775ZM497.414 129.775C496.717 129.775 496.082 129.608 495.51 129.274C494.937 128.94 494.483 128.487 494.149 127.914C493.825 127.341 493.662 126.702 493.662 125.995C493.662 125.289 493.83 124.654 494.164 124.091C494.498 123.518 494.946 123.064 495.51 122.73C496.082 122.387 496.717 122.215 497.414 122.215C497.968 122.215 498.498 122.32 499.004 122.53C499.519 122.74 499.963 123.036 500.335 123.418L499.447 124.406C499.171 124.1 498.86 123.871 498.517 123.718C498.173 123.566 497.815 123.489 497.443 123.489C497.004 123.489 496.603 123.599 496.24 123.819C495.887 124.038 495.605 124.339 495.395 124.721C495.185 125.103 495.08 125.527 495.08 125.995C495.08 126.463 495.185 126.888 495.395 127.269C495.605 127.651 495.892 127.957 496.254 128.186C496.617 128.405 497.023 128.515 497.471 128.515C497.844 128.515 498.192 128.444 498.517 128.3C498.841 128.148 499.147 127.928 499.433 127.642L500.307 128.558C499.925 128.95 499.481 129.25 498.975 129.46C498.479 129.67 497.958 129.775 497.414 129.775ZM504.715 129.79C504.008 129.79 503.364 129.623 502.781 129.289C502.209 128.954 501.755 128.501 501.421 127.928C501.087 127.355 500.92 126.716 500.92 126.009C500.92 125.303 501.087 124.663 501.421 124.091C501.755 123.518 502.209 123.064 502.781 122.73C503.364 122.387 504.008 122.215 504.715 122.215C505.431 122.215 506.075 122.387 506.648 122.73C507.22 123.064 507.674 123.518 508.008 124.091C508.342 124.663 508.509 125.303 508.509 126.009C508.509 126.716 508.342 127.355 508.008 127.928C507.674 128.501 507.22 128.954 506.648 129.289C506.075 129.623 505.431 129.79 504.715 129.79ZM504.715 128.53C505.163 128.53 505.569 128.42 505.932 128.2C506.294 127.971 506.581 127.666 506.791 127.284C507.001 126.902 507.106 126.472 507.106 125.995C507.106 125.527 506.996 125.107 506.777 124.735C506.567 124.353 506.28 124.048 505.917 123.819C505.564 123.589 505.163 123.475 504.715 123.475C504.266 123.475 503.86 123.589 503.497 123.819C503.144 124.048 502.858 124.353 502.638 124.735C502.428 125.107 502.323 125.527 502.323 125.995C502.323 126.472 502.428 126.902 502.638 127.284C502.848 127.666 503.135 127.971 503.497 128.2C503.86 128.42 504.266 128.53 504.715 128.53ZM512.684 129.79C512.121 129.79 511.624 129.67 511.195 129.432C510.765 129.193 510.431 128.859 510.193 128.429C509.954 127.99 509.835 127.489 509.835 126.926V122.358H511.252V126.682C511.252 127.255 511.414 127.709 511.739 128.043C512.073 128.377 512.517 128.544 513.071 128.544C513.462 128.544 513.811 128.463 514.116 128.3C514.422 128.129 514.67 127.89 514.861 127.585V122.358H516.293V129.646H514.861V128.902C514.297 129.494 513.572 129.79 512.684 129.79ZM517.988 129.646V122.358H519.42V123.103C519.983 122.511 520.713 122.215 521.61 122.215C522.174 122.215 522.665 122.334 523.085 122.573C523.515 122.811 523.849 123.146 524.088 123.575C524.336 124.005 524.46 124.501 524.46 125.064V129.646H523.028V125.308C523.028 124.735 522.866 124.286 522.541 123.962C522.226 123.628 521.782 123.461 521.21 123.461C520.828 123.461 520.484 123.542 520.179 123.704C519.873 123.866 519.62 124.1 519.42 124.406V129.646H517.988ZM529.024 129.775C528.318 129.775 527.778 129.613 527.406 129.289C527.034 128.954 526.847 128.472 526.847 127.842V123.561H525.301V122.358H526.847V120.497L528.265 120.153V122.358H530.413V123.561H528.265V127.513C528.265 127.885 528.346 128.153 528.509 128.315C528.68 128.468 528.957 128.544 529.339 128.544C529.539 128.544 529.716 128.53 529.869 128.501C530.031 128.472 530.203 128.429 530.384 128.372V129.575C530.193 129.642 529.969 129.689 529.711 129.718C529.463 129.756 529.234 129.775 529.024 129.775Z" fill="#080D18"/>
<path d="M437.501 309.745L437.501 320.485" stroke="#EBECED" stroke-width="0.596634" stroke-linecap="round"/>
<rect x="119.197" y="141.197" width="274.452" height="32.8148" rx="5.66802" fill="white"/>
<rect x="119.197" y="141.197" width="274.452" height="32.8148" rx="5.66802" stroke="#F4F5F6" stroke-width="0.596634"/>
<path d="M129.236 161.723C128.692 161.723 128.184 161.626 127.711 161.433C127.239 161.232 126.823 160.957 126.465 160.606C126.107 160.248 125.828 159.836 125.628 159.371C125.434 158.898 125.338 158.39 125.338 157.846C125.338 157.302 125.434 156.797 125.628 156.331C125.828 155.859 126.107 155.447 126.465 155.096C126.823 154.738 127.239 154.463 127.711 154.269C128.184 154.069 128.692 153.969 129.236 153.969C129.63 153.969 130.006 154.019 130.364 154.119C130.729 154.212 131.065 154.352 131.373 154.538C131.688 154.717 131.968 154.939 132.211 155.204L131.663 155.784C131.37 155.447 131.008 155.189 130.579 155.01C130.149 154.824 129.702 154.731 129.236 154.731C128.799 154.731 128.395 154.81 128.023 154.968C127.65 155.125 127.325 155.347 127.045 155.633C126.773 155.913 126.558 156.242 126.401 156.621C126.251 156.994 126.175 157.402 126.175 157.846C126.175 158.282 126.251 158.691 126.401 159.07C126.558 159.449 126.777 159.782 127.056 160.069C127.335 160.348 127.661 160.566 128.033 160.724C128.413 160.881 128.821 160.96 129.258 160.96C129.723 160.96 130.167 160.871 130.589 160.692C131.012 160.505 131.366 160.251 131.653 159.929L132.19 160.488C131.939 160.745 131.656 160.967 131.341 161.153C131.033 161.34 130.7 161.483 130.342 161.583C129.984 161.676 129.616 161.723 129.236 161.723ZM133.292 161.604V154.087L134.087 153.904V156.858C134.509 156.364 135.075 156.117 135.784 156.117C136.192 156.117 136.55 156.206 136.858 156.385C137.173 156.557 137.416 156.8 137.588 157.115C137.767 157.423 137.856 157.785 137.856 158.2V161.604H137.072V158.361C137.072 157.881 136.936 157.506 136.664 157.234C136.399 156.954 136.034 156.815 135.569 156.815C135.247 156.815 134.96 156.886 134.71 157.03C134.459 157.173 134.252 157.377 134.087 157.642V161.604H133.292ZM141.689 161.712C141.18 161.712 140.715 161.59 140.292 161.347C139.877 161.096 139.548 160.76 139.304 160.337C139.061 159.915 138.939 159.442 138.939 158.92C138.939 158.397 139.061 157.924 139.304 157.502C139.548 157.08 139.877 156.747 140.292 156.503C140.715 156.253 141.18 156.127 141.689 156.127C142.204 156.127 142.669 156.253 143.085 156.503C143.5 156.747 143.829 157.08 144.073 157.502C144.316 157.924 144.438 158.397 144.438 158.92C144.438 159.442 144.316 159.915 144.073 160.337C143.829 160.76 143.5 161.096 143.085 161.347C142.669 161.59 142.204 161.712 141.689 161.712ZM141.689 161.003C142.054 161.003 142.383 160.91 142.677 160.724C142.977 160.538 143.214 160.287 143.385 159.972C143.564 159.657 143.654 159.306 143.654 158.92C143.654 158.526 143.564 158.175 143.385 157.867C143.214 157.552 142.977 157.302 142.677 157.115C142.383 156.929 142.054 156.836 141.689 156.836C141.323 156.836 140.991 156.929 140.69 157.115C140.396 157.302 140.16 157.552 139.981 157.867C139.809 158.175 139.723 158.526 139.723 158.92C139.723 159.306 139.809 159.657 139.981 159.972C140.16 160.287 140.396 160.538 140.69 160.724C140.991 160.91 141.323 161.003 141.689 161.003ZM148.044 161.712C147.536 161.712 147.07 161.59 146.648 161.347C146.233 161.096 145.903 160.76 145.66 160.337C145.417 159.915 145.295 159.442 145.295 158.92C145.295 158.397 145.417 157.924 145.66 157.502C145.903 157.08 146.233 156.747 146.648 156.503C147.07 156.253 147.536 156.127 148.044 156.127C148.56 156.127 149.025 156.253 149.44 156.503C149.856 156.747 150.185 157.08 150.428 157.502C150.672 157.924 150.793 158.397 150.793 158.92C150.793 159.442 150.672 159.915 150.428 160.337C150.185 160.76 149.856 161.096 149.44 161.347C149.025 161.59 148.56 161.712 148.044 161.712ZM148.044 161.003C148.409 161.003 148.739 160.91 149.032 160.724C149.333 160.538 149.569 160.287 149.741 159.972C149.92 159.657 150.009 159.306 150.009 158.92C150.009 158.526 149.92 158.175 149.741 157.867C149.569 157.552 149.333 157.302 149.032 157.115C148.739 156.929 148.409 156.836 148.044 156.836C147.679 156.836 147.346 156.929 147.045 157.115C146.752 157.302 146.516 157.552 146.337 157.867C146.165 158.175 146.079 158.526 146.079 158.92C146.079 159.306 146.165 159.657 146.337 159.972C146.516 160.287 146.752 160.538 147.045 160.724C147.346 160.91 147.679 161.003 148.044 161.003ZM153.616 161.712C153.172 161.712 152.753 161.64 152.359 161.497C151.973 161.347 151.636 161.139 151.35 160.874L151.833 160.359C152.084 160.588 152.359 160.767 152.66 160.896C152.961 161.017 153.268 161.078 153.583 161.078C154.013 161.078 154.364 160.989 154.636 160.81C154.908 160.631 155.044 160.398 155.044 160.112C155.044 159.875 154.962 159.693 154.797 159.564C154.64 159.428 154.389 159.335 154.045 159.285L153.111 159.156C152.574 159.077 152.173 158.916 151.908 158.673C151.65 158.429 151.522 158.1 151.522 157.685C151.522 157.384 151.607 157.115 151.779 156.879C151.951 156.643 152.187 156.457 152.488 156.321C152.796 156.185 153.147 156.117 153.541 156.117C153.934 156.117 154.303 156.174 154.647 156.288C154.99 156.403 155.327 156.582 155.656 156.825L155.237 157.362C154.937 157.155 154.643 157.004 154.357 156.911C154.078 156.811 153.791 156.761 153.498 156.761C153.125 156.761 152.825 156.843 152.595 157.008C152.366 157.173 152.252 157.387 152.252 157.652C152.252 157.896 152.331 158.082 152.488 158.211C152.646 158.333 152.9 158.418 153.251 158.469L154.185 158.597C154.722 158.669 155.123 158.827 155.388 159.07C155.66 159.313 155.796 159.646 155.796 160.069C155.796 160.377 155.699 160.656 155.506 160.906C155.313 161.157 155.051 161.354 154.722 161.497C154.4 161.64 154.031 161.712 153.616 161.712ZM159.266 161.701C158.751 161.701 158.282 161.579 157.86 161.336C157.444 161.085 157.111 160.749 156.861 160.327C156.617 159.904 156.496 159.432 156.496 158.909C156.496 158.393 156.614 157.928 156.85 157.513C157.086 157.09 157.405 156.757 157.806 156.514C158.207 156.263 158.654 156.138 159.148 156.138C159.628 156.138 160.058 156.263 160.437 156.514C160.824 156.757 161.128 157.09 161.35 157.513C161.579 157.928 161.694 158.393 161.694 158.909V159.156H157.28C157.323 159.507 157.434 159.822 157.613 160.101C157.799 160.38 158.039 160.602 158.332 160.767C158.626 160.924 158.948 161.003 159.299 161.003C159.578 161.003 159.85 160.96 160.115 160.874C160.38 160.788 160.602 160.667 160.781 160.509L161.275 161.035C160.974 161.257 160.659 161.426 160.33 161.54C160.008 161.647 159.653 161.701 159.266 161.701ZM157.301 158.522H160.899C160.856 158.2 160.749 157.914 160.577 157.663C160.412 157.405 160.204 157.205 159.954 157.062C159.703 156.911 159.428 156.836 159.127 156.836C158.819 156.836 158.536 156.908 158.278 157.051C158.021 157.194 157.806 157.395 157.634 157.652C157.462 157.903 157.351 158.193 157.301 158.522ZM165.262 161.604V154.087H170.643V154.817H166.089V157.448H169.064V158.168H166.089V160.874H170.686V161.604H165.262ZM173.332 161.604L171.002 156.224H171.883L173.719 160.574L175.555 156.224H176.404L174.084 161.604H173.332ZM179.497 161.701C178.982 161.701 178.513 161.579 178.09 161.336C177.675 161.085 177.342 160.749 177.092 160.327C176.848 159.904 176.727 159.432 176.727 158.909C176.727 158.393 176.845 157.928 177.081 157.513C177.317 157.09 177.636 156.757 178.037 156.514C178.438 156.263 178.885 156.138 179.379 156.138C179.859 156.138 180.288 156.263 180.668 156.514C181.054 156.757 181.359 157.09 181.581 157.513C181.81 157.928 181.924 158.393 181.924 158.909V159.156H177.51C177.553 159.507 177.664 159.822 177.843 160.101C178.03 160.38 178.269 160.602 178.563 160.767C178.856 160.924 179.179 161.003 179.529 161.003C179.809 161.003 180.081 160.96 180.346 160.874C180.611 160.788 180.833 160.667 181.012 160.509L181.506 161.035C181.205 161.257 180.89 161.426 180.56 161.54C180.238 161.647 179.884 161.701 179.497 161.701ZM177.532 158.522H181.13C181.087 158.2 180.979 157.914 180.807 157.663C180.643 157.405 180.435 157.205 180.185 157.062C179.934 156.911 179.658 156.836 179.358 156.836C179.05 156.836 178.767 156.908 178.509 157.051C178.251 157.194 178.037 157.395 177.865 157.652C177.693 157.903 177.582 158.193 177.532 158.522ZM183.035 161.604V156.224H183.83V156.858C184.253 156.364 184.818 156.117 185.527 156.117C185.935 156.117 186.293 156.206 186.601 156.385C186.916 156.557 187.159 156.8 187.331 157.115C187.51 157.423 187.6 157.785 187.6 158.2V161.604H186.816V158.361C186.816 157.881 186.68 157.506 186.408 157.234C186.143 156.954 185.778 156.815 185.312 156.815C184.99 156.815 184.704 156.886 184.453 157.03C184.202 157.173 183.995 157.377 183.83 157.642V161.604H183.035ZM190.888 161.712C190.422 161.712 190.064 161.601 189.814 161.379C189.563 161.157 189.438 160.835 189.438 160.412V156.901H188.278V156.224H189.438V154.86L190.222 154.656V156.224H191.844V156.901H190.222V160.208C190.222 160.495 190.286 160.702 190.415 160.831C190.544 160.953 190.755 161.014 191.049 161.014C191.199 161.014 191.332 161.003 191.446 160.982C191.568 160.96 191.697 160.924 191.833 160.874V161.572C191.697 161.622 191.543 161.658 191.371 161.68C191.206 161.701 191.045 161.712 190.888 161.712Z" fill="#DDE0E3"/>
<path d="M378.658 155.926L382.014 159.282L385.37 155.926" stroke="#080D18" stroke-width="1.19327" stroke-linecap="round" stroke-linejoin="round"/>
<rect x="119.197" y="212.792" width="274.452" height="32.8148" rx="5.66802" fill="white"/>
<rect x="119.197" y="212.792" width="274.452" height="32.8148" rx="5.66802" stroke="#F4F5F6" stroke-width="0.596634"/>
<path d="M125.692 233.2V225.683H126.519L131.04 231.783V225.683H131.824V233.2H131.094L126.476 226.939V233.2H125.692ZM137.007 233.318C136.463 233.318 135.955 233.218 135.482 233.018C135.017 232.817 134.605 232.542 134.247 232.191C133.896 231.833 133.621 231.421 133.42 230.956C133.22 230.483 133.12 229.978 133.12 229.441C133.12 228.904 133.216 228.403 133.41 227.938C133.61 227.465 133.886 227.054 134.237 226.703C134.595 226.345 135.006 226.066 135.472 225.865C135.944 225.665 136.452 225.564 136.997 225.564C137.576 225.564 138.124 225.672 138.64 225.887C139.155 226.101 139.596 226.406 139.961 226.8L139.402 227.369C139.116 227.039 138.758 226.785 138.328 226.606C137.906 226.42 137.462 226.327 136.997 226.327C136.567 226.327 136.166 226.406 135.794 226.563C135.429 226.721 135.106 226.943 134.827 227.229C134.555 227.508 134.34 227.838 134.183 228.217C134.032 228.589 133.957 228.998 133.957 229.441C133.957 229.878 134.032 230.286 134.183 230.666C134.34 231.045 134.555 231.378 134.827 231.664C135.106 231.944 135.429 232.162 135.794 232.32C136.166 232.477 136.567 232.556 136.997 232.556C137.505 232.556 137.963 232.445 138.371 232.223C138.786 232.001 139.119 231.697 139.37 231.31C139.628 230.923 139.778 230.487 139.821 230H137.125V229.27H140.659V229.602C140.659 230.125 140.566 230.612 140.379 231.063C140.193 231.514 139.936 231.908 139.606 232.244C139.277 232.581 138.89 232.846 138.446 233.039C138.002 233.225 137.523 233.318 137.007 233.318ZM141.938 233.2V225.683H142.765L147.286 231.783V225.683H148.07V233.2H147.34L142.722 226.939V233.2H141.938ZM154.755 233.318C154.153 233.318 153.623 233.154 153.165 232.824C152.707 232.495 152.345 232.04 152.08 231.46C151.823 230.873 151.694 230.2 151.694 229.441C151.694 228.682 151.823 228.013 152.08 227.433C152.345 226.846 152.707 226.388 153.165 226.058C153.623 225.729 154.153 225.564 154.755 225.564C155.356 225.564 155.886 225.729 156.344 226.058C156.802 226.388 157.16 226.846 157.418 227.433C157.683 228.013 157.815 228.682 157.815 229.441C157.815 230.2 157.683 230.873 157.418 231.46C157.16 232.04 156.802 232.495 156.344 232.824C155.886 233.154 155.356 233.318 154.755 233.318ZM154.755 232.62C155.22 232.62 155.621 232.491 155.957 232.234C156.301 231.969 156.566 231.596 156.752 231.117C156.938 230.637 157.031 230.079 157.031 229.441C157.031 228.797 156.938 228.239 156.752 227.766C156.566 227.286 156.301 226.918 155.957 226.66C155.621 226.395 155.22 226.263 154.755 226.263C154.296 226.263 153.895 226.395 153.552 226.66C153.208 226.918 152.943 227.286 152.757 227.766C152.571 228.239 152.478 228.797 152.478 229.441C152.478 230.079 152.571 230.637 152.757 231.117C152.943 231.596 153.208 231.969 153.552 232.234C153.895 232.491 154.296 232.62 154.755 232.62ZM159.328 233.265C159.177 233.265 159.049 233.211 158.941 233.104C158.834 232.996 158.78 232.867 158.78 232.717C158.78 232.567 158.834 232.438 158.941 232.33C159.049 232.223 159.177 232.169 159.328 232.169C159.478 232.169 159.607 232.223 159.714 232.33C159.822 232.438 159.876 232.567 159.876 232.717C159.876 232.867 159.822 232.996 159.714 233.104C159.607 233.211 159.478 233.265 159.328 233.265ZM163.9 233.318C163.298 233.318 162.769 233.154 162.31 232.824C161.852 232.495 161.491 232.04 161.226 231.46C160.968 230.873 160.839 230.2 160.839 229.441C160.839 228.682 160.968 228.013 161.226 227.433C161.491 226.846 161.852 226.388 162.31 226.058C162.769 225.729 163.298 225.564 163.9 225.564C164.501 225.564 165.031 225.729 165.489 226.058C165.948 226.388 166.306 226.846 166.563 227.433C166.828 228.013 166.961 228.682 166.961 229.441C166.961 230.2 166.828 230.873 166.563 231.46C166.306 232.04 165.948 232.495 165.489 232.824C165.031 233.154 164.501 233.318 163.9 233.318ZM163.9 232.62C164.365 232.62 164.766 232.491 165.103 232.234C165.446 231.969 165.711 231.596 165.897 231.117C166.084 230.637 166.177 230.079 166.177 229.441C166.177 228.797 166.084 228.239 165.897 227.766C165.711 227.286 165.446 226.918 165.103 226.66C164.766 226.395 164.365 226.263 163.9 226.263C163.442 226.263 163.041 226.395 162.697 226.66C162.353 226.918 162.088 227.286 161.902 227.766C161.716 228.239 161.623 228.797 161.623 229.441C161.623 230.079 161.716 230.637 161.902 231.117C162.088 231.596 162.353 231.969 162.697 232.234C163.041 232.491 163.442 232.62 163.9 232.62ZM171.011 233.318C170.409 233.318 169.879 233.154 169.421 232.824C168.963 232.495 168.601 232.04 168.336 231.46C168.079 230.873 167.95 230.2 167.95 229.441C167.95 228.682 168.079 228.013 168.336 227.433C168.601 226.846 168.963 226.388 169.421 226.058C169.879 225.729 170.409 225.564 171.011 225.564C171.612 225.564 172.142 225.729 172.6 226.058C173.058 226.388 173.416 226.846 173.674 227.433C173.939 228.013 174.071 228.682 174.071 229.441C174.071 230.2 173.939 230.873 173.674 231.46C173.416 232.04 173.058 232.495 172.6 232.824C172.142 233.154 171.612 233.318 171.011 233.318ZM171.011 232.62C171.476 232.62 171.877 232.491 172.213 232.234C172.557 231.969 172.822 231.596 173.008 231.117C173.194 230.637 173.287 230.079 173.287 229.441C173.287 228.797 173.194 228.239 173.008 227.766C172.822 227.286 172.557 226.918 172.213 226.66C171.877 226.395 171.476 226.263 171.011 226.263C170.552 226.263 170.151 226.395 169.808 226.66C169.464 226.918 169.199 227.286 169.013 227.766C168.827 228.239 168.734 228.797 168.734 229.441C168.734 230.079 168.827 230.637 169.013 231.117C169.199 231.596 169.464 231.969 169.808 232.234C170.151 232.491 170.552 232.62 171.011 232.62Z" fill="#DDE0E3"/>
<rect x="401.405" y="212.792" width="274.452" height="32.8148" rx="5.66802" fill="white"/>
<rect x="401.405" y="212.792" width="274.452" height="32.8148" rx="5.66802" stroke="#F4F5F6" stroke-width="0.596634"/>
<path d="M407.9 233.2V225.683H413.281V226.413H408.727V229.044H411.702V229.764H408.727V232.47H413.324V233.2H407.9ZM414.368 233.2V227.82H415.162V228.453C415.585 227.959 416.15 227.712 416.859 227.712C417.267 227.712 417.625 227.802 417.933 227.981C418.248 228.153 418.491 228.396 418.663 228.711C418.842 229.019 418.932 229.381 418.932 229.796V233.2H418.148V229.957C418.148 229.477 418.012 229.101 417.74 228.829C417.475 228.55 417.11 228.41 416.644 228.41C416.322 228.41 416.036 228.482 415.785 228.625C415.535 228.768 415.327 228.972 415.162 229.237V233.2H414.368ZM422.22 233.308C421.755 233.308 421.397 233.197 421.146 232.975C420.895 232.753 420.77 232.431 420.77 232.008V228.496H419.61V227.82H420.77V226.456L421.554 226.252V227.82H423.176V228.496H421.554V231.804C421.554 232.09 421.619 232.298 421.747 232.427C421.876 232.549 422.088 232.61 422.381 232.61C422.531 232.61 422.664 232.599 422.778 232.577C422.9 232.556 423.029 232.52 423.165 232.47V233.168C423.029 233.218 422.875 233.254 422.703 233.275C422.539 233.297 422.378 233.308 422.22 233.308ZM426.446 233.297C425.93 233.297 425.461 233.175 425.039 232.932C424.624 232.681 424.291 232.345 424.04 231.922C423.797 231.5 423.675 231.027 423.675 230.505C423.675 229.989 423.793 229.524 424.029 229.108C424.266 228.686 424.584 228.353 424.985 228.11C425.386 227.859 425.833 227.734 426.327 227.734C426.807 227.734 427.237 227.859 427.616 228.11C428.003 228.353 428.307 228.686 428.529 229.108C428.758 229.524 428.873 229.989 428.873 230.505V230.752H424.459C424.502 231.102 424.613 231.417 424.792 231.697C424.978 231.976 425.218 232.198 425.511 232.363C425.805 232.52 426.127 232.599 426.478 232.599C426.757 232.599 427.029 232.556 427.294 232.47C427.559 232.384 427.781 232.262 427.96 232.105L428.454 232.631C428.153 232.853 427.838 233.021 427.509 233.136C427.187 233.243 426.832 233.297 426.446 233.297ZM424.48 230.118H428.078C428.035 229.796 427.928 229.509 427.756 229.259C427.591 229.001 427.384 228.801 427.133 228.657C426.882 228.507 426.607 228.432 426.306 228.432C425.998 228.432 425.715 228.503 425.458 228.647C425.2 228.79 424.985 228.99 424.813 229.248C424.641 229.499 424.53 229.789 424.48 230.118ZM429.984 233.2V227.82H430.778V228.582C430.943 228.303 431.151 228.088 431.401 227.938C431.659 227.78 431.953 227.702 432.282 227.702C432.468 227.702 432.636 227.727 432.787 227.777V228.507C432.694 228.471 432.601 228.446 432.508 228.432C432.414 228.418 432.321 228.41 432.228 228.41C431.899 228.41 431.609 228.507 431.358 228.7C431.115 228.887 430.922 229.159 430.778 229.517V233.2H429.984ZM438.463 233.286C437.962 233.286 437.504 233.164 437.088 232.921C436.68 232.67 436.355 232.337 436.111 231.922C435.875 231.5 435.757 231.027 435.757 230.505C435.757 229.982 435.875 229.513 436.111 229.098C436.355 228.682 436.68 228.353 437.088 228.11C437.504 227.859 437.965 227.734 438.474 227.734C438.789 227.734 439.093 227.788 439.387 227.895C439.68 227.995 439.949 228.146 440.192 228.346V225.683L440.987 225.5V233.2H440.203V232.631C439.73 233.068 439.15 233.286 438.463 233.286ZM438.538 232.588C438.875 232.588 439.186 232.524 439.473 232.395C439.766 232.259 440.006 232.073 440.192 231.836V229.173C440.006 228.944 439.766 228.765 439.473 228.636C439.186 228.5 438.875 228.432 438.538 228.432C438.166 228.432 437.826 228.521 437.518 228.7C437.217 228.879 436.977 229.126 436.798 229.441C436.627 229.749 436.541 230.1 436.541 230.494C436.541 230.888 436.627 231.242 436.798 231.557C436.977 231.872 437.217 232.123 437.518 232.309C437.826 232.495 438.166 232.588 438.538 232.588ZM444.862 233.297C444.347 233.297 443.878 233.175 443.455 232.932C443.04 232.681 442.707 232.345 442.456 231.922C442.213 231.5 442.091 231.027 442.091 230.505C442.091 229.989 442.209 229.524 442.446 229.108C442.682 228.686 443.001 228.353 443.401 228.11C443.802 227.859 444.25 227.734 444.744 227.734C445.224 227.734 445.653 227.859 446.033 228.11C446.419 228.353 446.724 228.686 446.945 229.108C447.175 229.524 447.289 229.989 447.289 230.505V230.752H442.875C442.918 231.102 443.029 231.417 443.208 231.697C443.394 231.976 443.634 232.198 443.928 232.363C444.221 232.52 444.543 232.599 444.894 232.599C445.173 232.599 445.446 232.556 445.71 232.47C445.975 232.384 446.197 232.262 446.376 232.105L446.87 232.631C446.57 232.853 446.255 233.021 445.925 233.136C445.603 233.243 445.249 233.297 444.862 233.297ZM442.897 230.118H446.494C446.451 229.796 446.344 229.509 446.172 229.259C446.008 229.001 445.8 228.801 445.549 228.657C445.299 228.507 445.023 228.432 444.722 228.432C444.415 228.432 444.132 228.503 443.874 228.647C443.616 228.79 443.401 228.99 443.23 229.248C443.058 229.499 442.947 229.789 442.897 230.118ZM450.359 233.308C449.893 233.308 449.535 233.197 449.285 232.975C449.034 232.753 448.909 232.431 448.909 232.008V228.496H447.749V227.82H448.909V226.456L449.693 226.252V227.82H451.314V228.496H449.693V231.804C449.693 232.09 449.757 232.298 449.886 232.427C450.015 232.549 450.226 232.61 450.52 232.61C450.67 232.61 450.802 232.599 450.917 232.577C451.039 232.556 451.168 232.52 451.304 232.47V233.168C451.168 233.218 451.014 233.254 450.842 233.275C450.677 233.297 450.516 233.308 450.359 233.308ZM453.862 233.297C453.468 233.297 453.121 233.229 452.82 233.093C452.527 232.957 452.294 232.767 452.122 232.524C451.958 232.28 451.875 231.997 451.875 231.675C451.875 231.167 452.069 230.766 452.455 230.472C452.842 230.179 453.364 230.032 454.023 230.032C454.603 230.032 455.129 230.154 455.602 230.397V229.688C455.602 229.259 455.48 228.937 455.237 228.722C454.993 228.5 454.639 228.389 454.174 228.389C453.909 228.389 453.64 228.428 453.368 228.507C453.103 228.579 452.81 228.697 452.487 228.861L452.187 228.249C452.573 228.063 452.931 227.927 453.261 227.841C453.59 227.755 453.919 227.712 454.249 227.712C454.929 227.712 455.452 227.873 455.817 228.196C456.189 228.518 456.375 228.98 456.375 229.581V233.2H455.602V232.674C455.358 232.882 455.09 233.039 454.796 233.146C454.51 233.247 454.199 233.297 453.862 233.297ZM452.638 231.654C452.638 231.954 452.763 232.201 453.014 232.395C453.271 232.581 453.601 232.674 454.002 232.674C454.324 232.674 454.617 232.624 454.882 232.524C455.147 232.423 455.387 232.266 455.602 232.051V231.042C455.38 230.891 455.144 230.784 454.893 230.719C454.642 230.648 454.36 230.612 454.045 230.612C453.615 230.612 453.271 230.709 453.014 230.902C452.763 231.088 452.638 231.339 452.638 231.654ZM457.703 233.2V227.82H458.497V233.2H457.703ZM458.1 226.789C457.957 226.789 457.832 226.735 457.724 226.628C457.617 226.52 457.563 226.395 457.563 226.252C457.563 226.101 457.617 225.976 457.724 225.876C457.832 225.769 457.957 225.715 458.1 225.715C458.25 225.715 458.376 225.769 458.476 225.876C458.583 225.976 458.637 226.101 458.637 226.252C458.637 226.395 458.583 226.52 458.476 226.628C458.376 226.735 458.25 226.789 458.1 226.789ZM459.853 233.2V225.683L460.647 225.5V233.2H459.853ZM463.721 233.308C463.277 233.308 462.858 233.236 462.464 233.093C462.078 232.942 461.741 232.735 461.455 232.47L461.938 231.954C462.189 232.184 462.464 232.363 462.765 232.491C463.066 232.613 463.374 232.674 463.689 232.674C464.118 232.674 464.469 232.584 464.741 232.405C465.013 232.226 465.149 231.994 465.149 231.707C465.149 231.471 465.067 231.289 464.902 231.16C464.745 231.024 464.494 230.931 464.151 230.88L463.216 230.752C462.679 230.673 462.278 230.512 462.013 230.268C461.756 230.025 461.627 229.696 461.627 229.28C461.627 228.98 461.713 228.711 461.885 228.475C462.056 228.239 462.293 228.052 462.593 227.916C462.901 227.78 463.252 227.712 463.646 227.712C464.04 227.712 464.408 227.77 464.752 227.884C465.096 227.999 465.432 228.178 465.761 228.421L465.343 228.958C465.042 228.751 464.748 228.6 464.462 228.507C464.183 228.407 463.896 228.357 463.603 228.357C463.231 228.357 462.93 228.439 462.701 228.604C462.472 228.768 462.357 228.983 462.357 229.248C462.357 229.492 462.436 229.678 462.593 229.807C462.751 229.928 463.005 230.014 463.356 230.064L464.29 230.193C464.827 230.265 465.228 230.422 465.493 230.666C465.765 230.909 465.901 231.242 465.901 231.664C465.901 231.972 465.804 232.252 465.611 232.502C465.418 232.753 465.157 232.95 464.827 233.093C464.505 233.236 464.136 233.308 463.721 233.308ZM469.103 233.2V225.683L469.898 225.5V228.453C470.32 227.959 470.886 227.712 471.594 227.712C472.003 227.712 472.36 227.802 472.668 227.981C472.983 228.153 473.227 228.396 473.399 228.711C473.578 229.019 473.667 229.381 473.667 229.796V233.2H472.883V229.957C472.883 229.477 472.747 229.101 472.475 228.829C472.21 228.55 471.845 228.41 471.38 228.41C471.057 228.41 470.771 228.482 470.52 228.625C470.27 228.768 470.062 228.972 469.898 229.237V233.2H469.103ZM477.521 233.297C477.005 233.297 476.536 233.175 476.114 232.932C475.699 232.681 475.366 232.345 475.115 231.922C474.872 231.5 474.75 231.027 474.75 230.505C474.75 229.989 474.868 229.524 475.104 229.108C475.341 228.686 475.659 228.353 476.06 228.11C476.461 227.859 476.909 227.734 477.403 227.734C477.882 227.734 478.312 227.859 478.691 228.11C479.078 228.353 479.382 228.686 479.604 229.108C479.833 229.524 479.948 229.989 479.948 230.505V230.752H475.534C475.577 231.102 475.688 231.417 475.867 231.697C476.053 231.976 476.293 232.198 476.586 232.363C476.88 232.52 477.202 232.599 477.553 232.599C477.832 232.599 478.104 232.556 478.369 232.47C478.634 232.384 478.856 232.262 479.035 232.105L479.529 232.631C479.228 232.853 478.913 233.021 478.584 233.136C478.262 233.243 477.907 233.297 477.521 233.297ZM475.555 230.118H479.153C479.11 229.796 479.003 229.509 478.831 229.259C478.666 229.001 478.459 228.801 478.208 228.657C477.957 228.507 477.682 228.432 477.381 228.432C477.073 228.432 476.79 228.503 476.533 228.647C476.275 228.79 476.06 228.99 475.888 229.248C475.717 229.499 475.606 229.789 475.555 230.118ZM481.059 233.2V227.82H481.854V228.582C482.018 228.303 482.226 228.088 482.476 227.938C482.734 227.78 483.028 227.702 483.357 227.702C483.543 227.702 483.711 227.727 483.862 227.777V228.507C483.769 228.471 483.676 228.446 483.583 228.432C483.49 228.418 483.396 228.41 483.303 228.41C482.974 228.41 482.684 228.507 482.434 228.7C482.19 228.887 481.997 229.159 481.854 229.517V233.2H481.059ZM486.918 233.297C486.402 233.297 485.933 233.175 485.511 232.932C485.096 232.681 484.763 232.345 484.512 231.922C484.269 231.5 484.147 231.027 484.147 230.505C484.147 229.989 484.265 229.524 484.501 229.108C484.738 228.686 485.056 228.353 485.457 228.11C485.858 227.859 486.306 227.734 486.8 227.734C487.279 227.734 487.709 227.859 488.088 228.11C488.475 228.353 488.779 228.686 489.001 229.108C489.23 229.524 489.345 229.989 489.345 230.505V230.752H484.931C484.974 231.102 485.085 231.417 485.264 231.697C485.45 231.976 485.69 232.198 485.983 232.363C486.277 232.52 486.599 232.599 486.95 232.599C487.229 232.599 487.501 232.556 487.766 232.47C488.031 232.384 488.253 232.262 488.432 232.105L488.926 232.631C488.625 232.853 488.31 233.021 487.981 233.136C487.659 233.243 487.304 233.297 486.918 233.297ZM484.952 230.118H488.55C488.507 229.796 488.4 229.509 488.228 229.259C488.063 229.001 487.856 228.801 487.605 228.657C487.354 228.507 487.079 228.432 486.778 228.432C486.47 228.432 486.187 228.503 485.93 228.647C485.672 228.79 485.457 228.99 485.285 229.248C485.113 229.499 485.003 229.789 484.952 230.118Z" fill="#DDE0E3"/>
<rect x="401.405" y="141.197" width="274.452" height="32.8148" rx="5.66802" fill="#F4F4F5"/>
<rect x="401.405" y="141.197" width="274.452" height="32.8148" rx="5.66802" stroke="#F4F5F6" stroke-width="0.596634"/>
<path d="M407.836 161.604V154.087H409.35L411.702 158.898L414.054 154.087H415.557V161.604H414.494V155.462L411.691 161.068L408.888 155.462V161.604H407.836ZM416.957 161.604V156.138H418.031V161.604H416.957ZM417.494 155.258C417.315 155.258 417.161 155.193 417.032 155.064C416.903 154.928 416.839 154.771 416.839 154.592C416.839 154.406 416.903 154.252 417.032 154.13C417.161 154.001 417.315 153.937 417.494 153.937C417.68 153.937 417.838 154.001 417.967 154.13C418.095 154.252 418.16 154.406 418.16 154.592C418.16 154.771 418.095 154.928 417.967 155.064C417.838 155.193 417.68 155.258 417.494 155.258ZM421.862 161.701C421.34 161.701 420.864 161.576 420.434 161.325C420.005 161.075 419.664 160.735 419.414 160.305C419.17 159.875 419.049 159.396 419.049 158.866C419.049 158.336 419.174 157.86 419.425 157.438C419.675 157.008 420.012 156.668 420.434 156.417C420.864 156.16 421.34 156.031 421.862 156.031C422.278 156.031 422.675 156.109 423.055 156.267C423.441 156.425 423.774 156.646 424.053 156.933L423.387 157.674C423.18 157.445 422.947 157.273 422.689 157.158C422.432 157.044 422.163 156.987 421.884 156.987C421.555 156.987 421.254 157.069 420.982 157.234C420.717 157.398 420.506 157.624 420.348 157.91C420.191 158.197 420.112 158.515 420.112 158.866C420.112 159.217 420.191 159.535 420.348 159.822C420.506 160.108 420.721 160.337 420.993 160.509C421.265 160.674 421.569 160.756 421.905 160.756C422.185 160.756 422.446 160.702 422.689 160.595C422.933 160.48 423.162 160.316 423.377 160.101L424.032 160.788C423.745 161.082 423.413 161.307 423.033 161.465C422.661 161.622 422.271 161.701 421.862 161.701ZM424.896 161.604V154.087L425.97 153.851V156.697C426.393 156.253 426.94 156.031 427.613 156.031C428.036 156.031 428.404 156.12 428.719 156.299C429.042 156.478 429.292 156.729 429.471 157.051C429.657 157.373 429.75 157.745 429.75 158.168V161.604H428.676V158.35C428.676 157.921 428.555 157.584 428.311 157.341C428.068 157.09 427.735 156.965 427.313 156.965C427.026 156.965 426.768 157.026 426.539 157.148C426.31 157.269 426.121 157.445 425.97 157.674V161.604H424.896ZM432.719 161.701C432.325 161.701 431.978 161.633 431.677 161.497C431.376 161.354 431.14 161.157 430.968 160.906C430.796 160.656 430.71 160.366 430.71 160.037C430.71 159.521 430.907 159.117 431.301 158.823C431.695 158.522 432.235 158.372 432.923 158.372C433.46 158.372 433.957 158.476 434.415 158.683V158.103C434.415 157.71 434.301 157.416 434.072 157.223C433.85 157.03 433.52 156.933 433.084 156.933C432.833 156.933 432.572 156.972 432.3 157.051C432.028 157.123 431.723 157.237 431.387 157.395L430.99 156.589C431.405 156.396 431.791 156.256 432.149 156.17C432.507 156.077 432.869 156.031 433.234 156.031C433.943 156.031 434.491 156.199 434.877 156.535C435.271 156.872 435.468 157.352 435.468 157.975V161.604H434.415V161.132C434.172 161.325 433.911 161.468 433.631 161.562C433.352 161.655 433.048 161.701 432.719 161.701ZM431.741 160.015C431.741 160.28 431.852 160.495 432.074 160.659C432.303 160.817 432.6 160.896 432.966 160.896C433.252 160.896 433.513 160.856 433.75 160.778C433.993 160.692 434.215 160.559 434.415 160.38V159.457C434.208 159.335 433.989 159.249 433.76 159.199C433.538 159.142 433.288 159.113 433.009 159.113C432.615 159.113 432.303 159.195 432.074 159.36C431.852 159.517 431.741 159.736 431.741 160.015ZM439.326 161.701C438.789 161.701 438.302 161.576 437.865 161.325C437.436 161.075 437.092 160.735 436.834 160.305C436.584 159.875 436.458 159.396 436.458 158.866C436.458 158.343 436.58 157.871 436.823 157.448C437.067 157.019 437.396 156.679 437.812 156.428C438.227 156.17 438.689 156.041 439.197 156.041C439.705 156.041 440.156 156.17 440.55 156.428C440.944 156.679 441.255 157.022 441.484 157.459C441.721 157.889 441.839 158.376 441.839 158.92V159.22H437.532C437.59 159.521 437.701 159.79 437.865 160.026C438.037 160.262 438.252 160.448 438.51 160.584C438.774 160.72 439.061 160.788 439.369 160.788C439.634 160.788 439.888 160.749 440.131 160.67C440.382 160.584 440.589 160.463 440.754 160.305L441.441 160.982C441.119 161.225 440.786 161.408 440.443 161.529C440.106 161.644 439.734 161.701 439.326 161.701ZM437.543 158.415H440.776C440.733 158.129 440.632 157.878 440.475 157.663C440.325 157.441 440.135 157.269 439.906 157.148C439.684 157.019 439.44 156.954 439.175 156.954C438.903 156.954 438.653 157.015 438.424 157.137C438.195 157.259 438.001 157.43 437.844 157.652C437.693 157.867 437.593 158.121 437.543 158.415ZM442.862 161.604V154.087L443.936 153.883V161.604H442.862ZM451.161 161.723C450.616 161.723 450.108 161.626 449.636 161.433C449.163 161.232 448.744 160.957 448.379 160.606C448.021 160.248 447.742 159.836 447.541 159.371C447.348 158.898 447.251 158.39 447.251 157.846C447.251 157.302 447.348 156.797 447.541 156.331C447.742 155.859 448.021 155.447 448.379 155.096C448.744 154.738 449.163 154.463 449.636 154.269C450.108 154.069 450.616 153.969 451.161 153.969C451.705 153.969 452.213 154.069 452.686 154.269C453.165 154.463 453.584 154.738 453.942 155.096C454.3 155.447 454.579 155.859 454.78 156.331C454.98 156.797 455.08 157.302 455.08 157.846C455.08 158.39 454.98 158.898 454.78 159.371C454.579 159.836 454.3 160.248 453.942 160.606C453.584 160.957 453.165 161.232 452.686 161.433C452.213 161.626 451.705 161.723 451.161 161.723ZM451.171 160.681C451.558 160.681 451.916 160.609 452.245 160.466C452.582 160.323 452.875 160.126 453.126 159.875C453.376 159.618 453.573 159.317 453.717 158.973C453.86 158.623 453.931 158.247 453.931 157.846C453.931 157.438 453.86 157.062 453.717 156.718C453.573 156.374 453.376 156.077 453.126 155.827C452.875 155.569 452.582 155.368 452.245 155.225C451.916 155.082 451.558 155.01 451.171 155.01C450.778 155.01 450.412 155.082 450.076 155.225C449.739 155.368 449.446 155.569 449.195 155.827C448.945 156.077 448.748 156.374 448.605 156.718C448.469 157.062 448.401 157.434 448.401 157.835C448.401 158.243 448.469 158.623 448.605 158.973C448.748 159.317 448.945 159.618 449.195 159.875C449.446 160.126 449.739 160.323 450.076 160.466C450.412 160.609 450.778 160.681 451.171 160.681ZM456.139 161.604V154.087L457.213 153.883V161.604H456.139ZM460.207 161.701C459.813 161.701 459.466 161.633 459.165 161.497C458.864 161.354 458.628 161.157 458.456 160.906C458.285 160.656 458.199 160.366 458.199 160.037C458.199 159.521 458.395 159.117 458.789 158.823C459.183 158.522 459.724 158.372 460.411 158.372C460.948 158.372 461.445 158.476 461.904 158.683V158.103C461.904 157.71 461.789 157.416 461.56 157.223C461.338 157.03 461.009 156.933 460.572 156.933C460.321 156.933 460.06 156.972 459.788 157.051C459.516 157.123 459.212 157.237 458.875 157.395L458.478 156.589C458.893 156.396 459.28 156.256 459.638 156.17C459.996 156.077 460.357 156.031 460.722 156.031C461.431 156.031 461.979 156.199 462.365 156.535C462.759 156.872 462.956 157.352 462.956 157.975V161.604H461.904V161.132C461.66 161.325 461.399 161.468 461.12 161.562C460.841 161.655 460.536 161.701 460.207 161.701ZM459.23 160.015C459.23 160.28 459.341 160.495 459.563 160.659C459.792 160.817 460.089 160.896 460.454 160.896C460.74 160.896 461.002 160.856 461.238 160.778C461.481 160.692 461.703 160.559 461.904 160.38V159.457C461.696 159.335 461.478 159.249 461.249 159.199C461.027 159.142 460.776 159.113 460.497 159.113C460.103 159.113 459.792 159.195 459.563 159.36C459.341 159.517 459.23 159.736 459.23 160.015ZM464.194 161.604V156.138H465.268V156.664C465.676 156.242 466.188 156.031 466.803 156.031C467.176 156.031 467.505 156.113 467.791 156.278C468.085 156.442 468.318 156.664 468.489 156.944C468.719 156.643 468.987 156.417 469.295 156.267C469.603 156.109 469.95 156.031 470.337 156.031C470.745 156.031 471.099 156.12 471.4 156.299C471.708 156.478 471.947 156.729 472.119 157.051C472.298 157.373 472.388 157.745 472.388 158.168V161.604H471.314V158.35C471.314 157.921 471.199 157.584 470.97 157.341C470.748 157.09 470.444 156.965 470.057 156.965C469.792 156.965 469.553 157.026 469.338 157.148C469.123 157.269 468.937 157.456 468.779 157.706C468.794 157.778 468.804 157.853 468.812 157.932C468.819 158.01 468.822 158.089 468.822 158.168V161.604H467.759V158.35C467.759 157.921 467.645 157.584 467.415 157.341C467.194 157.09 466.889 156.965 466.503 156.965C466.245 156.965 466.012 157.022 465.805 157.137C465.597 157.244 465.418 157.409 465.268 157.631V161.604H464.194ZM473.622 161.604V156.138H474.696V161.604H473.622ZM474.159 155.258C473.98 155.258 473.826 155.193 473.697 155.064C473.568 154.928 473.504 154.771 473.504 154.592C473.504 154.406 473.568 154.252 473.697 154.13C473.826 154.001 473.98 153.937 474.159 153.937C474.345 153.937 474.503 154.001 474.632 154.13C474.76 154.252 474.825 154.406 474.825 154.592C474.825 154.771 474.76 154.928 474.632 155.064C474.503 155.193 474.345 155.258 474.159 155.258ZM478.474 161.69C477.966 161.69 477.5 161.565 477.078 161.315C476.655 161.064 476.322 160.727 476.079 160.305C475.836 159.875 475.714 159.396 475.714 158.866C475.714 158.336 475.836 157.86 476.079 157.438C476.33 157.015 476.666 156.679 477.088 156.428C477.511 156.178 477.98 156.052 478.495 156.052C478.796 156.052 479.086 156.099 479.365 156.192C479.644 156.285 479.902 156.421 480.138 156.6V154.087L481.212 153.883V161.604H480.149V161.078C479.684 161.486 479.125 161.69 478.474 161.69ZM478.613 160.756C478.928 160.756 479.215 160.699 479.473 160.584C479.738 160.47 479.959 160.305 480.138 160.09V157.631C479.959 157.43 479.738 157.273 479.473 157.158C479.215 157.037 478.928 156.976 478.613 156.976C478.27 156.976 477.958 157.058 477.679 157.223C477.4 157.387 477.178 157.613 477.013 157.899C476.849 158.179 476.766 158.497 476.766 158.855C476.766 159.213 476.849 159.535 477.013 159.822C477.178 160.108 477.4 160.337 477.679 160.509C477.958 160.674 478.27 160.756 478.613 160.756ZM485.105 161.701C484.568 161.701 484.081 161.576 483.644 161.325C483.214 161.075 482.871 160.735 482.613 160.305C482.362 159.875 482.237 159.396 482.237 158.866C482.237 158.343 482.359 157.871 482.602 157.448C482.846 157.019 483.175 156.679 483.59 156.428C484.006 156.17 484.467 156.041 484.976 156.041C485.484 156.041 485.935 156.17 486.329 156.428C486.723 156.679 487.034 157.022 487.263 157.459C487.499 157.889 487.618 158.376 487.618 158.92V159.22H483.311C483.368 159.521 483.479 159.79 483.644 160.026C483.816 160.262 484.031 160.448 484.288 160.584C484.553 160.72 484.84 160.788 485.148 160.788C485.412 160.788 485.667 160.749 485.91 160.67C486.161 160.584 486.368 160.463 486.533 160.305L487.22 160.982C486.898 161.225 486.565 161.408 486.221 161.529C485.885 161.644 485.513 161.701 485.105 161.701ZM483.322 158.415H486.554C486.511 158.129 486.411 157.878 486.254 157.663C486.103 157.441 485.914 157.269 485.685 157.148C485.463 157.019 485.219 156.954 484.954 156.954C484.682 156.954 484.432 157.015 484.202 157.137C483.973 157.259 483.78 157.43 483.623 157.652C483.472 157.867 483.372 158.121 483.322 158.415Z" fill="#3F424A"/>
<g clip-path="url(#clip1_1290_3606)">
<path d="M664.222 162.265C666.797 162.265 668.883 160.178 668.883 157.604C668.883 155.029 666.797 152.942 664.222 152.942C661.648 152.942 659.561 155.029 659.561 157.604C659.561 160.178 661.648 162.265 664.222 162.265Z" stroke="#3F424A" stroke-width="1.19327" stroke-miterlimit="10"/>
<path d="M660.926 154.308L667.518 160.899L660.926 154.308Z" fill="#3F424A"/>
<path d="M660.926 154.308L667.518 160.899" stroke="#3F424A" stroke-width="1.19327" stroke-miterlimit="10"/>
</g>
<rect x="333.687" y="293.636" width="134.243" height="32.2182" rx="5.3697" fill="#E91B41"/>
<rect x="333.687" y="293.636" width="134.243" height="32.2182" rx="5.3697" stroke="#4E0916" stroke-width="1.19327"/>
<path d="M364.98 313.853C364.422 313.853 363.899 313.756 363.412 313.563C362.926 313.362 362.5 313.086 362.134 312.736C361.777 312.385 361.494 311.977 361.286 311.511C361.086 311.039 360.985 310.53 360.985 309.986C360.985 309.435 361.086 308.927 361.286 308.461C361.494 307.989 361.78 307.577 362.145 307.226C362.51 306.875 362.933 306.603 363.412 306.41C363.899 306.21 364.422 306.109 364.98 306.109C365.396 306.109 365.797 306.167 366.183 306.281C366.57 306.396 366.928 306.557 367.257 306.765C367.594 306.972 367.88 307.223 368.116 307.516L367.064 308.558C366.792 308.221 366.477 307.967 366.119 307.795C365.768 307.624 365.389 307.538 364.98 307.538C364.644 307.538 364.329 307.602 364.035 307.731C363.742 307.853 363.488 308.025 363.273 308.247C363.058 308.461 362.89 308.719 362.768 309.02C362.646 309.313 362.586 309.636 362.586 309.986C362.586 310.33 362.646 310.652 362.768 310.953C362.89 311.246 363.062 311.504 363.284 311.726C363.506 311.941 363.763 312.109 364.057 312.231C364.358 312.353 364.683 312.413 365.034 312.413C365.428 312.413 365.797 312.331 366.14 312.166C366.484 312.002 366.788 311.765 367.053 311.458L368.073 312.467C367.837 312.754 367.554 313.001 367.225 313.208C366.896 313.416 366.538 313.577 366.151 313.691C365.772 313.799 365.381 313.853 364.98 313.853ZM371.458 313.853C370.899 313.853 370.394 313.724 369.943 313.466C369.492 313.208 369.134 312.861 368.869 312.424C368.605 311.987 368.472 311.497 368.472 310.953C368.472 310.409 368.601 309.918 368.859 309.482C369.124 309.038 369.482 308.687 369.933 308.429C370.391 308.171 370.899 308.042 371.458 308.042C372.016 308.042 372.521 308.171 372.972 308.429C373.43 308.687 373.788 309.038 374.046 309.482C374.311 309.918 374.443 310.409 374.443 310.953C374.443 311.497 374.311 311.987 374.046 312.424C373.788 312.861 373.434 313.208 372.983 313.466C372.532 313.724 372.023 313.853 371.458 313.853ZM371.458 312.575C371.751 312.575 372.012 312.503 372.242 312.36C372.478 312.217 372.664 312.023 372.8 311.78C372.943 311.529 373.015 311.254 373.015 310.953C373.015 310.645 372.943 310.369 372.8 310.126C372.664 309.883 372.478 309.689 372.242 309.546C372.012 309.396 371.751 309.32 371.458 309.32C371.171 309.32 370.91 309.396 370.674 309.546C370.437 309.689 370.251 309.883 370.115 310.126C369.979 310.369 369.911 310.645 369.911 310.953C369.911 311.254 369.979 311.529 370.115 311.78C370.251 312.023 370.437 312.217 370.674 312.36C370.91 312.503 371.171 312.575 371.458 312.575ZM375.348 313.745V308.15H376.819V308.612C377.241 308.232 377.764 308.042 378.387 308.042C378.824 308.042 379.207 308.139 379.536 308.332C379.872 308.519 380.134 308.78 380.32 309.116C380.506 309.446 380.599 309.832 380.599 310.276V313.745H379.128V310.491C379.128 310.126 379.024 309.84 378.816 309.632C378.609 309.417 378.326 309.31 377.968 309.31C377.717 309.31 377.495 309.36 377.302 309.46C377.109 309.553 376.948 309.689 376.819 309.868V313.745H375.348ZM382.415 313.745V309.374H381.17V308.15H382.415V307.613C382.415 306.983 382.598 306.503 382.963 306.174C383.328 305.837 383.855 305.669 384.542 305.669C384.692 305.669 384.846 305.676 385.004 305.691C385.161 305.705 385.297 305.73 385.412 305.766V307.001C385.276 306.972 385.158 306.951 385.057 306.936C384.957 306.922 384.846 306.915 384.724 306.915C384.445 306.915 384.234 306.976 384.091 307.097C383.955 307.212 383.887 307.395 383.887 307.645V308.15H385.412V309.374H383.887V313.745H382.415ZM386.181 313.745V308.15H387.653V313.745H386.181ZM386.912 307.484C386.683 307.484 386.486 307.402 386.321 307.237C386.156 307.072 386.074 306.875 386.074 306.646C386.074 306.41 386.156 306.213 386.321 306.056C386.486 305.891 386.683 305.809 386.912 305.809C387.148 305.809 387.345 305.891 387.502 306.056C387.667 306.213 387.749 306.41 387.749 306.646C387.749 306.875 387.667 307.072 387.502 307.237C387.345 307.402 387.148 307.484 386.912 307.484ZM388.803 313.745V308.15H390.275V308.773C390.454 308.529 390.668 308.343 390.919 308.214C391.17 308.085 391.452 308.021 391.767 308.021C392.039 308.028 392.243 308.071 392.38 308.15V309.439C392.272 309.388 392.154 309.353 392.025 309.331C391.896 309.303 391.764 309.288 391.628 309.288C391.341 309.288 391.08 309.36 390.844 309.503C390.608 309.646 390.418 309.85 390.275 310.115V313.745H388.803ZM393.187 313.745V308.15H394.658V308.579C395.059 308.221 395.546 308.042 396.119 308.042C396.484 308.042 396.81 308.118 397.096 308.268C397.383 308.411 397.619 308.615 397.805 308.88C398.034 308.608 398.303 308.4 398.611 308.257C398.926 308.114 399.273 308.042 399.652 308.042C400.075 308.042 400.443 308.139 400.758 308.332C401.081 308.519 401.331 308.78 401.51 309.116C401.696 309.446 401.789 309.832 401.789 310.276V313.745H400.329V310.491C400.329 310.126 400.232 309.84 400.039 309.632C399.846 309.417 399.588 309.31 399.266 309.31C399.044 309.31 398.84 309.356 398.653 309.449C398.475 309.542 398.321 309.682 398.192 309.868C398.199 309.933 398.206 309.997 398.213 310.062C398.22 310.126 398.224 310.198 398.224 310.276V313.745H396.753V310.491C396.753 310.126 396.656 309.84 396.463 309.632C396.277 309.417 396.022 309.31 395.7 309.31C395.478 309.31 395.278 309.353 395.099 309.439C394.927 309.525 394.78 309.653 394.658 309.825V313.745H393.187ZM405.166 313.745V306.228H408.936C409.43 306.228 409.863 306.328 410.235 306.528C410.615 306.729 410.912 307.008 411.127 307.366C411.342 307.717 411.449 308.125 411.449 308.59C411.449 309.034 411.342 309.431 411.127 309.782C410.912 310.133 410.615 310.409 410.235 310.609C409.856 310.81 409.423 310.91 408.936 310.91H406.724V313.745H405.166ZM406.724 309.621H408.764C409.101 309.621 409.369 309.528 409.57 309.342C409.777 309.156 409.881 308.909 409.881 308.601C409.881 308.286 409.777 308.035 409.57 307.849C409.369 307.663 409.101 307.57 408.764 307.57H406.724V309.621ZM413.953 313.842C413.552 313.842 413.197 313.77 412.889 313.627C412.582 313.477 412.342 313.273 412.17 313.015C411.998 312.757 411.912 312.46 411.912 312.123C411.912 311.586 412.113 311.171 412.514 310.878C412.922 310.577 413.48 310.427 414.189 310.427C414.676 310.427 415.134 310.502 415.564 310.652V310.244C415.564 309.922 415.463 309.678 415.263 309.514C415.062 309.349 414.769 309.267 414.382 309.267C414.146 309.267 413.892 309.306 413.62 309.385C413.348 309.457 413.033 309.571 412.675 309.729L412.138 308.644C412.582 308.443 413.004 308.293 413.405 308.193C413.813 308.093 414.221 308.042 414.629 308.042C415.381 308.042 415.964 308.225 416.38 308.59C416.802 308.948 417.013 309.457 417.013 310.115V313.745H415.564V313.348C415.334 313.52 415.087 313.645 414.823 313.724C414.558 313.802 414.268 313.842 413.953 313.842ZM413.308 312.091C413.308 312.306 413.401 312.478 413.587 312.607C413.774 312.728 414.021 312.789 414.328 312.789C414.572 312.789 414.797 312.761 415.005 312.703C415.213 312.639 415.399 312.546 415.564 312.424V311.608C415.385 311.536 415.198 311.483 415.005 311.447C414.812 311.411 414.604 311.393 414.382 311.393C414.046 311.393 413.781 311.458 413.587 311.586C413.401 311.708 413.308 311.876 413.308 312.091ZM418.57 316.054C418.441 316.054 418.316 316.047 418.194 316.033C418.079 316.025 417.983 316.015 417.904 316V314.733C418.047 314.762 418.219 314.776 418.419 314.776C418.956 314.776 419.329 314.522 419.536 314.014L419.622 313.799L417.442 308.15H419.064L420.46 311.962L422.039 308.15H423.628L421.051 314.196C420.857 314.647 420.646 315.009 420.417 315.281C420.188 315.553 419.923 315.75 419.622 315.872C419.329 315.993 418.978 316.054 418.57 316.054ZM426.791 313.853C426.232 313.853 425.728 313.724 425.276 313.466C424.825 313.208 424.467 312.861 424.203 312.424C423.938 311.987 423.805 311.497 423.805 310.953C423.805 310.409 423.934 309.918 424.192 309.482C424.457 309.038 424.815 308.687 425.266 308.429C425.724 308.171 426.232 308.042 426.791 308.042C427.349 308.042 427.854 308.171 428.305 308.429C428.763 308.687 429.121 309.038 429.379 309.482C429.644 309.918 429.776 310.409 429.776 310.953C429.776 311.497 429.644 311.987 429.379 312.424C429.121 312.861 428.767 313.208 428.316 313.466C427.865 313.724 427.356 313.853 426.791 313.853ZM426.791 312.575C427.084 312.575 427.346 312.503 427.575 312.36C427.811 312.217 427.997 312.023 428.133 311.78C428.276 311.529 428.348 311.254 428.348 310.953C428.348 310.645 428.276 310.369 428.133 310.126C427.997 309.883 427.811 309.689 427.575 309.546C427.346 309.396 427.084 309.32 426.791 309.32C426.504 309.32 426.243 309.396 426.007 309.546C425.77 309.689 425.584 309.883 425.448 310.126C425.312 310.369 425.244 310.645 425.244 310.953C425.244 311.254 425.312 311.529 425.448 311.78C425.584 312.023 425.77 312.217 426.007 312.36C426.243 312.503 426.504 312.575 426.791 312.575ZM432.85 313.853C432.42 313.853 432.037 313.759 431.701 313.573C431.372 313.38 431.11 313.115 430.917 312.779C430.731 312.442 430.638 312.055 430.638 311.619V308.15H432.109V311.404C432.109 311.762 432.213 312.048 432.42 312.263C432.635 312.478 432.922 312.585 433.28 312.585C433.523 312.585 433.741 312.539 433.935 312.446C434.135 312.345 434.3 312.206 434.429 312.027V308.15H435.9V313.745H434.429V313.294C433.999 313.666 433.473 313.853 432.85 313.853ZM439.699 313.831C439.076 313.831 438.604 313.691 438.282 313.412C437.967 313.126 437.809 312.711 437.809 312.166V309.374H436.66V308.15H437.809V306.722L439.281 306.389V308.15H440.881V309.374H439.281V311.866C439.281 312.123 439.338 312.31 439.452 312.424C439.567 312.532 439.767 312.585 440.054 312.585C440.197 312.585 440.326 312.578 440.44 312.564C440.562 312.542 440.695 312.507 440.838 312.456V313.67C440.687 313.72 440.498 313.759 440.269 313.788C440.047 313.817 439.857 313.831 439.699 313.831Z" fill="white"/>
</g>
<rect x="101.597" y="52.5966" width="594.844" height="294.14" rx="17.3024" stroke="#DDE0E3" stroke-width="1.19327"/>
<defs>
<clipPath id="clip0_1290_3606">
<rect x="101" y="52" width="596.037" height="295.334" rx="17.899" fill="white"/>
</clipPath>
<clipPath id="clip1_1290_3606">
<rect width="11.9327" height="11.9327" fill="white" transform="translate(658.256 151.638)"/>
</clipPath>
</defs>
</svg>
