<svg width="597" height="296" viewBox="0 0 597 296" fill="none" xmlns="http://www.w3.org/2000/svg">
<g clip-path="url(#clip0_2070_9559)">
<rect width="596.037" height="295.334" rx="17.899" fill="white"/>
<line x1="-2.60797e-08" y1="49.8189" x2="596.037" y2="49.8188" stroke="#DDE0E3" stroke-width="0.596634"/>
<path d="M52.363 32.5117V20.8177H58.0764C58.8671 20.8177 59.5632 20.9736 60.1646 21.2855C60.7771 21.5862 61.2505 22.0094 61.5846 22.5551C61.9298 23.1008 62.1025 23.7301 62.1025 24.4428C62.1025 25.189 61.8964 25.8461 61.4843 26.4141C61.0723 26.9821 60.521 27.4053 59.8305 27.6838L62.4199 32.5117H59.7135L57.4248 28.0346H54.7853V32.5117H52.363ZM54.7853 26.0466H57.8592C58.4049 26.0466 58.8393 25.9018 59.1622 25.6122C59.4964 25.3227 59.6634 24.944 59.6634 24.4763C59.6634 24.0085 59.4964 23.6298 59.1622 23.3403C58.8393 23.0507 58.4049 22.9059 57.8592 22.9059H54.7853V26.0466ZM67.3053 32.6788C66.4366 32.6788 65.6458 32.4783 64.933 32.0774C64.2314 31.6764 63.6745 31.1363 63.2625 30.4569C62.8504 29.7775 62.6444 29.0146 62.6444 28.1682C62.6444 27.3218 62.8393 26.5589 63.2291 25.8795C63.63 25.2002 64.1701 24.66 64.8495 24.2591C65.5289 23.8581 66.2862 23.6577 67.1215 23.6577C67.9568 23.6577 68.6974 23.8637 69.3434 24.2758C69.9893 24.6879 70.4961 25.2447 70.8636 25.9464C71.2422 26.648 71.4316 27.4443 71.4316 28.3353V28.9367H64.9832C65.0834 29.2819 65.2449 29.5938 65.4676 29.8722C65.7015 30.1506 65.9855 30.3678 66.3196 30.5237C66.6649 30.6797 67.0324 30.7576 67.4222 30.7576C67.812 30.7576 68.1684 30.6964 68.4914 30.5739C68.8255 30.4513 69.1095 30.2787 69.3434 30.056L70.8469 31.4258C70.3123 31.8602 69.761 32.1776 69.193 32.3781C68.6361 32.5785 68.0069 32.6788 67.3053 32.6788ZM64.9497 27.2995H69.1763C69.0983 26.9543 68.9536 26.6536 68.7419 26.3974C68.5415 26.1301 68.2965 25.9241 68.0069 25.7793C67.7285 25.6234 67.4166 25.5454 67.0714 25.5454C66.715 25.5454 66.392 25.6178 66.1024 25.7626C65.8129 25.9074 65.5679 26.1134 65.3674 26.3807C65.1781 26.6369 65.0388 26.9431 64.9497 27.2995ZM79.3642 35.9197V31.8268C78.6625 32.3614 77.8495 32.6287 76.9252 32.6287C76.101 32.6287 75.3548 32.4282 74.6866 32.0273C74.0184 31.6263 73.4838 31.0917 73.0828 30.4235C72.693 29.7441 72.4981 28.9868 72.4981 28.1515C72.4981 27.3162 72.693 26.5645 73.0828 25.8962C73.4838 25.2169 74.0239 24.6823 74.7033 24.2925C75.3827 23.8916 76.1455 23.6911 76.992 23.6911C77.4375 23.6911 77.8607 23.7523 78.2616 23.8748C78.6737 23.9974 79.0523 24.17 79.3976 24.3927V23.808H81.6529V35.9197H79.3642ZM77.2927 30.6741C77.7159 30.6741 78.1001 30.6073 78.4454 30.4736C78.8018 30.3288 79.108 30.1172 79.3642 29.8388V26.4475C79.108 26.1914 78.8018 25.9909 78.4454 25.8461C78.089 25.7013 77.7048 25.629 77.2927 25.629C76.8138 25.629 76.3794 25.7403 75.9896 25.9631C75.611 26.1747 75.3103 26.4754 75.0875 26.8652C74.8648 27.2438 74.7534 27.6726 74.7534 28.1515C74.7534 28.6304 74.8648 29.0592 75.0875 29.4379C75.3103 29.8165 75.611 30.1172 75.9896 30.34C76.3794 30.5627 76.8138 30.6741 77.2927 30.6741ZM86.8126 32.6788C86.1444 32.6788 85.5485 32.534 85.0251 32.2444C84.5128 31.9437 84.1063 31.5316 83.8056 31.0082C83.516 30.4848 83.3712 29.8833 83.3712 29.204V23.808H85.6599V28.8699C85.6599 29.4267 85.8214 29.8722 86.1444 30.2063C86.4785 30.5404 86.924 30.7075 87.4808 30.7075C87.8595 30.7075 88.1992 30.6351 88.4999 30.4903C88.8117 30.3344 89.0679 30.1172 89.2683 29.8388V23.808H91.557V32.5117H89.2683V31.8101C88.6001 32.3892 87.7815 32.6788 86.8126 32.6788ZM97.6007 32.6788C96.732 32.6788 95.9413 32.4783 95.2285 32.0774C94.5269 31.6764 93.97 31.1363 93.5579 30.4569C93.1459 29.7775 92.9398 29.0146 92.9398 28.1682C92.9398 27.3218 93.1347 26.5589 93.5245 25.8795C93.9255 25.2002 94.4656 24.66 95.145 24.2591C95.8243 23.8581 96.5817 23.6577 97.417 23.6577C98.2523 23.6577 98.9929 23.8637 99.6388 24.2758C100.285 24.6879 100.792 25.2447 101.159 25.9464C101.538 26.648 101.727 27.4443 101.727 28.3353V28.9367H95.2786C95.3789 29.2819 95.5404 29.5938 95.7631 29.8722C95.997 30.1506 96.281 30.3678 96.6151 30.5237C96.9603 30.6797 97.3279 30.7576 97.7177 30.7576C98.1075 30.7576 98.4639 30.6964 98.7868 30.5739C99.1209 30.4513 99.4049 30.2787 99.6388 30.056L101.142 31.4258C100.608 31.8602 100.056 32.1776 99.4885 32.3781C98.9316 32.5785 98.3024 32.6788 97.6007 32.6788ZM95.2452 27.2995H99.4718C99.3938 26.9543 99.249 26.6536 99.0374 26.3974C98.837 26.1301 98.5919 25.9241 98.3024 25.7793C98.0239 25.6234 97.7121 25.5454 97.3668 25.5454C97.0105 25.5454 96.6875 25.6178 96.3979 25.7626C96.1083 25.9074 95.8633 26.1134 95.6629 26.3807C95.4735 26.6369 95.3343 26.9431 95.2452 27.2995ZM106.468 32.6788C105.667 32.6788 104.926 32.5785 104.247 32.3781C103.567 32.1665 102.977 31.8658 102.476 31.476L103.612 29.9557C104.113 30.2899 104.592 30.5404 105.048 30.7075C105.516 30.8746 105.978 30.9581 106.435 30.9581C106.947 30.9581 107.354 30.8746 107.655 30.7075C107.966 30.5293 108.122 30.301 108.122 30.0226C108.122 29.7998 108.033 29.6216 107.855 29.488C107.688 29.3543 107.415 29.2597 107.036 29.204L105.366 28.9534C104.497 28.8197 103.84 28.5413 103.395 28.1181C102.949 27.6838 102.726 27.1158 102.726 26.4141C102.726 25.8461 102.871 25.3617 103.161 24.9607C103.461 24.5486 103.879 24.2312 104.414 24.0085C104.959 23.7746 105.605 23.6577 106.352 23.6577C106.986 23.6577 107.604 23.7468 108.206 23.925C108.818 24.1032 109.392 24.376 109.927 24.7435L108.824 26.2304C108.345 25.9297 107.888 25.7125 107.454 25.5788C107.02 25.4452 106.58 25.3784 106.134 25.3784C105.722 25.3784 105.388 25.4563 105.132 25.6122C104.887 25.7682 104.764 25.9742 104.764 26.2304C104.764 26.4642 104.854 26.648 105.032 26.7816C105.21 26.9153 105.516 27.01 105.951 27.0656L107.604 27.3162C108.473 27.4387 109.136 27.7172 109.592 28.1515C110.049 28.5747 110.277 29.126 110.277 29.8054C110.277 30.3622 110.11 30.8579 109.776 31.2922C109.442 31.7154 108.991 32.0551 108.423 32.3112C107.855 32.5563 107.204 32.6788 106.468 32.6788ZM115.38 32.6454C114.411 32.6454 113.676 32.4282 113.175 31.9938C112.685 31.5484 112.44 30.9024 112.44 30.056V25.7125H110.652V23.808H112.44V21.5862L114.729 21.0683V23.808H117.218V25.7125H114.729V29.5882C114.729 29.9892 114.818 30.2787 114.996 30.4569C115.174 30.624 115.486 30.7075 115.931 30.7075C116.154 30.7075 116.355 30.6964 116.533 30.6741C116.722 30.6407 116.928 30.585 117.151 30.507V32.3948C116.917 32.4727 116.622 32.534 116.265 32.5785C115.92 32.6231 115.625 32.6454 115.38 32.6454ZM121.845 32.5117V20.8177H127.709C128.477 20.8177 129.151 20.9736 129.73 21.2855C130.321 21.5973 130.783 22.0316 131.117 22.5885C131.451 23.1342 131.618 23.769 131.618 24.493C131.618 25.1835 131.451 25.8016 131.117 26.3473C130.783 26.893 130.321 27.3218 129.73 27.6336C129.14 27.9455 128.466 28.1014 127.709 28.1014H124.268V32.5117H121.845ZM124.268 26.0967H127.442C127.965 26.0967 128.383 25.9519 128.695 25.6624C129.018 25.3728 129.179 24.9886 129.179 24.5097C129.179 24.0196 129.018 23.6298 128.695 23.3403C128.383 23.0507 127.965 22.9059 127.442 22.9059H124.268V26.0967ZM135.513 32.6621C134.889 32.6621 134.338 32.5507 133.859 32.328C133.38 32.0941 133.007 31.7767 132.74 31.3757C132.472 30.9748 132.339 30.5126 132.339 29.9892C132.339 29.1539 132.65 28.5079 133.274 28.0513C133.909 27.5835 134.778 27.3496 135.88 27.3496C136.638 27.3496 137.35 27.4666 138.019 27.7005V27.0656C138.019 26.5645 137.863 26.1858 137.551 25.9297C137.239 25.6735 136.782 25.5454 136.181 25.5454C135.813 25.5454 135.418 25.6067 134.995 25.7292C134.572 25.8406 134.082 26.0188 133.525 26.2638L132.689 24.5765C133.38 24.2646 134.037 24.0308 134.661 23.8748C135.296 23.7189 135.93 23.641 136.565 23.641C137.735 23.641 138.642 23.925 139.288 24.493C139.945 25.0498 140.274 25.8406 140.274 26.8652V32.5117H138.019V31.8936C137.662 32.1609 137.278 32.3558 136.866 32.4783C136.454 32.6008 136.003 32.6621 135.513 32.6621ZM134.51 29.939C134.51 30.2731 134.655 30.5404 134.945 30.7409C135.234 30.9302 135.619 31.0249 136.097 31.0249C136.476 31.0249 136.827 30.9804 137.15 30.8913C137.473 30.791 137.762 30.6462 138.019 30.4569V29.1873C137.74 29.0759 137.451 28.9924 137.15 28.9367C136.849 28.881 136.526 28.8532 136.181 28.8532C135.658 28.8532 135.245 28.9534 134.945 29.1539C134.655 29.3432 134.51 29.6049 134.51 29.939ZM142.695 36.1035C142.494 36.1035 142.3 36.0923 142.11 36.07C141.932 36.0589 141.782 36.0422 141.659 36.0199V34.0486C141.882 34.0932 142.149 34.1155 142.461 34.1155C143.296 34.1155 143.875 33.7201 144.198 32.9294L144.332 32.5952L140.941 23.808H143.463L145.635 29.7386L148.091 23.808H150.563L146.554 33.2134C146.253 33.915 145.925 34.4774 145.568 34.9006C145.212 35.3239 144.8 35.6301 144.332 35.8195C143.875 36.0088 143.33 36.1035 142.695 36.1035ZM155.483 32.6788C154.614 32.6788 153.829 32.4783 153.128 32.0774C152.426 31.6764 151.869 31.1363 151.457 30.4569C151.045 29.7775 150.839 29.0146 150.839 28.1682C150.839 27.3218 151.039 26.5589 151.44 25.8795C151.852 25.189 152.409 24.6433 153.111 24.2424C153.824 23.8414 154.614 23.641 155.483 23.641C156.352 23.641 157.137 23.8414 157.839 24.2424C158.551 24.6433 159.108 25.189 159.509 25.8795C159.921 26.5589 160.127 27.3218 160.127 28.1682C160.127 29.0146 159.921 29.7775 159.509 30.4569C159.108 31.1363 158.557 31.6764 157.855 32.0774C157.154 32.4783 156.363 32.6788 155.483 32.6788ZM155.483 30.6908C155.94 30.6908 156.346 30.5794 156.703 30.3567C157.07 30.1339 157.36 29.8332 157.571 29.4546C157.794 29.0648 157.905 28.636 157.905 28.1682C157.905 27.6893 157.794 27.2605 157.571 26.8819C157.36 26.5032 157.07 26.2025 156.703 25.9798C156.346 25.7459 155.94 25.629 155.483 25.629C155.038 25.629 154.631 25.7459 154.264 25.9798C153.896 26.2025 153.607 26.5032 153.395 26.8819C153.183 27.2605 153.078 27.6893 153.078 28.1682C153.078 28.636 153.183 29.0648 153.395 29.4546C153.607 29.8332 153.896 30.1339 154.264 30.3567C154.631 30.5794 155.038 30.6908 155.483 30.6908ZM164.909 32.6788C164.24 32.6788 163.645 32.534 163.121 32.2444C162.609 31.9437 162.202 31.5316 161.902 31.0082C161.612 30.4848 161.467 29.8833 161.467 29.204V23.808H163.756V28.8699C163.756 29.4267 163.917 29.8722 164.24 30.2063C164.575 30.5404 165.02 30.7075 165.577 30.7075C165.956 30.7075 166.295 30.6351 166.596 30.4903C166.908 30.3344 167.164 30.1172 167.364 29.8388V23.808H169.653V32.5117H167.364V31.8101C166.696 32.3892 165.878 32.6788 164.909 32.6788ZM175.563 32.6454C174.594 32.6454 173.859 32.4282 173.358 31.9938C172.868 31.5484 172.623 30.9024 172.623 30.056V25.7125H170.835V23.808H172.623V21.5862L174.912 21.0683V23.808H177.401V25.7125H174.912V29.5882C174.912 29.9892 175.001 30.2787 175.179 30.4569C175.357 30.624 175.669 30.7075 176.114 30.7075C176.337 30.7075 176.538 30.6964 176.716 30.6741C176.905 30.6407 177.111 30.585 177.334 30.507V32.3948C177.1 32.4727 176.805 32.534 176.449 32.5785C176.103 32.6231 175.808 32.6454 175.563 32.6454Z" fill="#080D18"/>
<rect x="13.126" y="14.3184" width="23.8653" height="23.8653" rx="11.9327" fill="#F7F6F7"/>
<path d="M24.7231 30.2782L20.6958 26.2509L24.7231 22.2236M21.2551 26.2509H29.4216" stroke="#080D18" stroke-width="1.19327" stroke-linecap="round" stroke-linejoin="round"/>
<path d="M22.3092 77.7897C21.5074 77.7897 20.7341 77.6322 19.9895 77.3171C19.2449 77.0021 18.5862 76.5582 18.0135 75.9855L18.9299 74.9258C19.474 75.4604 20.0277 75.8566 20.5909 76.1143C21.1637 76.3721 21.7603 76.5009 22.3808 76.5009C22.8677 76.5009 23.2925 76.4341 23.6552 76.3005C24.0275 76.1573 24.3139 75.9568 24.5144 75.6991C24.7149 75.4413 24.8151 75.1502 24.8151 74.8256C24.8151 74.3769 24.6576 74.0333 24.3426 73.7946C24.0275 73.556 23.5073 73.3746 22.7818 73.2505L21.1064 72.9784C20.19 72.8161 19.5027 72.5202 19.0445 72.0906C18.5958 71.6611 18.3715 71.0883 18.3715 70.3723C18.3715 69.7996 18.5242 69.2984 18.8297 68.8688C19.1352 68.4297 19.5647 68.0908 20.1184 67.8521C20.6816 67.6135 21.3308 67.4942 22.0658 67.4942C22.7913 67.4942 23.5025 67.6135 24.1994 67.8521C24.9058 68.0813 25.5406 68.4154 26.1038 68.8545L25.2733 70C24.1946 69.1791 23.1016 68.7686 21.9942 68.7686C21.5551 68.7686 21.1733 68.8306 20.8487 68.9547C20.5241 69.0788 20.2711 69.2554 20.0898 69.4845C19.9084 69.7041 19.8177 69.9618 19.8177 70.2578C19.8177 70.6683 19.9561 70.9833 20.233 71.2028C20.5098 71.4129 20.968 71.5656 21.6076 71.6611L23.2257 71.9331C24.2853 72.105 25.0633 72.4152 25.5597 72.8639C26.0561 73.3125 26.3043 73.9283 26.3043 74.711C26.3043 75.322 26.1372 75.8614 25.8031 76.3291C25.469 76.7873 25.0013 77.1453 24.3998 77.4031C23.7984 77.6608 23.1016 77.7897 22.3092 77.7897ZM31.1592 77.7754C30.4432 77.7754 29.7941 77.6083 29.2118 77.2742C28.639 76.9401 28.1808 76.4866 27.8371 75.9139C27.503 75.3411 27.336 74.7015 27.336 73.9951C27.336 73.2982 27.4982 72.6682 27.8228 72.105C28.1474 71.5322 28.5865 71.0787 29.1402 70.7446C29.6939 70.401 30.3096 70.2291 30.9874 70.2291C31.6651 70.2291 32.2665 70.401 32.7916 70.7446C33.3166 71.0787 33.7319 71.537 34.0373 72.1193C34.3524 72.692 34.5099 73.3412 34.5099 74.0667V74.4676H28.7679C28.8442 74.8686 28.9922 75.2265 29.2118 75.5416C29.4409 75.8566 29.7273 76.1048 30.0709 76.2862C30.4241 76.4675 30.806 76.5582 31.2165 76.5582C31.5697 76.5582 31.9086 76.5057 32.2331 76.4007C32.5672 76.2862 32.8441 76.1239 33.0636 75.9139L33.9801 76.816C33.5505 77.1405 33.1066 77.384 32.6484 77.5462C32.1997 77.699 31.7033 77.7754 31.1592 77.7754ZM28.7822 73.3937H33.0923C33.035 73.0118 32.9014 72.6777 32.6913 72.3913C32.4909 72.0954 32.2379 71.8663 31.9324 71.704C31.6365 71.5322 31.3119 71.4463 30.9587 71.4463C30.596 71.4463 30.2618 71.5274 29.9564 71.6897C29.6509 71.852 29.3931 72.0811 29.1831 72.377C28.9827 72.6634 28.849 73.0023 28.7822 73.3937ZM35.8737 77.6465V67.623L37.3056 67.351V77.6465H35.8737ZM42.4859 77.7754C41.7699 77.7754 41.1208 77.6083 40.5385 77.2742C39.9657 76.9401 39.5075 76.4866 39.1638 75.9139C38.8297 75.3411 38.6627 74.7015 38.6627 73.9951C38.6627 73.2982 38.825 72.6682 39.1495 72.105C39.4741 71.5322 39.9132 71.0787 40.4669 70.7446C41.0206 70.401 41.6363 70.2291 42.3141 70.2291C42.9918 70.2291 43.5933 70.401 44.1183 70.7446C44.6433 71.0787 45.0586 71.537 45.3641 72.1193C45.6791 72.692 45.8366 73.3412 45.8366 74.0667V74.4676H40.0946C40.171 74.8686 40.3189 75.2265 40.5385 75.5416C40.7676 75.8566 41.054 76.1048 41.3976 76.2862C41.7508 76.4675 42.1327 76.5582 42.5432 76.5582C42.8964 76.5582 43.2353 76.5057 43.5598 76.4007C43.894 76.2862 44.1708 76.1239 44.3904 75.9139L45.3068 76.816C44.8772 77.1405 44.4333 77.384 43.9751 77.5462C43.5264 77.699 43.03 77.7754 42.4859 77.7754ZM40.1089 73.3937H44.419C44.3617 73.0118 44.2281 72.6777 44.0181 72.3913C43.8176 72.0954 43.5646 71.8663 43.2591 71.704C42.9632 71.5322 42.6386 71.4463 42.2854 71.4463C41.9227 71.4463 41.5886 71.5274 41.2831 71.6897C40.9776 71.852 40.7199 72.0811 40.5098 72.377C40.3094 72.6634 40.1757 73.0023 40.1089 73.3937ZM50.6506 77.7754C49.9538 77.7754 49.319 77.6083 48.7462 77.2742C48.1734 76.9401 47.72 76.4866 47.3859 75.9139C47.0613 75.3411 46.899 74.7015 46.899 73.9951C46.899 73.2887 47.0661 72.6539 47.4002 72.0906C47.7343 71.5179 48.183 71.0644 48.7462 70.7303C49.319 70.3866 49.9538 70.2148 50.6506 70.2148C51.2043 70.2148 51.7341 70.3198 52.2401 70.5298C52.7556 70.7399 53.1995 71.0358 53.5718 71.4176L52.684 72.4057C52.4071 72.1002 52.0969 71.8711 51.7532 71.7183C51.4096 71.5656 51.0516 71.4892 50.6793 71.4892C50.2402 71.4892 49.8392 71.599 49.4765 71.8186C49.1233 72.0381 48.8417 72.3388 48.6316 72.7207C48.4216 73.1025 48.3166 73.5273 48.3166 73.9951C48.3166 74.4628 48.4216 74.8877 48.6316 75.2695C48.8417 75.6513 49.128 75.9568 49.4908 76.1859C49.8535 76.4055 50.2593 76.5153 50.7079 76.5153C51.0802 76.5153 51.4287 76.4437 51.7532 76.3005C52.0778 76.1477 52.3833 75.9282 52.6697 75.6418L53.5431 76.5582C53.1613 76.9496 52.7174 77.2503 52.2114 77.4603C51.715 77.6703 51.1948 77.7754 50.6506 77.7754ZM57.957 77.7754C57.2506 77.7754 56.7113 77.6131 56.339 77.2885C55.9667 76.9544 55.7805 76.4723 55.7805 75.8423V71.5608H54.234V70.358H55.7805V68.4965L57.1981 68.1528V70.358H59.346V71.5608H57.1981V75.5129C57.1981 75.8852 57.2792 76.1525 57.4415 76.3148C57.6134 76.4675 57.8902 76.5439 58.272 76.5439C58.4725 76.5439 58.6491 76.5296 58.8019 76.5009C58.9641 76.4723 59.136 76.4294 59.3173 76.3721V77.5749C59.1264 77.6417 58.9021 77.6894 58.6443 77.7181C58.3961 77.7563 58.167 77.7754 57.957 77.7754ZM63.5652 77.6465V67.623H70.9539V68.9404H65.0687V71.9474H68.9349V73.2218H65.0687V76.3291H71.0112V77.6465H63.5652ZM74.5934 77.6465L71.4431 70.358H73.0183L75.295 75.8136L77.5718 70.358H79.0896L75.968 77.6465H74.5934ZM83.2621 77.7754C82.5461 77.7754 81.897 77.6083 81.3147 77.2742C80.7419 76.9401 80.2837 76.4866 79.94 75.9139C79.6059 75.3411 79.4389 74.7015 79.4389 73.9951C79.4389 73.2982 79.6011 72.6682 79.9257 72.105C80.2503 71.5322 80.6894 71.0787 81.2431 70.7446C81.7968 70.401 82.4125 70.2291 83.0903 70.2291C83.768 70.2291 84.3694 70.401 84.8945 70.7446C85.4195 71.0787 85.8348 71.537 86.1402 72.1193C86.4553 72.692 86.6128 73.3412 86.6128 74.0667V74.4676H80.8708C80.9471 74.8686 81.0951 75.2265 81.3147 75.5416C81.5438 75.8566 81.8302 76.1048 82.1738 76.2862C82.527 76.4675 82.9089 76.5582 83.3194 76.5582C83.6726 76.5582 84.0115 76.5057 84.336 76.4007C84.6701 76.2862 84.947 76.1239 85.1665 75.9139L86.083 76.816C85.6534 77.1405 85.2095 77.384 84.7513 77.5462C84.3026 77.699 83.8062 77.7754 83.2621 77.7754ZM80.8851 73.3937H85.1952C85.1379 73.0118 85.0043 72.6777 84.7942 72.3913C84.5938 72.0954 84.3408 71.8663 84.0353 71.704C83.7394 71.5322 83.4148 71.4463 83.0616 71.4463C82.6989 71.4463 82.3647 71.5274 82.0593 71.6897C81.7538 71.852 81.496 72.0811 81.286 72.377C81.0856 72.6634 80.9519 73.0023 80.8851 73.3937ZM87.9766 77.6465V70.358H89.4085V71.1026C89.9717 70.5107 90.702 70.2148 91.5993 70.2148C92.1626 70.2148 92.6542 70.3341 93.0742 70.5728C93.5038 70.8114 93.8379 71.1456 94.0766 71.5751C94.3248 72.0047 94.4489 72.5011 94.4489 73.0643V77.6465H93.0169V73.3078C93.0169 72.735 92.8546 72.2863 92.5301 71.9618C92.2151 71.6276 91.7712 71.4606 91.1984 71.4606C90.8165 71.4606 90.4729 71.5417 90.1674 71.704C89.8619 71.8663 89.609 72.1002 89.4085 72.4057V77.6465H87.9766ZM99.0129 77.7754C98.3065 77.7754 97.7671 77.6131 97.3948 77.2885C97.0225 76.9544 96.8364 76.4723 96.8364 75.8423V71.5608H95.2899V70.358H96.8364V68.4965L98.254 68.1528V70.358H100.402V71.5608H98.254V75.5129C98.254 75.8852 98.3351 76.1525 98.4974 76.3148C98.6692 76.4675 98.9461 76.5439 99.3279 76.5439C99.5284 76.5439 99.705 76.5296 99.8577 76.5009C100.02 76.4723 100.192 76.4294 100.373 76.3721V77.5749C100.182 77.6417 99.9579 77.6894 99.7002 77.7181C99.452 77.7563 99.2229 77.7754 99.0129 77.7754Z" fill="#080D18"/>
<path d="M20.5337 149.241L18.3428 139.218H19.8893L21.4501 146.879L23.7125 139.218H25.1444L27.4069 146.864L28.982 139.218H30.4569L28.266 149.241H26.7196L24.4142 141.366L22.0945 149.241H20.5337ZM31.7485 149.241V141.953H33.1804V149.241H31.7485ZM32.4645 140.779C32.2258 140.779 32.0206 140.693 31.8487 140.521C31.6769 140.339 31.591 140.129 31.591 139.891C31.591 139.643 31.6769 139.437 31.8487 139.275C32.0206 139.103 32.2258 139.017 32.4645 139.017C32.7127 139.017 32.9227 139.103 33.0945 139.275C33.2663 139.437 33.3523 139.643 33.3523 139.891C33.3523 140.129 33.2663 140.339 33.0945 140.521C32.9227 140.693 32.7127 140.779 32.4645 140.779ZM37.9884 149.37C37.282 149.37 36.7427 149.208 36.3704 148.883C35.9981 148.549 35.8119 148.067 35.8119 147.437V143.156H34.2654V141.953H35.8119V140.091L37.2295 139.748V141.953H39.3774V143.156H37.2295V147.108C37.2295 147.48 37.3107 147.747 37.4729 147.91C37.6448 148.062 37.9216 148.139 38.3035 148.139C38.5039 148.139 38.6805 148.124 38.8333 148.096C38.9956 148.067 39.1674 148.024 39.3488 147.967V149.17C39.1578 149.236 38.9335 149.284 38.6758 149.313C38.4276 149.351 38.1985 149.37 37.9884 149.37ZM40.4323 149.241V139.218L41.8642 138.903V142.697C42.4275 142.105 43.1577 141.81 44.0551 141.81C44.6183 141.81 45.1099 141.929 45.53 142.168C45.9595 142.406 46.2937 142.74 46.5323 143.17C46.7805 143.599 46.9046 144.096 46.9046 144.659V149.241H45.4727V144.902C45.4727 144.33 45.3104 143.881 44.9858 143.556C44.6613 143.222 44.2174 143.055 43.6541 143.055C43.2723 143.055 42.9286 143.136 42.6232 143.299C42.3177 143.461 42.0647 143.695 41.8642 144V149.241H40.4323ZM51.9075 149.356C51.2297 149.356 50.6092 149.189 50.046 148.855C49.4828 148.52 49.0389 148.072 48.7143 147.509C48.3897 146.936 48.2275 146.296 48.2275 145.59C48.2275 144.883 48.3897 144.249 48.7143 143.685C49.0484 143.122 49.4971 142.673 50.0603 142.339C50.6235 142.005 51.2488 141.838 51.9361 141.838C52.3371 141.838 52.7237 141.9 53.096 142.024C53.4683 142.148 53.8119 142.33 54.127 142.568V139.218L55.5589 138.946V149.241H54.1413V148.54C53.5208 149.084 52.7762 149.356 51.9075 149.356ZM52.0936 148.11C52.5137 148.11 52.8955 148.034 53.2392 147.881C53.5924 147.728 53.8883 147.509 54.127 147.222V143.943C53.8883 143.676 53.5924 143.466 53.2392 143.313C52.8955 143.151 52.5137 143.07 52.0936 143.07C51.6354 143.07 51.2202 143.179 50.8479 143.399C50.4756 143.619 50.1796 143.919 49.9601 144.301C49.7405 144.673 49.6307 145.098 49.6307 145.575C49.6307 146.053 49.7405 146.482 49.9601 146.864C50.1796 147.246 50.4756 147.552 50.8479 147.781C51.2202 148 51.6354 148.11 52.0936 148.11ZM57.2546 149.241V141.953H58.6865V142.883C58.9156 142.54 59.1972 142.273 59.5314 142.082C59.875 141.881 60.2616 141.781 60.6912 141.781C60.9871 141.79 61.2306 141.833 61.4215 141.91V143.199C61.2878 143.141 61.1494 143.103 61.0062 143.084C60.863 143.055 60.7198 143.041 60.5767 143.041C60.1566 143.041 59.7843 143.156 59.4598 143.385C59.1352 143.604 58.8774 143.929 58.6865 144.358V149.241H57.2546ZM64.5801 149.37C64.0551 149.37 63.5921 149.279 63.1911 149.098C62.7902 148.907 62.4752 148.645 62.2461 148.31C62.017 147.976 61.9024 147.59 61.9024 147.151C61.9024 146.463 62.1649 145.924 62.69 145.533C63.215 145.132 63.9357 144.931 64.8522 144.931C65.5681 144.931 66.2316 145.07 66.8425 145.346V144.573C66.8425 144.048 66.6898 143.657 66.3843 143.399C66.0884 143.141 65.6493 143.012 65.067 143.012C64.7328 143.012 64.3844 143.065 64.0217 143.17C63.6589 143.265 63.2532 143.418 62.8045 143.628L62.2747 142.554C62.8284 142.296 63.3439 142.11 63.8212 141.996C64.2985 141.872 64.7806 141.81 65.2674 141.81C66.2125 141.81 66.9428 142.034 67.4583 142.483C67.9833 142.931 68.2458 143.571 68.2458 144.401V149.241H66.8425V148.611C66.518 148.869 66.1695 149.06 65.7972 149.184C65.4249 149.308 65.0192 149.37 64.5801 149.37ZM63.2771 147.122C63.2771 147.475 63.425 147.762 63.721 147.981C64.0264 148.191 64.4226 148.296 64.9094 148.296C65.2913 148.296 65.6397 148.244 65.9547 148.139C66.2793 148.024 66.5752 147.847 66.8425 147.609V146.377C66.5657 146.215 66.2745 146.101 65.9691 146.034C65.6731 145.957 65.339 145.919 64.9667 145.919C64.4417 145.919 64.0264 146.029 63.721 146.248C63.425 146.459 63.2771 146.75 63.2771 147.122ZM71.1163 149.241L69.0829 141.953H70.4719L71.8895 147.308L73.5505 141.953H74.782L76.443 147.308L77.8606 141.953H79.2066L77.159 149.241H75.7843L74.1519 143.9L72.5052 149.241H71.1163ZM82.3916 149.241L86.5299 139.218H88.3055L92.4008 149.241H90.7684L89.6085 146.306H85.1266L83.9524 149.241H82.3916ZM85.6135 145.06H89.1217L87.3747 140.65L85.6135 145.06ZM93.2624 149.241V141.953H94.6943V142.654C95.2384 142.091 95.921 141.81 96.7419 141.81C97.2383 141.81 97.6775 141.919 98.0593 142.139C98.4507 142.358 98.761 142.654 98.9901 143.027C99.2955 142.626 99.6535 142.325 100.064 142.125C100.474 141.915 100.937 141.81 101.453 141.81C101.997 141.81 102.47 141.929 102.871 142.168C103.281 142.406 103.601 142.74 103.83 143.17C104.069 143.599 104.188 144.096 104.188 144.659V149.241H102.756V144.902C102.756 144.33 102.603 143.881 102.298 143.556C102.002 143.222 101.596 143.055 101.081 143.055C100.727 143.055 100.408 143.136 100.121 143.299C99.8349 143.461 99.5867 143.709 99.3767 144.043C99.3958 144.139 99.4101 144.239 99.4196 144.344C99.4292 144.449 99.434 144.554 99.434 144.659V149.241H98.0164V144.902C98.0164 144.33 97.8636 143.881 97.5581 143.556C97.2622 143.222 96.8565 143.055 96.341 143.055C95.9973 143.055 95.6871 143.132 95.4103 143.284C95.1334 143.428 94.8948 143.647 94.6943 143.943V149.241H93.2624ZM109.299 149.384C108.592 149.384 107.948 149.217 107.366 148.883C106.793 148.549 106.34 148.096 106.005 147.523C105.671 146.95 105.504 146.311 105.504 145.604C105.504 144.898 105.671 144.258 106.005 143.685C106.34 143.113 106.793 142.659 107.366 142.325C107.948 141.981 108.592 141.81 109.299 141.81C110.015 141.81 110.659 141.981 111.232 142.325C111.805 142.659 112.258 143.113 112.592 143.685C112.926 144.258 113.093 144.898 113.093 145.604C113.093 146.311 112.926 146.95 112.592 147.523C112.258 148.096 111.805 148.549 111.232 148.883C110.659 149.217 110.015 149.384 109.299 149.384ZM109.299 148.124C109.748 148.124 110.153 148.015 110.516 147.795C110.879 147.566 111.165 147.26 111.375 146.879C111.585 146.497 111.69 146.067 111.69 145.59C111.69 145.122 111.58 144.702 111.361 144.33C111.151 143.948 110.864 143.642 110.502 143.413C110.148 143.184 109.748 143.07 109.299 143.07C108.85 143.07 108.445 143.184 108.082 143.413C107.729 143.642 107.442 143.948 107.223 144.33C107.013 144.702 106.908 145.122 106.908 145.59C106.908 146.067 107.013 146.497 107.223 146.879C107.433 147.26 107.719 147.566 108.082 147.795C108.445 148.015 108.85 148.124 109.299 148.124ZM117.268 149.384C116.705 149.384 116.209 149.265 115.779 149.026C115.35 148.788 115.016 148.454 114.777 148.024C114.538 147.585 114.419 147.084 114.419 146.521V141.953H115.836V146.277C115.836 146.85 115.999 147.303 116.323 147.637C116.657 147.972 117.101 148.139 117.655 148.139C118.046 148.139 118.395 148.057 118.7 147.895C119.006 147.723 119.254 147.485 119.445 147.179V141.953H120.877V149.241H119.445V148.497C118.882 149.088 118.156 149.384 117.268 149.384ZM122.572 149.241V141.953H124.004V142.697C124.567 142.105 125.297 141.81 126.195 141.81C126.758 141.81 127.25 141.929 127.67 142.168C128.099 142.406 128.433 142.74 128.672 143.17C128.92 143.599 129.044 144.096 129.044 144.659V149.241H127.612V144.902C127.612 144.33 127.45 143.881 127.126 143.556C126.81 143.222 126.367 143.055 125.794 143.055C125.412 143.055 125.068 143.136 124.763 143.299C124.457 143.461 124.204 143.695 124.004 144V149.241H122.572ZM133.608 149.37C132.902 149.37 132.363 149.208 131.99 148.883C131.618 148.549 131.432 148.067 131.432 147.437V143.156H129.885V141.953H131.432V140.091L132.849 139.748V141.953H134.997V143.156H132.849V147.108C132.849 147.48 132.931 147.747 133.093 147.91C133.265 148.062 133.541 148.139 133.923 148.139C134.124 148.139 134.3 148.124 134.453 148.096C134.615 148.067 134.787 148.024 134.969 147.967V149.17C134.778 149.236 134.553 149.284 134.296 149.313C134.047 149.351 133.818 149.37 133.608 149.37Z" fill="#080D18"/>
<path d="M301.124 149.241V139.218H302.584L308.183 146.664V139.218H309.601V149.241H308.283L302.556 141.566V149.241H301.124ZM313.647 149.37C313.122 149.37 312.659 149.279 312.258 149.098C311.857 148.907 311.542 148.645 311.313 148.31C311.084 147.976 310.969 147.59 310.969 147.151C310.969 146.463 311.232 145.924 311.757 145.533C312.282 145.132 313.003 144.931 313.919 144.931C314.635 144.931 315.298 145.07 315.909 145.346V144.573C315.909 144.048 315.757 143.657 315.451 143.399C315.155 143.141 314.716 143.012 314.134 143.012C313.8 143.012 313.451 143.065 313.089 143.17C312.726 143.265 312.32 143.418 311.871 143.628L311.342 142.554C311.895 142.296 312.411 142.11 312.888 141.996C313.365 141.872 313.847 141.81 314.334 141.81C315.279 141.81 316.01 142.034 316.525 142.483C317.05 142.931 317.313 143.571 317.313 144.401V149.241H315.909V148.611C315.585 148.869 315.236 149.06 314.864 149.184C314.492 149.308 314.086 149.37 313.647 149.37ZM312.344 147.122C312.344 147.475 312.492 147.762 312.788 147.981C313.093 148.191 313.489 148.296 313.976 148.296C314.358 148.296 314.707 148.244 315.022 148.139C315.346 148.024 315.642 147.847 315.909 147.609V146.377C315.633 146.215 315.341 146.101 315.036 146.034C314.74 145.957 314.406 145.919 314.034 145.919C313.509 145.919 313.093 146.029 312.788 146.248C312.492 146.459 312.344 146.75 312.344 147.122ZM318.963 149.241V141.953H320.395V142.883C320.624 142.54 320.905 142.273 321.239 142.082C321.583 141.881 321.97 141.781 322.399 141.781C322.695 141.79 322.939 141.833 323.13 141.91V143.199C322.996 143.141 322.857 143.103 322.714 143.084C322.571 143.055 322.428 143.041 322.285 143.041C321.865 143.041 321.492 143.156 321.168 143.385C320.843 143.604 320.585 143.929 320.395 144.358V149.241H318.963ZM324.276 149.241V141.953H325.708V142.883C325.937 142.54 326.219 142.273 326.553 142.082C326.897 141.881 327.283 141.781 327.713 141.781C328.009 141.79 328.252 141.833 328.443 141.91V143.199C328.31 143.141 328.171 143.103 328.028 143.084C327.885 143.055 327.742 143.041 327.598 143.041C327.178 143.041 326.806 143.156 326.482 143.385C326.157 143.604 325.899 143.929 325.708 144.358V149.241H324.276ZM331.602 149.37C331.077 149.37 330.614 149.279 330.213 149.098C329.812 148.907 329.497 148.645 329.268 148.31C329.039 147.976 328.924 147.59 328.924 147.151C328.924 146.463 329.187 145.924 329.712 145.533C330.237 145.132 330.958 144.931 331.874 144.931C332.59 144.931 333.253 145.07 333.864 145.346V144.573C333.864 144.048 333.712 143.657 333.406 143.399C333.11 143.141 332.671 143.012 332.089 143.012C331.755 143.012 331.406 143.065 331.043 143.17C330.681 143.265 330.275 143.418 329.826 143.628L329.297 142.554C329.85 142.296 330.366 142.11 330.843 141.996C331.32 141.872 331.802 141.81 332.289 141.81C333.234 141.81 333.965 142.034 334.48 142.483C335.005 142.931 335.268 143.571 335.268 144.401V149.241H333.864V148.611C333.54 148.869 333.191 149.06 332.819 149.184C332.447 149.308 332.041 149.37 331.602 149.37ZM330.299 147.122C330.299 147.475 330.447 147.762 330.743 147.981C331.048 148.191 331.444 148.296 331.931 148.296C332.313 148.296 332.662 148.244 332.977 148.139C333.301 148.024 333.597 147.847 333.864 147.609V146.377C333.588 146.215 333.296 146.101 332.991 146.034C332.695 145.957 332.361 145.919 331.989 145.919C331.464 145.919 331.048 146.029 330.743 146.248C330.447 146.459 330.299 146.75 330.299 147.122ZM339.829 149.37C339.123 149.37 338.584 149.208 338.211 148.883C337.839 148.549 337.653 148.067 337.653 147.437V143.156H336.106V141.953H337.653V140.091L339.071 139.748V141.953H341.218V143.156H339.071V147.108C339.071 147.48 339.152 147.747 339.314 147.91C339.486 148.062 339.763 148.139 340.144 148.139C340.345 148.139 340.522 148.124 340.674 148.096C340.837 148.067 341.008 148.024 341.19 147.967V149.17C340.999 149.236 340.774 149.284 340.517 149.313C340.269 149.351 340.039 149.37 339.829 149.37ZM342.273 149.241V141.953H343.705V149.241H342.273ZM342.989 140.779C342.751 140.779 342.545 140.693 342.374 140.521C342.202 140.339 342.116 140.129 342.116 139.891C342.116 139.643 342.202 139.437 342.374 139.275C342.545 139.103 342.751 139.017 342.989 139.017C343.237 139.017 343.447 139.103 343.619 139.275C343.791 139.437 343.877 139.643 343.877 139.891C343.877 140.129 343.791 140.339 343.619 140.521C343.447 140.693 343.237 140.779 342.989 140.779ZM348.857 149.384C348.15 149.384 347.506 149.217 346.924 148.883C346.351 148.549 345.898 148.096 345.563 147.523C345.229 146.95 345.062 146.311 345.062 145.604C345.062 144.898 345.229 144.258 345.563 143.685C345.898 143.113 346.351 142.659 346.924 142.325C347.506 141.981 348.15 141.81 348.857 141.81C349.573 141.81 350.217 141.981 350.79 142.325C351.363 142.659 351.816 143.113 352.15 143.685C352.484 144.258 352.651 144.898 352.651 145.604C352.651 146.311 352.484 146.95 352.15 147.523C351.816 148.096 351.363 148.549 350.79 148.883C350.217 149.217 349.573 149.384 348.857 149.384ZM348.857 148.124C349.306 148.124 349.711 148.015 350.074 147.795C350.437 147.566 350.723 147.26 350.933 146.879C351.143 146.497 351.248 146.067 351.248 145.59C351.248 145.122 351.138 144.702 350.919 144.33C350.709 143.948 350.422 143.642 350.06 143.413C349.707 143.184 349.306 143.07 348.857 143.07C348.408 143.07 348.003 143.184 347.64 143.413C347.287 143.642 347 143.948 346.781 144.33C346.571 144.702 346.466 145.122 346.466 145.59C346.466 146.067 346.571 146.497 346.781 146.879C346.991 147.26 347.277 147.566 347.64 147.795C348.003 148.015 348.408 148.124 348.857 148.124ZM354.006 149.241V141.953H355.437V142.697C356.001 142.105 356.731 141.81 357.628 141.81C358.192 141.81 358.683 141.929 359.103 142.168C359.533 142.406 359.867 142.74 360.106 143.17C360.354 143.599 360.478 144.096 360.478 144.659V149.241H359.046V144.902C359.046 144.33 358.884 143.881 358.559 143.556C358.244 143.222 357.8 143.055 357.227 143.055C356.846 143.055 356.502 143.136 356.196 143.299C355.891 143.461 355.638 143.695 355.437 144V149.241H354.006Z" fill="#080D18"/>
<path d="M302.742 77.6465L300.551 67.623H302.097L303.658 75.2838L305.921 67.623H307.352L309.615 75.2695L311.19 67.623H312.665L310.474 77.6465H308.928L306.622 69.7709L304.302 77.6465H302.742ZM313.957 77.6465V70.358H315.388V77.6465H313.957ZM314.672 69.1838C314.434 69.1838 314.229 69.0979 314.057 68.9261C313.885 68.7447 313.799 68.5347 313.799 68.296C313.799 68.0478 313.885 67.8426 314.057 67.6803C314.229 67.5085 314.434 67.4226 314.672 67.4226C314.921 67.4226 315.131 67.5085 315.303 67.6803C315.474 67.8426 315.56 68.0478 315.56 68.296C315.56 68.5347 315.474 68.7447 315.303 68.9261C315.131 69.0979 314.921 69.1838 314.672 69.1838ZM320.196 77.7754C319.49 77.7754 318.951 77.6131 318.578 77.2885C318.206 76.9544 318.02 76.4723 318.02 75.8423V71.5608H316.473V70.358H318.02V68.4965L319.438 68.1528V70.358H321.585V71.5608H319.438V75.5129C319.438 75.8852 319.519 76.1525 319.681 76.3148C319.853 76.4675 320.13 76.5439 320.511 76.5439C320.712 76.5439 320.889 76.5296 321.041 76.5009C321.204 76.4723 321.375 76.4294 321.557 76.3721V77.5749C321.366 77.6417 321.142 77.6894 320.884 77.7181C320.636 77.7563 320.406 77.7754 320.196 77.7754ZM322.64 77.6465V67.623L324.072 67.308V71.1026C324.635 70.5107 325.366 70.2148 326.263 70.2148C326.826 70.2148 327.318 70.3341 327.738 70.5728C328.168 70.8114 328.502 71.1456 328.74 71.5751C328.989 72.0047 329.113 72.5011 329.113 73.0643V77.6465H327.681V73.3078C327.681 72.735 327.518 72.2863 327.194 71.9618C326.869 71.6276 326.425 71.4606 325.862 71.4606C325.48 71.4606 325.137 71.5417 324.831 71.704C324.526 71.8663 324.273 72.1002 324.072 72.4057V77.6465H322.64ZM334.115 77.761C333.438 77.761 332.817 77.594 332.254 77.2599C331.691 76.9258 331.247 76.4771 330.922 75.9139C330.598 75.3411 330.435 74.7015 330.435 73.9951C330.435 73.2887 330.598 72.6539 330.922 72.0906C331.256 71.5274 331.705 71.0787 332.268 70.7446C332.832 70.4105 333.457 70.2435 334.144 70.2435C334.545 70.2435 334.932 70.3055 335.304 70.4296C335.676 70.5537 336.02 70.7351 336.335 70.9737V67.623L337.767 67.351V77.6465H336.349V76.9448C335.729 77.489 334.984 77.761 334.115 77.761ZM334.302 76.5153C334.722 76.5153 335.104 76.4389 335.447 76.2862C335.8 76.1334 336.096 75.9139 336.335 75.6275V72.3484C336.096 72.0811 335.8 71.8711 335.447 71.7183C335.104 71.556 334.722 71.4749 334.302 71.4749C333.843 71.4749 333.428 71.5847 333.056 71.8042C332.684 72.0238 332.388 72.3245 332.168 72.7064C331.949 73.0787 331.839 73.5035 331.839 73.9808C331.839 74.4581 331.949 74.8877 332.168 75.2695C332.388 75.6513 332.684 75.9568 333.056 76.1859C333.428 76.4055 333.843 76.5153 334.302 76.5153ZM339.463 77.6465V70.358H340.895V71.2888C341.124 70.9451 341.405 70.6778 341.739 70.4869C342.083 70.2864 342.47 70.1862 342.899 70.1862C343.195 70.1957 343.439 70.2387 343.629 70.315V71.6038C343.496 71.5465 343.357 71.5083 343.214 71.4892C343.071 71.4606 342.928 71.4463 342.785 71.4463C342.365 71.4463 341.992 71.5608 341.668 71.7899C341.343 72.0095 341.085 72.3341 340.895 72.7636V77.6465H339.463ZM346.788 77.7754C346.263 77.7754 345.8 77.6847 345.399 77.5033C344.998 77.3124 344.683 77.0499 344.454 76.7157C344.225 76.3816 344.11 75.995 344.11 75.5559C344.11 74.8686 344.373 74.3292 344.898 73.9378C345.423 73.5369 346.144 73.3364 347.06 73.3364C347.776 73.3364 348.44 73.4748 349.051 73.7517V72.9784C349.051 72.4534 348.898 72.062 348.592 71.8042C348.296 71.5465 347.857 71.4176 347.275 71.4176C346.941 71.4176 346.592 71.4701 346.23 71.5751C345.867 71.6706 345.461 71.8233 345.013 72.0334L344.483 70.9594C345.036 70.7017 345.552 70.5155 346.029 70.401C346.507 70.2769 346.989 70.2148 347.475 70.2148C348.421 70.2148 349.151 70.4391 349.666 70.8878C350.191 71.3365 350.454 71.9761 350.454 72.8066V77.6465H349.051V77.0164C348.726 77.2742 348.378 77.4651 348.005 77.5892C347.633 77.7133 347.227 77.7754 346.788 77.7754ZM345.485 75.5272C345.485 75.8804 345.633 76.1668 345.929 76.3864C346.234 76.5964 346.631 76.7014 347.117 76.7014C347.499 76.7014 347.848 76.6489 348.163 76.5439C348.487 76.4294 348.783 76.2527 349.051 76.0141V74.7826C348.774 74.6204 348.483 74.5058 348.177 74.439C347.881 74.3626 347.547 74.3244 347.175 74.3244C346.65 74.3244 346.234 74.4342 345.929 74.6538C345.633 74.8638 345.485 75.1549 345.485 75.5272ZM353.324 77.6465L351.291 70.358H352.68L354.098 75.7134L355.759 70.358H356.99L358.651 75.7134L360.069 70.358H361.415L359.367 77.6465H357.992L356.36 72.3054L354.713 77.6465H353.324ZM364.645 77.7754C364.12 77.7754 363.657 77.6847 363.256 77.5033C362.855 77.3124 362.54 77.0499 362.311 76.7157C362.082 76.3816 361.967 75.995 361.967 75.5559C361.967 74.8686 362.23 74.3292 362.755 73.9378C363.28 73.5369 364.001 73.3364 364.917 73.3364C365.633 73.3364 366.297 73.4748 366.908 73.7517V72.9784C366.908 72.4534 366.755 72.062 366.449 71.8042C366.153 71.5465 365.714 71.4176 365.132 71.4176C364.798 71.4176 364.449 71.4701 364.087 71.5751C363.724 71.6706 363.318 71.8233 362.87 72.0334L362.34 70.9594C362.893 70.7017 363.409 70.5155 363.886 70.401C364.364 70.2769 364.846 70.2148 365.332 70.2148C366.278 70.2148 367.008 70.4391 367.523 70.8878C368.048 71.3365 368.311 71.9761 368.311 72.8066V77.6465H366.908V77.0164C366.583 77.2742 366.235 77.4651 365.862 77.5892C365.49 77.7133 365.084 77.7754 364.645 77.7754ZM363.342 75.5272C363.342 75.8804 363.49 76.1668 363.786 76.3864C364.091 76.5964 364.488 76.7014 364.975 76.7014C365.356 76.7014 365.705 76.6489 366.02 76.5439C366.344 76.4294 366.64 76.2527 366.908 76.0141V74.7826C366.631 74.6204 366.34 74.5058 366.034 74.439C365.738 74.3626 365.404 74.3244 365.032 74.3244C364.507 74.3244 364.091 74.4342 363.786 74.6538C363.49 74.8638 363.342 75.1549 363.342 75.5272ZM369.961 77.6465V67.623L371.393 67.351V77.6465H369.961ZM375.241 77.6465L379.379 67.623H381.155L385.25 77.6465H383.618L382.458 74.711H377.976L376.802 77.6465H375.241ZM378.463 73.4653H381.971L380.224 69.055L378.463 73.4653ZM389.157 77.7754C388.46 77.7754 387.825 77.6083 387.252 77.2742C386.679 76.9401 386.226 76.4866 385.892 75.9139C385.567 75.3411 385.405 74.7015 385.405 73.9951C385.405 73.2887 385.572 72.6539 385.906 72.0906C386.24 71.5179 386.689 71.0644 387.252 70.7303C387.825 70.3866 388.46 70.2148 389.157 70.2148C389.71 70.2148 390.24 70.3198 390.746 70.5298C391.262 70.7399 391.705 71.0358 392.078 71.4176L391.19 72.4057C390.913 72.1002 390.603 71.8711 390.259 71.7183C389.916 71.5656 389.558 71.4892 389.185 71.4892C388.746 71.4892 388.345 71.599 387.982 71.8186C387.629 72.0381 387.348 72.3388 387.138 72.7207C386.928 73.1025 386.823 73.5273 386.823 73.9951C386.823 74.4628 386.928 74.8877 387.138 75.2695C387.348 75.6513 387.634 75.9568 387.997 76.1859C388.36 76.4055 388.765 76.5153 389.214 76.5153C389.586 76.5153 389.935 76.4437 390.259 76.3005C390.584 76.1477 390.889 75.9282 391.176 75.6418L392.049 76.5582C391.667 76.9496 391.223 77.2503 390.717 77.4603C390.221 77.6703 389.701 77.7754 389.157 77.7754ZM396.414 77.7754C395.717 77.7754 395.082 77.6083 394.51 77.2742C393.937 76.9401 393.483 76.4866 393.149 75.9139C392.825 75.3411 392.662 74.7015 392.662 73.9951C392.662 73.2887 392.83 72.6539 393.164 72.0906C393.498 71.5179 393.946 71.0644 394.51 70.7303C395.082 70.3866 395.717 70.2148 396.414 70.2148C396.968 70.2148 397.498 70.3198 398.004 70.5298C398.519 70.7399 398.963 71.0358 399.335 71.4176L398.447 72.4057C398.171 72.1002 397.86 71.8711 397.517 71.7183C397.173 71.5656 396.815 71.4892 396.443 71.4892C396.004 71.4892 395.603 71.599 395.24 71.8186C394.887 72.0381 394.605 72.3388 394.395 72.7207C394.185 73.1025 394.08 73.5273 394.08 73.9951C394.08 74.4628 394.185 74.8877 394.395 75.2695C394.605 75.6513 394.892 75.9568 395.254 76.1859C395.617 76.4055 396.023 76.5153 396.471 76.5153C396.844 76.5153 397.192 76.4437 397.517 76.3005C397.841 76.1477 398.147 75.9282 398.433 75.6418L399.307 76.5582C398.925 76.9496 398.481 77.2503 397.975 77.4603C397.479 77.6703 396.958 77.7754 396.414 77.7754ZM403.715 77.7897C403.008 77.7897 402.364 77.6226 401.781 77.2885C401.209 76.9544 400.755 76.5009 400.421 75.9282C400.087 75.3554 399.92 74.7158 399.92 74.0094C399.92 73.303 400.087 72.6634 400.421 72.0906C400.755 71.5179 401.209 71.0644 401.781 70.7303C402.364 70.3866 403.008 70.2148 403.715 70.2148C404.431 70.2148 405.075 70.3866 405.648 70.7303C406.22 71.0644 406.674 71.5179 407.008 72.0906C407.342 72.6634 407.509 73.303 407.509 74.0094C407.509 74.7158 407.342 75.3554 407.008 75.9282C406.674 76.5009 406.22 76.9544 405.648 77.2885C405.075 77.6226 404.431 77.7897 403.715 77.7897ZM403.715 76.5296C404.163 76.5296 404.569 76.4198 404.932 76.2002C405.294 75.9711 405.581 75.6657 405.791 75.2838C406.001 74.902 406.106 74.4724 406.106 73.9951C406.106 73.5273 405.996 73.1073 405.777 72.735C405.567 72.3532 405.28 72.0477 404.917 71.8186C404.564 71.5895 404.163 71.4749 403.715 71.4749C403.266 71.4749 402.86 71.5895 402.497 71.8186C402.144 72.0477 401.858 72.3532 401.638 72.735C401.428 73.1073 401.323 73.5273 401.323 73.9951C401.323 74.4724 401.428 74.902 401.638 75.2838C401.848 75.6657 402.135 75.9711 402.497 76.2002C402.86 76.4198 403.266 76.5296 403.715 76.5296ZM411.684 77.7897C411.121 77.7897 410.624 77.6703 410.195 77.4317C409.765 77.193 409.431 76.8589 409.193 76.4294C408.954 75.9902 408.835 75.4891 408.835 74.9258V70.358H410.252V74.6824C410.252 75.2552 410.414 75.7086 410.739 76.0427C411.073 76.3768 411.517 76.5439 412.071 76.5439C412.462 76.5439 412.811 76.4628 413.116 76.3005C413.422 76.1286 413.67 75.89 413.861 75.5845V70.358H415.293V77.6465H413.861V76.9019C413.297 77.4937 412.572 77.7897 411.684 77.7897ZM416.988 77.6465V70.358H418.42V71.1026C418.983 70.5107 419.713 70.2148 420.61 70.2148C421.174 70.2148 421.665 70.3341 422.085 70.5728C422.515 70.8114 422.849 71.1456 423.088 71.5751C423.336 72.0047 423.46 72.5011 423.46 73.0643V77.6465H422.028V73.3078C422.028 72.735 421.866 72.2863 421.541 71.9618C421.226 71.6276 420.782 71.4606 420.21 71.4606C419.828 71.4606 419.484 71.5417 419.179 71.704C418.873 71.8663 418.62 72.1002 418.42 72.4057V77.6465H416.988ZM428.024 77.7754C427.318 77.7754 426.778 77.6131 426.406 77.2885C426.034 76.9544 425.847 76.4723 425.847 75.8423V71.5608H424.301V70.358H425.847V68.4965L427.265 68.1528V70.358H429.413V71.5608H427.265V75.5129C427.265 75.8852 427.346 76.1525 427.509 76.3148C427.68 76.4675 427.957 76.5439 428.339 76.5439C428.539 76.5439 428.716 76.5296 428.869 76.5009C429.031 76.4723 429.203 76.4294 429.384 76.3721V77.5749C429.193 77.6417 428.969 77.6894 428.711 77.7181C428.463 77.7563 428.234 77.7754 428.024 77.7754Z" fill="#080D18"/>
<path d="M336.501 257.745L336.501 268.485" stroke="#EBECED" stroke-width="0.596634" stroke-linecap="round"/>
<rect x="18.1972" y="89.1968" width="274.452" height="32.8148" rx="5.66802" fill="white"/>
<rect x="18.1972" y="89.1968" width="274.452" height="32.8148" rx="5.66802" stroke="#F4F5F6" stroke-width="0.596634"/>
<path d="M28.2362 109.723C27.692 109.723 27.1837 109.626 26.7112 109.433C26.2386 109.232 25.8234 108.957 25.4654 108.606C25.1074 108.248 24.8282 107.836 24.6277 107.371C24.4344 106.898 24.3378 106.39 24.3378 105.846C24.3378 105.302 24.4344 104.797 24.6277 104.331C24.8282 103.859 25.1074 103.447 25.4654 103.096C25.8234 102.738 26.2386 102.463 26.7112 102.269C27.1837 102.069 27.692 101.969 28.2362 101.969C28.63 101.969 29.0058 102.019 29.3638 102.119C29.729 102.212 30.0655 102.352 30.3733 102.538C30.6883 102.717 30.9676 102.939 31.211 103.204L30.6633 103.784C30.3697 103.447 30.0082 103.189 29.5786 103.01C29.149 102.824 28.7015 102.731 28.2362 102.731C27.7994 102.731 27.3949 102.81 27.0226 102.968C26.6503 103.125 26.3246 103.347 26.0453 103.633C25.7733 103.913 25.5585 104.242 25.401 104.621C25.2506 104.994 25.1754 105.402 25.1754 105.846C25.1754 106.282 25.2506 106.691 25.401 107.07C25.5585 107.449 25.7768 107.782 26.0561 108.069C26.3353 108.348 26.6611 108.566 27.0334 108.724C27.4128 108.881 27.8209 108.96 28.2577 108.96C28.723 108.96 29.1669 108.871 29.5893 108.692C30.0118 108.505 30.3662 108.251 30.6525 107.929L31.1895 108.488C30.9389 108.745 30.6561 108.967 30.3411 109.153C30.0332 109.34 29.7003 109.483 29.3423 109.583C28.9844 109.676 28.6156 109.723 28.2362 109.723ZM32.2922 109.604V102.087L33.0869 101.904V104.858C33.5094 104.364 34.075 104.117 34.7838 104.117C35.1919 104.117 35.5498 104.206 35.8577 104.385C36.1727 104.557 36.4162 104.8 36.588 105.115C36.767 105.423 36.8565 105.785 36.8565 106.2V109.604H36.0725V106.361C36.0725 105.881 35.9365 105.506 35.6644 105.234C35.3995 104.954 35.0344 104.815 34.569 104.815C34.2468 104.815 33.9604 104.886 33.7098 105.03C33.4592 105.173 33.2516 105.377 33.0869 105.642V109.604H32.2922ZM40.6886 109.712C40.1803 109.712 39.7149 109.59 39.2925 109.347C38.8772 109.096 38.5479 108.76 38.3045 108.337C38.061 107.915 37.9393 107.442 37.9393 106.92C37.9393 106.397 38.061 105.924 38.3045 105.502C38.5479 105.08 38.8772 104.747 39.2925 104.503C39.7149 104.253 40.1803 104.127 40.6886 104.127C41.2041 104.127 41.6695 104.253 42.0847 104.503C42.5 104.747 42.8293 105.08 43.0727 105.502C43.3162 105.924 43.4379 106.397 43.4379 106.92C43.4379 107.442 43.3162 107.915 43.0727 108.337C42.8293 108.76 42.5 109.096 42.0847 109.347C41.6695 109.59 41.2041 109.712 40.6886 109.712ZM40.6886 109.003C41.0537 109.003 41.3831 108.91 41.6766 108.724C41.9773 108.538 42.2136 108.287 42.3854 107.972C42.5644 107.657 42.6539 107.306 42.6539 106.92C42.6539 106.526 42.5644 106.175 42.3854 105.867C42.2136 105.552 41.9773 105.302 41.6766 105.115C41.3831 104.929 41.0537 104.836 40.6886 104.836C40.3235 104.836 39.9905 104.929 39.6898 105.115C39.3963 105.302 39.16 105.552 38.981 105.867C38.8092 106.175 38.7233 106.526 38.7233 106.92C38.7233 107.306 38.8092 107.657 38.981 107.972C39.16 108.287 39.3963 108.538 39.6898 108.724C39.9905 108.91 40.3235 109.003 40.6886 109.003ZM47.0441 109.712C46.5358 109.712 46.0704 109.59 45.648 109.347C45.2328 109.096 44.9034 108.76 44.66 108.337C44.4166 107.915 44.2949 107.442 44.2949 106.92C44.2949 106.397 44.4166 105.924 44.66 105.502C44.9034 105.08 45.2328 104.747 45.648 104.503C46.0704 104.253 46.5358 104.127 47.0441 104.127C47.5596 104.127 48.025 104.253 48.4403 104.503C48.8555 104.747 49.1849 105.08 49.4283 105.502C49.6717 105.924 49.7934 106.397 49.7934 106.92C49.7934 107.442 49.6717 107.915 49.4283 108.337C49.1849 108.76 48.8555 109.096 48.4403 109.347C48.025 109.59 47.5596 109.712 47.0441 109.712ZM47.0441 109.003C47.4093 109.003 47.7386 108.91 48.0322 108.724C48.3329 108.538 48.5691 108.287 48.741 107.972C48.92 107.657 49.0095 107.306 49.0095 106.92C49.0095 106.526 48.92 106.175 48.741 105.867C48.5691 105.552 48.3329 105.302 48.0322 105.115C47.7386 104.929 47.4093 104.836 47.0441 104.836C46.679 104.836 46.3461 104.929 46.0454 105.115C45.7518 105.302 45.5156 105.552 45.3366 105.867C45.1648 106.175 45.0788 106.526 45.0788 106.92C45.0788 107.306 45.1648 107.657 45.3366 107.972C45.5156 108.287 45.7518 108.538 46.0454 108.724C46.3461 108.91 46.679 109.003 47.0441 109.003ZM52.6157 109.712C52.1718 109.712 51.753 109.64 51.3592 109.497C50.9726 109.347 50.6361 109.139 50.3497 108.874L50.833 108.359C51.0836 108.588 51.3592 108.767 51.6599 108.896C51.9606 109.017 52.2685 109.078 52.5835 109.078C53.0131 109.078 53.3639 108.989 53.636 108.81C53.908 108.631 54.0441 108.398 54.0441 108.112C54.0441 107.875 53.9617 107.693 53.7971 107.564C53.6395 107.428 53.389 107.335 53.0453 107.285L52.111 107.156C51.574 107.077 51.1731 106.916 50.9082 106.673C50.6504 106.429 50.5215 106.1 50.5215 105.685C50.5215 105.384 50.6074 105.115 50.7793 104.879C50.9511 104.643 51.1874 104.457 51.4881 104.321C51.7959 104.185 52.1468 104.117 52.5405 104.117C52.9343 104.117 53.303 104.174 53.6467 104.288C53.9904 104.403 54.3269 104.582 54.6562 104.825L54.2374 105.362C53.9367 105.155 53.6431 105.004 53.3567 104.911C53.0775 104.811 52.7911 104.761 52.4976 104.761C52.1253 104.761 51.8246 104.843 51.5955 105.008C51.3664 105.173 51.2518 105.387 51.2518 105.652C51.2518 105.896 51.3306 106.082 51.4881 106.211C51.6456 106.333 51.8998 106.418 52.2506 106.469L53.1849 106.597C53.7219 106.669 54.1228 106.827 54.3877 107.07C54.6598 107.313 54.7958 107.646 54.7958 108.069C54.7958 108.377 54.6992 108.656 54.5059 108.906C54.3125 109.157 54.0512 109.354 53.7219 109.497C53.3997 109.64 53.031 109.712 52.6157 109.712ZM58.2665 109.701C57.751 109.701 57.282 109.579 56.8596 109.336C56.4444 109.085 56.1114 108.749 55.8609 108.327C55.6174 107.904 55.4957 107.432 55.4957 106.909C55.4957 106.393 55.6139 105.928 55.8501 105.513C56.0864 105.09 56.405 104.757 56.8059 104.514C57.2069 104.263 57.6543 104.138 58.1484 104.138C58.6281 104.138 59.0576 104.263 59.4371 104.514C59.8237 104.757 60.128 105.09 60.3499 105.513C60.579 105.928 60.6936 106.393 60.6936 106.909V107.156H56.2797C56.3227 107.507 56.4336 107.822 56.6126 108.101C56.7988 108.38 57.0386 108.602 57.3322 108.767C57.6257 108.924 57.9479 109.003 58.2987 109.003C58.5779 109.003 58.85 108.96 59.1149 108.874C59.3798 108.788 59.6018 108.667 59.7807 108.509L60.2748 109.035C59.9741 109.257 59.659 109.426 59.3297 109.54C59.0075 109.647 58.6531 109.701 58.2665 109.701ZM56.3012 106.522H59.8989C59.8559 106.2 59.7485 105.914 59.5767 105.663C59.412 105.405 59.2044 105.205 58.9538 105.062C58.7032 104.911 58.4276 104.836 58.1269 104.836C57.819 104.836 57.5362 104.908 57.2785 105.051C57.0207 105.194 56.8059 105.395 56.6341 105.652C56.4623 105.903 56.3513 106.193 56.3012 106.522ZM64.2623 109.604V102.087H69.6427V102.817H65.0892V105.448H68.064V106.168H65.0892V108.874H69.6857V109.604H64.2623ZM72.3323 109.604L70.0019 104.224H70.8825L72.719 108.574L74.5554 104.224H75.4038L73.0841 109.604H72.3323ZM78.4973 109.701C77.9818 109.701 77.5128 109.579 77.0904 109.336C76.6751 109.085 76.3422 108.749 76.0916 108.327C75.8482 107.904 75.7265 107.432 75.7265 106.909C75.7265 106.393 75.8446 105.928 76.0809 105.513C76.3172 105.09 76.6358 104.757 77.0367 104.514C77.4376 104.263 77.8851 104.138 78.3791 104.138C78.8588 104.138 79.2884 104.263 79.6679 104.514C80.0545 104.757 80.3588 105.09 80.5807 105.513C80.8098 105.928 80.9244 106.393 80.9244 106.909V107.156H76.5105C76.5534 107.507 76.6644 107.822 76.8434 108.101C77.0295 108.38 77.2694 108.602 77.5629 108.767C77.8565 108.924 78.1787 109.003 78.5295 109.003C78.8087 109.003 79.0808 108.96 79.3457 108.874C79.6106 108.788 79.8325 108.667 80.0115 108.509L80.5055 109.035C80.2048 109.257 79.8898 109.426 79.5605 109.54C79.2383 109.647 78.8839 109.701 78.4973 109.701ZM76.532 106.522H80.1297C80.0867 106.2 79.9793 105.914 79.8075 105.663C79.6428 105.405 79.4352 105.205 79.1846 105.062C78.934 104.911 78.6584 104.836 78.3577 104.836C78.0498 104.836 77.767 104.908 77.5092 105.051C77.2515 105.194 77.0367 105.395 76.8649 105.652C76.693 105.903 76.5821 106.193 76.532 106.522ZM82.0354 109.604V104.224H82.8301V104.858C83.2525 104.364 83.8181 104.117 84.5269 104.117C84.935 104.117 85.293 104.206 85.6009 104.385C85.9159 104.557 86.1593 104.8 86.3312 105.115C86.5101 105.423 86.5996 105.785 86.5996 106.2V109.604H85.8157V106.361C85.8157 105.881 85.6796 105.506 85.4076 105.234C85.1427 104.954 84.7775 104.815 84.3122 104.815C83.99 104.815 83.7036 104.886 83.453 105.03C83.2024 105.173 82.9948 105.377 82.8301 105.642V109.604H82.0354ZM89.8878 109.712C89.4225 109.712 89.0645 109.601 88.8139 109.379C88.5633 109.157 88.438 108.835 88.438 108.412V104.901H87.2782V104.224H88.438V102.86L89.222 102.656V104.224H90.8436V104.901H89.222V108.208C89.222 108.495 89.2864 108.702 89.4153 108.831C89.5442 108.953 89.7554 109.014 90.0489 109.014C90.1993 109.014 90.3317 109.003 90.4463 108.982C90.568 108.96 90.6969 108.924 90.8329 108.874V109.572C90.6969 109.622 90.5429 109.658 90.3711 109.68C90.2064 109.701 90.0453 109.712 89.8878 109.712Z" fill="#DDE0E3"/>
<path d="M277.658 103.926L281.014 107.282L284.37 103.926" stroke="#080D18" stroke-width="1.19327" stroke-linecap="round" stroke-linejoin="round"/>
<rect x="18.1972" y="160.792" width="274.452" height="32.8148" rx="5.66802" fill="white"/>
<rect x="18.1972" y="160.792" width="274.452" height="32.8148" rx="5.66802" stroke="#F4F5F6" stroke-width="0.596634"/>
<path d="M24.6922 181.2V173.683H25.5191L30.0404 179.783V173.683H30.8244V181.2H30.0941L25.4761 174.939V181.2H24.6922ZM36.0073 181.318C35.4632 181.318 34.9548 181.218 34.4823 181.018C34.0169 180.817 33.6053 180.542 33.2473 180.191C32.8965 179.833 32.6208 179.421 32.4203 178.956C32.2199 178.483 32.1196 177.978 32.1196 177.441C32.1196 176.904 32.2163 176.403 32.4096 175.938C32.6101 175.465 32.8857 175.054 33.2365 174.703C33.5945 174.345 34.0062 174.066 34.4716 173.865C34.9441 173.665 35.4524 173.564 35.9966 173.564C36.5765 173.564 37.1242 173.672 37.6397 173.887C38.1552 174.101 38.5955 174.406 38.9606 174.8L38.4022 175.369C38.1158 175.039 37.7578 174.785 37.3283 174.606C36.9058 174.42 36.4619 174.327 35.9966 174.327C35.567 174.327 35.1661 174.406 34.7938 174.563C34.4286 174.721 34.1064 174.943 33.8272 175.229C33.5551 175.508 33.3404 175.838 33.1828 176.217C33.0325 176.589 32.9573 176.998 32.9573 177.441C32.9573 177.878 33.0325 178.286 33.1828 178.666C33.3404 179.045 33.5551 179.378 33.8272 179.664C34.1064 179.944 34.4286 180.162 34.7938 180.32C35.1661 180.477 35.567 180.556 35.9966 180.556C36.5049 180.556 36.9631 180.445 37.3712 180.223C37.7865 180.001 38.1194 179.697 38.37 179.31C38.6277 178.923 38.7781 178.487 38.821 178H36.1254V177.27H39.6587V177.602C39.6587 178.125 39.5656 178.612 39.3795 179.063C39.1933 179.514 38.9356 179.908 38.6062 180.244C38.2769 180.581 37.8903 180.846 37.4464 181.039C37.0025 181.225 36.5228 181.318 36.0073 181.318ZM40.9376 181.2V173.683H41.7646L46.2858 179.783V173.683H47.0698V181.2H46.3395L41.7216 174.939V181.2H40.9376ZM53.7546 181.318C53.1532 181.318 52.6234 181.154 52.1652 180.824C51.707 180.495 51.3454 180.04 51.0805 179.46C50.8227 178.873 50.6939 178.2 50.6939 177.441C50.6939 176.682 50.8227 176.013 51.0805 175.433C51.3454 174.846 51.707 174.388 52.1652 174.058C52.6234 173.729 53.1532 173.564 53.7546 173.564C54.356 173.564 54.8858 173.729 55.344 174.058C55.8022 174.388 56.1602 174.846 56.418 175.433C56.6829 176.013 56.8153 176.682 56.8153 177.441C56.8153 178.2 56.6829 178.873 56.418 179.46C56.1602 180.04 55.8022 180.495 55.344 180.824C54.8858 181.154 54.356 181.318 53.7546 181.318ZM53.7546 180.62C54.22 180.62 54.6209 180.491 54.9574 180.234C55.3011 179.969 55.566 179.596 55.7521 179.117C55.9383 178.637 56.0314 178.079 56.0314 177.441C56.0314 176.797 55.9383 176.239 55.7521 175.766C55.566 175.286 55.3011 174.918 54.9574 174.66C54.6209 174.395 54.22 174.263 53.7546 174.263C53.2964 174.263 52.8954 174.395 52.5518 174.66C52.2081 174.918 51.9432 175.286 51.7571 175.766C51.5709 176.239 51.4778 176.797 51.4778 177.441C51.4778 178.079 51.5709 178.637 51.7571 179.117C51.9432 179.596 52.2081 179.969 52.5518 180.234C52.8954 180.491 53.2964 180.62 53.7546 180.62ZM58.3278 181.265C58.1775 181.265 58.0486 181.211 57.9412 181.104C57.8338 180.996 57.7801 180.867 57.7801 180.717C57.7801 180.567 57.8338 180.438 57.9412 180.33C58.0486 180.223 58.1775 180.169 58.3278 180.169C58.4782 180.169 58.607 180.223 58.7144 180.33C58.8218 180.438 58.8755 180.567 58.8755 180.717C58.8755 180.867 58.8218 180.996 58.7144 181.104C58.607 181.211 58.4782 181.265 58.3278 181.265ZM62.8999 181.318C62.2985 181.318 61.7687 181.154 61.3104 180.824C60.8522 180.495 60.4907 180.04 60.2258 179.46C59.968 178.873 59.8391 178.2 59.8391 177.441C59.8391 176.682 59.968 176.013 60.2258 175.433C60.4907 174.846 60.8522 174.388 61.3104 174.058C61.7687 173.729 62.2985 173.564 62.8999 173.564C63.5013 173.564 64.0311 173.729 64.4893 174.058C64.9475 174.388 65.3055 174.846 65.5632 175.433C65.8282 176.013 65.9606 176.682 65.9606 177.441C65.9606 178.2 65.8282 178.873 65.5632 179.46C65.3055 180.04 64.9475 180.495 64.4893 180.824C64.0311 181.154 63.5013 181.318 62.8999 181.318ZM62.8999 180.62C63.3652 180.62 63.7662 180.491 64.1027 180.234C64.4463 179.969 64.7113 179.596 64.8974 179.117C65.0836 178.637 65.1766 178.079 65.1766 177.441C65.1766 176.797 65.0836 176.239 64.8974 175.766C64.7113 175.286 64.4463 174.918 64.1027 174.66C63.7662 174.395 63.3652 174.263 62.8999 174.263C62.4417 174.263 62.0407 174.395 61.6971 174.66C61.3534 174.918 61.0885 175.286 60.9023 175.766C60.7162 176.239 60.6231 176.797 60.6231 177.441C60.6231 178.079 60.7162 178.637 60.9023 179.117C61.0885 179.596 61.3534 179.969 61.6971 180.234C62.0407 180.491 62.4417 180.62 62.8999 180.62ZM70.0105 181.318C69.4091 181.318 68.8793 181.154 68.4211 180.824C67.9629 180.495 67.6013 180.04 67.3364 179.46C67.0787 178.873 66.9498 178.2 66.9498 177.441C66.9498 176.682 67.0787 176.013 67.3364 175.433C67.6013 174.846 67.9629 174.388 68.4211 174.058C68.8793 173.729 69.4091 173.564 70.0105 173.564C70.6119 173.564 71.1418 173.729 71.6 174.058C72.0582 174.388 72.4162 174.846 72.6739 175.433C72.9388 176.013 73.0713 176.682 73.0713 177.441C73.0713 178.2 72.9388 178.873 72.6739 179.46C72.4162 180.04 72.0582 180.495 71.6 180.824C71.1418 181.154 70.6119 181.318 70.0105 181.318ZM70.0105 180.62C70.4759 180.62 70.8768 180.491 71.2133 180.234C71.557 179.969 71.8219 179.596 72.0081 179.117C72.1942 178.637 72.2873 178.079 72.2873 177.441C72.2873 176.797 72.1942 176.239 72.0081 175.766C71.8219 175.286 71.557 174.918 71.2133 174.66C70.8768 174.395 70.4759 174.263 70.0105 174.263C69.5523 174.263 69.1514 174.395 68.8077 174.66C68.4641 174.918 68.1992 175.286 68.013 175.766C67.8269 176.239 67.7338 176.797 67.7338 177.441C67.7338 178.079 67.8269 178.637 68.013 179.117C68.1992 179.596 68.4641 179.969 68.8077 180.234C69.1514 180.491 69.5523 180.62 70.0105 180.62Z" fill="#DDE0E3"/>
<rect x="300.405" y="160.792" width="274.452" height="32.8148" rx="5.66802" fill="white"/>
<rect x="300.405" y="160.792" width="274.452" height="32.8148" rx="5.66802" stroke="#F4F5F6" stroke-width="0.596634"/>
<path d="M306.9 181.2V173.683H312.281V174.413H307.727V177.044H310.702V177.764H307.727V180.47H312.324V181.2H306.9ZM313.368 181.2V175.82H314.162V176.453C314.585 175.959 315.15 175.712 315.859 175.712C316.267 175.712 316.625 175.802 316.933 175.981C317.248 176.153 317.491 176.396 317.663 176.711C317.842 177.019 317.932 177.381 317.932 177.796V181.2H317.148V177.957C317.148 177.477 317.012 177.101 316.74 176.829C316.475 176.55 316.11 176.41 315.644 176.41C315.322 176.41 315.036 176.482 314.785 176.625C314.535 176.768 314.327 176.972 314.162 177.237V181.2H313.368ZM321.22 181.308C320.755 181.308 320.397 181.197 320.146 180.975C319.895 180.753 319.77 180.431 319.77 180.008V176.496H318.61V175.82H319.77V174.456L320.554 174.252V175.82H322.176V176.496H320.554V179.804C320.554 180.09 320.619 180.298 320.747 180.427C320.876 180.549 321.088 180.61 321.381 180.61C321.531 180.61 321.664 180.599 321.778 180.577C321.9 180.556 322.029 180.52 322.165 180.47V181.168C322.029 181.218 321.875 181.254 321.703 181.275C321.539 181.297 321.378 181.308 321.22 181.308ZM325.446 181.297C324.93 181.297 324.461 181.175 324.039 180.932C323.624 180.681 323.291 180.345 323.04 179.922C322.797 179.5 322.675 179.027 322.675 178.505C322.675 177.989 322.793 177.524 323.029 177.108C323.266 176.686 323.584 176.353 323.985 176.11C324.386 175.859 324.833 175.734 325.327 175.734C325.807 175.734 326.237 175.859 326.616 176.11C327.003 176.353 327.307 176.686 327.529 177.108C327.758 177.524 327.873 177.989 327.873 178.505V178.752H323.459C323.502 179.102 323.613 179.417 323.792 179.697C323.978 179.976 324.218 180.198 324.511 180.363C324.805 180.52 325.127 180.599 325.478 180.599C325.757 180.599 326.029 180.556 326.294 180.47C326.559 180.384 326.781 180.262 326.96 180.105L327.454 180.631C327.153 180.853 326.838 181.021 326.509 181.136C326.187 181.243 325.832 181.297 325.446 181.297ZM323.48 178.118H327.078C327.035 177.796 326.928 177.509 326.756 177.259C326.591 177.001 326.384 176.801 326.133 176.657C325.882 176.507 325.607 176.432 325.306 176.432C324.998 176.432 324.715 176.503 324.458 176.647C324.2 176.79 323.985 176.99 323.813 177.248C323.641 177.499 323.53 177.789 323.48 178.118ZM328.984 181.2V175.82H329.778V176.582C329.943 176.303 330.151 176.088 330.401 175.938C330.659 175.78 330.953 175.702 331.282 175.702C331.468 175.702 331.636 175.727 331.787 175.777V176.507C331.694 176.471 331.601 176.446 331.508 176.432C331.414 176.418 331.321 176.41 331.228 176.41C330.899 176.41 330.609 176.507 330.358 176.7C330.115 176.887 329.922 177.159 329.778 177.517V181.2H328.984ZM337.463 181.286C336.962 181.286 336.504 181.164 336.088 180.921C335.68 180.67 335.355 180.337 335.111 179.922C334.875 179.5 334.757 179.027 334.757 178.505C334.757 177.982 334.875 177.513 335.111 177.098C335.355 176.682 335.68 176.353 336.088 176.11C336.504 175.859 336.965 175.734 337.474 175.734C337.789 175.734 338.093 175.788 338.387 175.895C338.68 175.995 338.949 176.146 339.192 176.346V173.683L339.987 173.5V181.2H339.203V180.631C338.73 181.068 338.15 181.286 337.463 181.286ZM337.538 180.588C337.875 180.588 338.186 180.524 338.473 180.395C338.766 180.259 339.006 180.073 339.192 179.836V177.173C339.006 176.944 338.766 176.765 338.473 176.636C338.186 176.5 337.875 176.432 337.538 176.432C337.166 176.432 336.826 176.521 336.518 176.7C336.217 176.879 335.977 177.126 335.798 177.441C335.627 177.749 335.541 178.1 335.541 178.494C335.541 178.888 335.627 179.242 335.798 179.557C335.977 179.872 336.217 180.123 336.518 180.309C336.826 180.495 337.166 180.588 337.538 180.588ZM343.862 181.297C343.347 181.297 342.878 181.175 342.455 180.932C342.04 180.681 341.707 180.345 341.456 179.922C341.213 179.5 341.091 179.027 341.091 178.505C341.091 177.989 341.209 177.524 341.446 177.108C341.682 176.686 342.001 176.353 342.401 176.11C342.802 175.859 343.25 175.734 343.744 175.734C344.224 175.734 344.653 175.859 345.033 176.11C345.419 176.353 345.724 176.686 345.945 177.108C346.175 177.524 346.289 177.989 346.289 178.505V178.752H341.875C341.918 179.102 342.029 179.417 342.208 179.697C342.394 179.976 342.634 180.198 342.928 180.363C343.221 180.52 343.543 180.599 343.894 180.599C344.173 180.599 344.446 180.556 344.71 180.47C344.975 180.384 345.197 180.262 345.376 180.105L345.87 180.631C345.57 180.853 345.255 181.021 344.925 181.136C344.603 181.243 344.249 181.297 343.862 181.297ZM341.897 178.118H345.494C345.451 177.796 345.344 177.509 345.172 177.259C345.008 177.001 344.8 176.801 344.549 176.657C344.299 176.507 344.023 176.432 343.722 176.432C343.415 176.432 343.132 176.503 342.874 176.647C342.616 176.79 342.401 176.99 342.23 177.248C342.058 177.499 341.947 177.789 341.897 178.118ZM349.359 181.308C348.893 181.308 348.535 181.197 348.285 180.975C348.034 180.753 347.909 180.431 347.909 180.008V176.496H346.749V175.82H347.909V174.456L348.693 174.252V175.82H350.314V176.496H348.693V179.804C348.693 180.09 348.757 180.298 348.886 180.427C349.015 180.549 349.226 180.61 349.52 180.61C349.67 180.61 349.802 180.599 349.917 180.577C350.039 180.556 350.168 180.52 350.304 180.47V181.168C350.168 181.218 350.014 181.254 349.842 181.275C349.677 181.297 349.516 181.308 349.359 181.308ZM352.862 181.297C352.468 181.297 352.121 181.229 351.82 181.093C351.527 180.957 351.294 180.767 351.122 180.524C350.958 180.28 350.875 179.997 350.875 179.675C350.875 179.167 351.069 178.766 351.455 178.472C351.842 178.179 352.364 178.032 353.023 178.032C353.603 178.032 354.129 178.154 354.602 178.397V177.688C354.602 177.259 354.48 176.937 354.237 176.722C353.993 176.5 353.639 176.389 353.174 176.389C352.909 176.389 352.64 176.428 352.368 176.507C352.103 176.579 351.81 176.697 351.487 176.861L351.187 176.249C351.573 176.063 351.931 175.927 352.261 175.841C352.59 175.755 352.919 175.712 353.249 175.712C353.929 175.712 354.452 175.873 354.817 176.196C355.189 176.518 355.375 176.98 355.375 177.581V181.2H354.602V180.674C354.358 180.882 354.09 181.039 353.796 181.146C353.51 181.247 353.199 181.297 352.862 181.297ZM351.638 179.654C351.638 179.954 351.763 180.201 352.014 180.395C352.271 180.581 352.601 180.674 353.002 180.674C353.324 180.674 353.617 180.624 353.882 180.524C354.147 180.423 354.387 180.266 354.602 180.051V179.042C354.38 178.891 354.144 178.784 353.893 178.719C353.642 178.648 353.36 178.612 353.045 178.612C352.615 178.612 352.271 178.709 352.014 178.902C351.763 179.088 351.638 179.339 351.638 179.654ZM356.703 181.2V175.82H357.497V181.2H356.703ZM357.1 174.789C356.957 174.789 356.832 174.735 356.724 174.628C356.617 174.52 356.563 174.395 356.563 174.252C356.563 174.101 356.617 173.976 356.724 173.876C356.832 173.769 356.957 173.715 357.1 173.715C357.25 173.715 357.376 173.769 357.476 173.876C357.583 173.976 357.637 174.101 357.637 174.252C357.637 174.395 357.583 174.52 357.476 174.628C357.376 174.735 357.25 174.789 357.1 174.789ZM358.853 181.2V173.683L359.647 173.5V181.2H358.853ZM362.721 181.308C362.277 181.308 361.858 181.236 361.464 181.093C361.078 180.942 360.741 180.735 360.455 180.47L360.938 179.954C361.189 180.184 361.464 180.363 361.765 180.491C362.066 180.613 362.374 180.674 362.689 180.674C363.118 180.674 363.469 180.584 363.741 180.405C364.013 180.226 364.149 179.994 364.149 179.707C364.149 179.471 364.067 179.289 363.902 179.16C363.745 179.024 363.494 178.931 363.151 178.88L362.216 178.752C361.679 178.673 361.278 178.512 361.013 178.268C360.756 178.025 360.627 177.696 360.627 177.28C360.627 176.98 360.713 176.711 360.885 176.475C361.056 176.239 361.293 176.052 361.593 175.916C361.901 175.78 362.252 175.712 362.646 175.712C363.04 175.712 363.408 175.77 363.752 175.884C364.096 175.999 364.432 176.178 364.761 176.421L364.343 176.958C364.042 176.751 363.748 176.6 363.462 176.507C363.183 176.407 362.896 176.357 362.603 176.357C362.231 176.357 361.93 176.439 361.701 176.604C361.472 176.768 361.357 176.983 361.357 177.248C361.357 177.492 361.436 177.678 361.593 177.807C361.751 177.928 362.005 178.014 362.356 178.064L363.29 178.193C363.827 178.265 364.228 178.422 364.493 178.666C364.765 178.909 364.901 179.242 364.901 179.664C364.901 179.972 364.804 180.252 364.611 180.502C364.418 180.753 364.157 180.95 363.827 181.093C363.505 181.236 363.136 181.308 362.721 181.308ZM368.103 181.2V173.683L368.898 173.5V176.453C369.32 175.959 369.886 175.712 370.594 175.712C371.003 175.712 371.36 175.802 371.668 175.981C371.983 176.153 372.227 176.396 372.399 176.711C372.578 177.019 372.667 177.381 372.667 177.796V181.2H371.883V177.957C371.883 177.477 371.747 177.101 371.475 176.829C371.21 176.55 370.845 176.41 370.38 176.41C370.057 176.41 369.771 176.482 369.52 176.625C369.27 176.768 369.062 176.972 368.898 177.237V181.2H368.103ZM376.521 181.297C376.005 181.297 375.536 181.175 375.114 180.932C374.699 180.681 374.366 180.345 374.115 179.922C373.872 179.5 373.75 179.027 373.75 178.505C373.75 177.989 373.868 177.524 374.104 177.108C374.341 176.686 374.659 176.353 375.06 176.11C375.461 175.859 375.909 175.734 376.403 175.734C376.882 175.734 377.312 175.859 377.691 176.11C378.078 176.353 378.382 176.686 378.604 177.108C378.833 177.524 378.948 177.989 378.948 178.505V178.752H374.534C374.577 179.102 374.688 179.417 374.867 179.697C375.053 179.976 375.293 180.198 375.586 180.363C375.88 180.52 376.202 180.599 376.553 180.599C376.832 180.599 377.104 180.556 377.369 180.47C377.634 180.384 377.856 180.262 378.035 180.105L378.529 180.631C378.228 180.853 377.913 181.021 377.584 181.136C377.262 181.243 376.907 181.297 376.521 181.297ZM374.555 178.118H378.153C378.11 177.796 378.003 177.509 377.831 177.259C377.666 177.001 377.459 176.801 377.208 176.657C376.957 176.507 376.682 176.432 376.381 176.432C376.073 176.432 375.79 176.503 375.533 176.647C375.275 176.79 375.06 176.99 374.888 177.248C374.717 177.499 374.606 177.789 374.555 178.118ZM380.059 181.2V175.82H380.854V176.582C381.018 176.303 381.226 176.088 381.476 175.938C381.734 175.78 382.028 175.702 382.357 175.702C382.543 175.702 382.711 175.727 382.862 175.777V176.507C382.769 176.471 382.676 176.446 382.583 176.432C382.49 176.418 382.396 176.41 382.303 176.41C381.974 176.41 381.684 176.507 381.434 176.7C381.19 176.887 380.997 177.159 380.854 177.517V181.2H380.059ZM385.918 181.297C385.402 181.297 384.933 181.175 384.511 180.932C384.096 180.681 383.763 180.345 383.512 179.922C383.269 179.5 383.147 179.027 383.147 178.505C383.147 177.989 383.265 177.524 383.501 177.108C383.738 176.686 384.056 176.353 384.457 176.11C384.858 175.859 385.306 175.734 385.8 175.734C386.279 175.734 386.709 175.859 387.088 176.11C387.475 176.353 387.779 176.686 388.001 177.108C388.23 177.524 388.345 177.989 388.345 178.505V178.752H383.931C383.974 179.102 384.085 179.417 384.264 179.697C384.45 179.976 384.69 180.198 384.983 180.363C385.277 180.52 385.599 180.599 385.95 180.599C386.229 180.599 386.501 180.556 386.766 180.47C387.031 180.384 387.253 180.262 387.432 180.105L387.926 180.631C387.625 180.853 387.31 181.021 386.981 181.136C386.659 181.243 386.304 181.297 385.918 181.297ZM383.952 178.118H387.55C387.507 177.796 387.4 177.509 387.228 177.259C387.063 177.001 386.856 176.801 386.605 176.657C386.354 176.507 386.079 176.432 385.778 176.432C385.47 176.432 385.187 176.503 384.93 176.647C384.672 176.79 384.457 176.99 384.285 177.248C384.113 177.499 384.003 177.789 383.952 178.118Z" fill="#DDE0E3"/>
<rect x="300.405" y="89.1968" width="274.452" height="32.8148" rx="5.66802" fill="#F4F4F5"/>
<rect x="300.405" y="89.1968" width="274.452" height="32.8148" rx="5.66802" stroke="#F4F5F6" stroke-width="0.596634"/>
<path d="M306.836 109.604V102.087H308.35L310.702 106.898L313.054 102.087H314.557V109.604H313.494V103.462L310.691 109.068L307.888 103.462V109.604H306.836ZM315.957 109.604V104.138H317.031V109.604H315.957ZM316.494 103.258C316.315 103.258 316.161 103.193 316.032 103.064C315.903 102.928 315.839 102.771 315.839 102.592C315.839 102.406 315.903 102.252 316.032 102.13C316.161 102.001 316.315 101.937 316.494 101.937C316.68 101.937 316.838 102.001 316.967 102.13C317.095 102.252 317.16 102.406 317.16 102.592C317.16 102.771 317.095 102.928 316.967 103.064C316.838 103.193 316.68 103.258 316.494 103.258ZM320.862 109.701C320.34 109.701 319.864 109.576 319.434 109.325C319.005 109.075 318.664 108.735 318.414 108.305C318.17 107.875 318.049 107.396 318.049 106.866C318.049 106.336 318.174 105.86 318.425 105.438C318.675 105.008 319.012 104.668 319.434 104.417C319.864 104.16 320.34 104.031 320.862 104.031C321.278 104.031 321.675 104.109 322.055 104.267C322.441 104.425 322.774 104.646 323.053 104.933L322.387 105.674C322.18 105.445 321.947 105.273 321.689 105.158C321.432 105.044 321.163 104.987 320.884 104.987C320.555 104.987 320.254 105.069 319.982 105.234C319.717 105.398 319.506 105.624 319.348 105.91C319.191 106.197 319.112 106.515 319.112 106.866C319.112 107.217 319.191 107.535 319.348 107.822C319.506 108.108 319.721 108.337 319.993 108.509C320.265 108.674 320.569 108.756 320.905 108.756C321.185 108.756 321.446 108.702 321.689 108.595C321.933 108.48 322.162 108.316 322.377 108.101L323.032 108.788C322.745 109.082 322.413 109.307 322.033 109.465C321.661 109.622 321.271 109.701 320.862 109.701ZM323.896 109.604V102.087L324.97 101.851V104.697C325.393 104.253 325.94 104.031 326.613 104.031C327.036 104.031 327.404 104.12 327.719 104.299C328.042 104.478 328.292 104.729 328.471 105.051C328.657 105.373 328.75 105.745 328.75 106.168V109.604H327.676V106.35C327.676 105.921 327.555 105.584 327.311 105.341C327.068 105.09 326.735 104.965 326.313 104.965C326.026 104.965 325.768 105.026 325.539 105.148C325.31 105.269 325.121 105.445 324.97 105.674V109.604H323.896ZM331.719 109.701C331.325 109.701 330.978 109.633 330.677 109.497C330.376 109.354 330.14 109.157 329.968 108.906C329.796 108.656 329.71 108.366 329.71 108.037C329.71 107.521 329.907 107.117 330.301 106.823C330.695 106.522 331.235 106.372 331.923 106.372C332.46 106.372 332.957 106.476 333.415 106.683V106.103C333.415 105.71 333.301 105.416 333.072 105.223C332.85 105.03 332.52 104.933 332.084 104.933C331.833 104.933 331.572 104.972 331.3 105.051C331.028 105.123 330.723 105.237 330.387 105.395L329.99 104.589C330.405 104.396 330.791 104.256 331.149 104.17C331.507 104.077 331.869 104.031 332.234 104.031C332.943 104.031 333.491 104.199 333.877 104.535C334.271 104.872 334.468 105.352 334.468 105.975V109.604H333.415V109.132C333.172 109.325 332.911 109.468 332.631 109.562C332.352 109.655 332.048 109.701 331.719 109.701ZM330.741 108.015C330.741 108.28 330.852 108.495 331.074 108.659C331.303 108.817 331.6 108.896 331.966 108.896C332.252 108.896 332.513 108.856 332.75 108.778C332.993 108.692 333.215 108.559 333.415 108.38V107.457C333.208 107.335 332.989 107.249 332.76 107.199C332.538 107.142 332.288 107.113 332.009 107.113C331.615 107.113 331.303 107.195 331.074 107.36C330.852 107.517 330.741 107.736 330.741 108.015ZM338.326 109.701C337.789 109.701 337.302 109.576 336.865 109.325C336.436 109.075 336.092 108.735 335.834 108.305C335.584 107.875 335.458 107.396 335.458 106.866C335.458 106.343 335.58 105.871 335.823 105.448C336.067 105.019 336.396 104.679 336.812 104.428C337.227 104.17 337.689 104.041 338.197 104.041C338.705 104.041 339.156 104.17 339.55 104.428C339.944 104.679 340.255 105.022 340.484 105.459C340.721 105.889 340.839 106.376 340.839 106.92V107.22H336.532C336.59 107.521 336.701 107.79 336.865 108.026C337.037 108.262 337.252 108.448 337.51 108.584C337.774 108.72 338.061 108.788 338.369 108.788C338.634 108.788 338.888 108.749 339.131 108.67C339.382 108.584 339.589 108.463 339.754 108.305L340.441 108.982C340.119 109.225 339.786 109.408 339.443 109.529C339.106 109.644 338.734 109.701 338.326 109.701ZM336.543 106.415H339.776C339.733 106.129 339.632 105.878 339.475 105.663C339.325 105.441 339.135 105.269 338.906 105.148C338.684 105.019 338.44 104.954 338.175 104.954C337.903 104.954 337.653 105.015 337.424 105.137C337.195 105.259 337.001 105.43 336.844 105.652C336.693 105.867 336.593 106.121 336.543 106.415ZM341.862 109.604V102.087L342.936 101.883V109.604H341.862ZM350.161 109.723C349.616 109.723 349.108 109.626 348.636 109.433C348.163 109.232 347.744 108.957 347.379 108.606C347.021 108.248 346.742 107.836 346.541 107.371C346.348 106.898 346.251 106.39 346.251 105.846C346.251 105.302 346.348 104.797 346.541 104.331C346.742 103.859 347.021 103.447 347.379 103.096C347.744 102.738 348.163 102.463 348.636 102.269C349.108 102.069 349.616 101.969 350.161 101.969C350.705 101.969 351.213 102.069 351.686 102.269C352.165 102.463 352.584 102.738 352.942 103.096C353.3 103.447 353.579 103.859 353.78 104.331C353.98 104.797 354.08 105.302 354.08 105.846C354.08 106.39 353.98 106.898 353.78 107.371C353.579 107.836 353.3 108.248 352.942 108.606C352.584 108.957 352.165 109.232 351.686 109.433C351.213 109.626 350.705 109.723 350.161 109.723ZM350.171 108.681C350.558 108.681 350.916 108.609 351.245 108.466C351.582 108.323 351.875 108.126 352.126 107.875C352.376 107.618 352.573 107.317 352.717 106.973C352.86 106.623 352.931 106.247 352.931 105.846C352.931 105.438 352.86 105.062 352.717 104.718C352.573 104.374 352.376 104.077 352.126 103.827C351.875 103.569 351.582 103.368 351.245 103.225C350.916 103.082 350.558 103.01 350.171 103.01C349.778 103.01 349.412 103.082 349.076 103.225C348.739 103.368 348.446 103.569 348.195 103.827C347.945 104.077 347.748 104.374 347.605 104.718C347.469 105.062 347.401 105.434 347.401 105.835C347.401 106.243 347.469 106.623 347.605 106.973C347.748 107.317 347.945 107.618 348.195 107.875C348.446 108.126 348.739 108.323 349.076 108.466C349.412 108.609 349.778 108.681 350.171 108.681ZM355.139 109.604V102.087L356.213 101.883V109.604H355.139ZM359.207 109.701C358.813 109.701 358.466 109.633 358.165 109.497C357.864 109.354 357.628 109.157 357.456 108.906C357.285 108.656 357.199 108.366 357.199 108.037C357.199 107.521 357.395 107.117 357.789 106.823C358.183 106.522 358.724 106.372 359.411 106.372C359.948 106.372 360.445 106.476 360.904 106.683V106.103C360.904 105.71 360.789 105.416 360.56 105.223C360.338 105.03 360.009 104.933 359.572 104.933C359.321 104.933 359.06 104.972 358.788 105.051C358.516 105.123 358.212 105.237 357.875 105.395L357.478 104.589C357.893 104.396 358.28 104.256 358.638 104.17C358.996 104.077 359.357 104.031 359.722 104.031C360.431 104.031 360.979 104.199 361.365 104.535C361.759 104.872 361.956 105.352 361.956 105.975V109.604H360.904V109.132C360.66 109.325 360.399 109.468 360.12 109.562C359.841 109.655 359.536 109.701 359.207 109.701ZM358.23 108.015C358.23 108.28 358.341 108.495 358.563 108.659C358.792 108.817 359.089 108.896 359.454 108.896C359.74 108.896 360.002 108.856 360.238 108.778C360.481 108.692 360.703 108.559 360.904 108.38V107.457C360.696 107.335 360.478 107.249 360.249 107.199C360.027 107.142 359.776 107.113 359.497 107.113C359.103 107.113 358.792 107.195 358.563 107.36C358.341 107.517 358.23 107.736 358.23 108.015ZM363.194 109.604V104.138H364.268V104.664C364.676 104.242 365.188 104.031 365.803 104.031C366.176 104.031 366.505 104.113 366.791 104.278C367.085 104.442 367.318 104.664 367.489 104.944C367.719 104.643 367.987 104.417 368.295 104.267C368.603 104.109 368.95 104.031 369.337 104.031C369.745 104.031 370.099 104.12 370.4 104.299C370.708 104.478 370.947 104.729 371.119 105.051C371.298 105.373 371.388 105.745 371.388 106.168V109.604H370.314V106.35C370.314 105.921 370.199 105.584 369.97 105.341C369.748 105.09 369.444 104.965 369.057 104.965C368.792 104.965 368.553 105.026 368.338 105.148C368.123 105.269 367.937 105.456 367.779 105.706C367.794 105.778 367.804 105.853 367.812 105.932C367.819 106.01 367.822 106.089 367.822 106.168V109.604H366.759V106.35C366.759 105.921 366.645 105.584 366.415 105.341C366.194 105.09 365.889 104.965 365.503 104.965C365.245 104.965 365.012 105.022 364.805 105.137C364.597 105.244 364.418 105.409 364.268 105.631V109.604H363.194ZM372.622 109.604V104.138H373.696V109.604H372.622ZM373.159 103.258C372.98 103.258 372.826 103.193 372.697 103.064C372.568 102.928 372.504 102.771 372.504 102.592C372.504 102.406 372.568 102.252 372.697 102.13C372.826 102.001 372.98 101.937 373.159 101.937C373.345 101.937 373.503 102.001 373.632 102.13C373.76 102.252 373.825 102.406 373.825 102.592C373.825 102.771 373.76 102.928 373.632 103.064C373.503 103.193 373.345 103.258 373.159 103.258ZM377.474 109.69C376.966 109.69 376.5 109.565 376.078 109.315C375.655 109.064 375.322 108.727 375.079 108.305C374.836 107.875 374.714 107.396 374.714 106.866C374.714 106.336 374.836 105.86 375.079 105.438C375.33 105.015 375.666 104.679 376.088 104.428C376.511 104.178 376.98 104.052 377.495 104.052C377.796 104.052 378.086 104.099 378.365 104.192C378.644 104.285 378.902 104.421 379.138 104.6V102.087L380.212 101.883V109.604H379.149V109.078C378.684 109.486 378.125 109.69 377.474 109.69ZM377.613 108.756C377.928 108.756 378.215 108.699 378.473 108.584C378.738 108.47 378.959 108.305 379.138 108.09V105.631C378.959 105.43 378.738 105.273 378.473 105.158C378.215 105.037 377.928 104.976 377.613 104.976C377.27 104.976 376.958 105.058 376.679 105.223C376.4 105.387 376.178 105.613 376.013 105.899C375.849 106.179 375.766 106.497 375.766 106.855C375.766 107.213 375.849 107.535 376.013 107.822C376.178 108.108 376.4 108.337 376.679 108.509C376.958 108.674 377.27 108.756 377.613 108.756ZM384.105 109.701C383.568 109.701 383.081 109.576 382.644 109.325C382.214 109.075 381.871 108.735 381.613 108.305C381.362 107.875 381.237 107.396 381.237 106.866C381.237 106.343 381.359 105.871 381.602 105.448C381.846 105.019 382.175 104.679 382.59 104.428C383.006 104.17 383.467 104.041 383.976 104.041C384.484 104.041 384.935 104.17 385.329 104.428C385.723 104.679 386.034 105.022 386.263 105.459C386.499 105.889 386.618 106.376 386.618 106.92V107.22H382.311C382.368 107.521 382.479 107.79 382.644 108.026C382.816 108.262 383.031 108.448 383.288 108.584C383.553 108.72 383.84 108.788 384.148 108.788C384.412 108.788 384.667 108.749 384.91 108.67C385.161 108.584 385.368 108.463 385.533 108.305L386.22 108.982C385.898 109.225 385.565 109.408 385.221 109.529C384.885 109.644 384.513 109.701 384.105 109.701ZM382.322 106.415H385.554C385.511 106.129 385.411 105.878 385.254 105.663C385.103 105.441 384.914 105.269 384.685 105.148C384.463 105.019 384.219 104.954 383.954 104.954C383.682 104.954 383.432 105.015 383.202 105.137C382.973 105.259 382.78 105.43 382.623 105.652C382.472 105.867 382.372 106.121 382.322 106.415Z" fill="#3F424A"/>
<g clip-path="url(#clip1_2070_9559)">
<path d="M563.222 110.265C565.797 110.265 567.883 108.178 567.883 105.604C567.883 103.029 565.797 100.942 563.222 100.942C560.648 100.942 558.561 103.029 558.561 105.604C558.561 108.178 560.648 110.265 563.222 110.265Z" stroke="#3F424A" stroke-width="1.19327" stroke-miterlimit="10"/>
<path d="M559.926 102.308L566.518 108.899L559.926 102.308Z" fill="#3F424A"/>
<path d="M559.926 102.308L566.518 108.899" stroke="#3F424A" stroke-width="1.19327" stroke-miterlimit="10"/>
</g>
<rect x="232.687" y="241.636" width="134.243" height="32.2182" rx="5.3697" fill="#E91B41"/>
<rect x="232.687" y="241.636" width="134.243" height="32.2182" rx="5.3697" stroke="#4E0916" stroke-width="1.19327"/>
<path d="M263.98 261.853C263.422 261.853 262.899 261.756 262.412 261.563C261.926 261.362 261.5 261.086 261.134 260.736C260.777 260.385 260.494 259.977 260.286 259.511C260.086 259.039 259.985 258.53 259.985 257.986C259.985 257.435 260.086 256.927 260.286 256.461C260.494 255.989 260.78 255.577 261.145 255.226C261.51 254.875 261.933 254.603 262.412 254.41C262.899 254.21 263.422 254.109 263.98 254.109C264.396 254.109 264.797 254.167 265.183 254.281C265.57 254.396 265.928 254.557 266.257 254.765C266.594 254.972 266.88 255.223 267.116 255.516L266.064 256.558C265.792 256.221 265.477 255.967 265.119 255.795C264.768 255.624 264.389 255.538 263.98 255.538C263.644 255.538 263.329 255.602 263.035 255.731C262.742 255.853 262.488 256.025 262.273 256.247C262.058 256.461 261.89 256.719 261.768 257.02C261.646 257.313 261.586 257.636 261.586 257.986C261.586 258.33 261.646 258.652 261.768 258.953C261.89 259.246 262.062 259.504 262.284 259.726C262.506 259.941 262.763 260.109 263.057 260.231C263.358 260.353 263.683 260.413 264.034 260.413C264.428 260.413 264.797 260.331 265.14 260.166C265.484 260.002 265.788 259.765 266.053 259.458L267.073 260.467C266.837 260.754 266.554 261.001 266.225 261.208C265.896 261.416 265.538 261.577 265.151 261.691C264.772 261.799 264.381 261.853 263.98 261.853ZM270.458 261.853C269.899 261.853 269.394 261.724 268.943 261.466C268.492 261.208 268.134 260.861 267.869 260.424C267.605 259.987 267.472 259.497 267.472 258.953C267.472 258.409 267.601 257.918 267.859 257.482C268.124 257.038 268.482 256.687 268.933 256.429C269.391 256.171 269.899 256.042 270.458 256.042C271.016 256.042 271.521 256.171 271.972 256.429C272.43 256.687 272.788 257.038 273.046 257.482C273.311 257.918 273.443 258.409 273.443 258.953C273.443 259.497 273.311 259.987 273.046 260.424C272.788 260.861 272.434 261.208 271.983 261.466C271.532 261.724 271.023 261.853 270.458 261.853ZM270.458 260.575C270.751 260.575 271.012 260.503 271.242 260.36C271.478 260.217 271.664 260.023 271.8 259.78C271.943 259.529 272.015 259.254 272.015 258.953C272.015 258.645 271.943 258.369 271.8 258.126C271.664 257.883 271.478 257.689 271.242 257.546C271.012 257.396 270.751 257.32 270.458 257.32C270.171 257.32 269.91 257.396 269.674 257.546C269.437 257.689 269.251 257.883 269.115 258.126C268.979 258.369 268.911 258.645 268.911 258.953C268.911 259.254 268.979 259.529 269.115 259.78C269.251 260.023 269.437 260.217 269.674 260.36C269.91 260.503 270.171 260.575 270.458 260.575ZM274.348 261.745V256.15H275.819V256.612C276.241 256.232 276.764 256.042 277.387 256.042C277.824 256.042 278.207 256.139 278.536 256.332C278.872 256.519 279.134 256.78 279.32 257.116C279.506 257.446 279.599 257.832 279.599 258.276V261.745H278.128V258.491C278.128 258.126 278.024 257.84 277.816 257.632C277.609 257.417 277.326 257.31 276.968 257.31C276.717 257.31 276.495 257.36 276.302 257.46C276.109 257.553 275.948 257.689 275.819 257.868V261.745H274.348ZM281.415 261.745V257.374H280.17V256.15H281.415V255.613C281.415 254.983 281.598 254.503 281.963 254.174C282.328 253.837 282.855 253.669 283.542 253.669C283.692 253.669 283.846 253.676 284.004 253.691C284.161 253.705 284.297 253.73 284.412 253.766V255.001C284.276 254.972 284.158 254.951 284.057 254.936C283.957 254.922 283.846 254.915 283.724 254.915C283.445 254.915 283.234 254.976 283.091 255.097C282.955 255.212 282.887 255.395 282.887 255.645V256.15H284.412V257.374H282.887V261.745H281.415ZM285.181 261.745V256.15H286.653V261.745H285.181ZM285.912 255.484C285.683 255.484 285.486 255.402 285.321 255.237C285.156 255.072 285.074 254.875 285.074 254.646C285.074 254.41 285.156 254.213 285.321 254.056C285.486 253.891 285.683 253.809 285.912 253.809C286.148 253.809 286.345 253.891 286.502 254.056C286.667 254.213 286.749 254.41 286.749 254.646C286.749 254.875 286.667 255.072 286.502 255.237C286.345 255.402 286.148 255.484 285.912 255.484ZM287.803 261.745V256.15H289.275V256.773C289.454 256.529 289.668 256.343 289.919 256.214C290.17 256.085 290.452 256.021 290.767 256.021C291.039 256.028 291.243 256.071 291.38 256.15V257.439C291.272 257.388 291.154 257.353 291.025 257.331C290.896 257.303 290.764 257.288 290.628 257.288C290.341 257.288 290.08 257.36 289.844 257.503C289.608 257.646 289.418 257.85 289.275 258.115V261.745H287.803ZM292.187 261.745V256.15H293.658V256.579C294.059 256.221 294.546 256.042 295.119 256.042C295.484 256.042 295.81 256.118 296.096 256.268C296.383 256.411 296.619 256.615 296.805 256.88C297.034 256.608 297.303 256.4 297.611 256.257C297.926 256.114 298.273 256.042 298.652 256.042C299.075 256.042 299.443 256.139 299.758 256.332C300.081 256.519 300.331 256.78 300.51 257.116C300.696 257.446 300.789 257.832 300.789 258.276V261.745H299.329V258.491C299.329 258.126 299.232 257.84 299.039 257.632C298.846 257.417 298.588 257.31 298.266 257.31C298.044 257.31 297.84 257.356 297.653 257.449C297.475 257.542 297.321 257.682 297.192 257.868C297.199 257.933 297.206 257.997 297.213 258.062C297.22 258.126 297.224 258.198 297.224 258.276V261.745H295.753V258.491C295.753 258.126 295.656 257.84 295.463 257.632C295.277 257.417 295.022 257.31 294.7 257.31C294.478 257.31 294.278 257.353 294.099 257.439C293.927 257.525 293.78 257.653 293.658 257.825V261.745H292.187ZM304.166 261.745V254.228H307.936C308.43 254.228 308.863 254.328 309.235 254.528C309.615 254.729 309.912 255.008 310.127 255.366C310.342 255.717 310.449 256.125 310.449 256.59C310.449 257.034 310.342 257.431 310.127 257.782C309.912 258.133 309.615 258.409 309.235 258.609C308.856 258.81 308.423 258.91 307.936 258.91H305.724V261.745H304.166ZM305.724 257.621H307.764C308.101 257.621 308.369 257.528 308.57 257.342C308.777 257.156 308.881 256.909 308.881 256.601C308.881 256.286 308.777 256.035 308.57 255.849C308.369 255.663 308.101 255.57 307.764 255.57H305.724V257.621ZM312.953 261.842C312.552 261.842 312.197 261.77 311.889 261.627C311.582 261.477 311.342 261.273 311.17 261.015C310.998 260.757 310.912 260.46 310.912 260.123C310.912 259.586 311.113 259.171 311.514 258.878C311.922 258.577 312.48 258.427 313.189 258.427C313.676 258.427 314.134 258.502 314.564 258.652V258.244C314.564 257.922 314.463 257.678 314.263 257.514C314.062 257.349 313.769 257.267 313.382 257.267C313.146 257.267 312.892 257.306 312.62 257.385C312.348 257.457 312.033 257.571 311.675 257.729L311.138 256.644C311.582 256.443 312.004 256.293 312.405 256.193C312.813 256.093 313.221 256.042 313.629 256.042C314.381 256.042 314.964 256.225 315.38 256.59C315.802 256.948 316.013 257.457 316.013 258.115V261.745H314.564V261.348C314.334 261.52 314.087 261.645 313.823 261.724C313.558 261.802 313.268 261.842 312.953 261.842ZM312.308 260.091C312.308 260.306 312.401 260.478 312.587 260.607C312.774 260.728 313.021 260.789 313.328 260.789C313.572 260.789 313.797 260.761 314.005 260.703C314.213 260.639 314.399 260.546 314.564 260.424V259.608C314.385 259.536 314.198 259.483 314.005 259.447C313.812 259.411 313.604 259.393 313.382 259.393C313.046 259.393 312.781 259.458 312.587 259.586C312.401 259.708 312.308 259.876 312.308 260.091ZM317.57 264.054C317.441 264.054 317.316 264.047 317.194 264.033C317.079 264.025 316.983 264.015 316.904 264V262.733C317.047 262.762 317.219 262.776 317.419 262.776C317.956 262.776 318.329 262.522 318.536 262.014L318.622 261.799L316.442 256.15H318.064L319.46 259.962L321.039 256.15H322.628L320.051 262.196C319.857 262.647 319.646 263.009 319.417 263.281C319.188 263.553 318.923 263.75 318.622 263.872C318.329 263.993 317.978 264.054 317.57 264.054ZM325.791 261.853C325.232 261.853 324.728 261.724 324.276 261.466C323.825 261.208 323.467 260.861 323.203 260.424C322.938 259.987 322.805 259.497 322.805 258.953C322.805 258.409 322.934 257.918 323.192 257.482C323.457 257.038 323.815 256.687 324.266 256.429C324.724 256.171 325.232 256.042 325.791 256.042C326.349 256.042 326.854 256.171 327.305 256.429C327.763 256.687 328.121 257.038 328.379 257.482C328.644 257.918 328.776 258.409 328.776 258.953C328.776 259.497 328.644 259.987 328.379 260.424C328.121 260.861 327.767 261.208 327.316 261.466C326.865 261.724 326.356 261.853 325.791 261.853ZM325.791 260.575C326.084 260.575 326.346 260.503 326.575 260.36C326.811 260.217 326.997 260.023 327.133 259.78C327.276 259.529 327.348 259.254 327.348 258.953C327.348 258.645 327.276 258.369 327.133 258.126C326.997 257.883 326.811 257.689 326.575 257.546C326.346 257.396 326.084 257.32 325.791 257.32C325.504 257.32 325.243 257.396 325.007 257.546C324.77 257.689 324.584 257.883 324.448 258.126C324.312 258.369 324.244 258.645 324.244 258.953C324.244 259.254 324.312 259.529 324.448 259.78C324.584 260.023 324.77 260.217 325.007 260.36C325.243 260.503 325.504 260.575 325.791 260.575ZM331.85 261.853C331.42 261.853 331.037 261.759 330.701 261.573C330.372 261.38 330.11 261.115 329.917 260.779C329.731 260.442 329.638 260.055 329.638 259.619V256.15H331.109V259.404C331.109 259.762 331.213 260.048 331.42 260.263C331.635 260.478 331.922 260.585 332.28 260.585C332.523 260.585 332.741 260.539 332.935 260.446C333.135 260.345 333.3 260.206 333.429 260.027V256.15H334.9V261.745H333.429V261.294C332.999 261.666 332.473 261.853 331.85 261.853ZM338.699 261.831C338.076 261.831 337.604 261.691 337.282 261.412C336.967 261.126 336.809 260.711 336.809 260.166V257.374H335.66V256.15H336.809V254.722L338.281 254.389V256.15H339.881V257.374H338.281V259.866C338.281 260.123 338.338 260.31 338.452 260.424C338.567 260.532 338.767 260.585 339.054 260.585C339.197 260.585 339.326 260.578 339.44 260.564C339.562 260.542 339.695 260.507 339.838 260.456V261.67C339.687 261.72 339.498 261.759 339.269 261.788C339.047 261.817 338.857 261.831 338.699 261.831Z" fill="white"/>
</g>
<rect x="0.596634" y="0.596634" width="594.844" height="294.14" rx="17.3024" stroke="#DDE0E3" stroke-width="1.19327"/>
<defs>
<clipPath id="clip0_2070_9559">
<rect width="596.037" height="295.334" rx="17.899" fill="white"/>
</clipPath>
<clipPath id="clip1_2070_9559">
<rect width="11.9327" height="11.9327" fill="white" transform="translate(557.256 99.6377)"/>
</clipPath>
</defs>
</svg>
