<svg width="1290" height="292" viewBox="0 0 1290 292" fill="none" xmlns="http://www.w3.org/2000/svg">
<rect x="96.2655" y="79.3298" width="1092" height="97" rx="48.5" transform="rotate(-3.94164 96.2655 79.3298)" fill="url(#paint0_linear_4001_5665)"/>
<rect x="96.2655" y="79.3298" width="1092" height="97" rx="48.5" transform="rotate(-3.94164 96.2655 79.3298)" stroke="#FED3D3" stroke-width="8"/>
<path d="M184.2 145.145C180.88 145.374 177.755 145.012 174.823 144.059C171.889 143.064 169.265 141.598 166.951 139.662C164.676 137.68 162.826 135.348 161.401 132.667C160.015 129.939 159.211 126.958 158.988 123.723C158.765 120.488 159.154 117.446 160.156 114.597C161.196 111.703 162.709 109.14 164.694 106.907C166.718 104.629 169.116 102.818 171.889 101.472C174.659 100.083 177.704 99.2749 181.024 99.0462C184.344 98.8174 187.471 99.2007 190.405 100.196C193.379 101.146 196.003 102.612 198.278 104.593C200.593 106.529 202.443 108.861 203.828 111.588C205.21 114.273 206.013 117.233 206.236 120.468C206.459 123.703 206.071 126.766 205.073 129.657C204.072 132.506 202.559 135.07 200.535 137.348C198.55 139.58 196.152 141.392 193.34 142.783C190.567 144.129 187.52 144.916 184.2 145.145ZM183.615 136.653C185.658 136.512 187.506 136.021 189.159 135.18C190.809 134.297 192.228 133.173 193.417 131.808C194.603 130.4 195.497 128.778 196.097 126.94C196.697 125.102 196.927 123.162 196.786 121.119C196.643 119.033 196.149 117.143 195.305 115.447C194.458 113.709 193.352 112.246 191.987 111.057C190.62 109.825 189.059 108.906 187.307 108.3C185.551 107.651 183.652 107.397 181.609 107.538C179.608 107.676 177.783 108.187 176.133 109.07C174.481 109.911 173.061 111.035 171.875 112.443C170.686 113.808 169.791 115.409 169.191 117.247C168.588 119.042 168.356 120.961 168.497 123.004C168.641 125.09 169.136 127.001 169.983 128.739C170.83 130.477 171.937 131.962 173.305 133.194C174.67 134.383 176.23 135.301 177.986 135.95C179.738 136.557 181.615 136.791 183.615 136.653ZM213.616 142.412L211.324 109.147L220.072 108.544L220.327 112.248C221.291 110.727 222.492 109.532 223.929 108.664C225.366 107.795 227.021 107.296 228.894 107.167C230.514 107.098 231.745 107.27 232.586 107.682L233.114 115.344C232.455 115.09 231.738 114.926 230.963 114.851C230.185 114.733 229.392 114.702 228.583 114.758C226.88 114.875 225.356 115.408 224.01 116.356C222.664 117.304 221.62 118.595 220.877 120.229L222.364 141.81L213.616 142.412ZM256.04 153.218C253.486 153.394 250.998 153.287 248.576 152.898C246.158 152.551 243.957 151.955 241.974 151.108L244.572 144.128C246.464 144.896 248.297 145.433 250.072 145.738C251.846 146.044 253.606 146.136 255.351 146.016C257.948 145.837 259.868 145.149 261.111 143.951C262.397 142.751 262.964 141.044 262.811 138.83L262.631 136.212C260.044 138.401 257.07 139.611 253.707 139.842C250.557 140.059 247.654 139.511 244.997 138.197C242.381 136.838 240.216 134.913 238.505 132.422C236.836 129.928 235.894 127.106 235.677 123.956C235.459 120.806 236.008 117.903 237.322 115.247C238.678 112.587 240.603 110.423 243.097 108.754C245.588 107.043 248.43 106.077 251.622 105.857C253.24 105.746 254.831 105.871 256.395 106.234C257.96 106.597 259.431 107.158 260.81 107.919L260.66 105.748L269.28 105.154L271.567 138.355C271.869 142.739 270.676 146.222 267.989 148.802C265.344 151.379 261.361 152.851 256.04 153.218ZM254.538 132.344C256.155 132.232 257.606 131.876 258.89 131.274C260.172 130.63 261.247 129.786 262.116 128.742L261.219 115.717C260.218 114.845 259.018 114.201 257.621 113.784C256.263 113.321 254.818 113.143 253.286 113.248C251.456 113.375 249.846 113.913 248.458 114.864C247.066 115.773 245.995 116.98 245.243 118.486C244.489 119.949 244.173 121.575 244.296 123.362C244.422 125.193 244.939 126.804 245.848 128.195C246.799 129.584 248.027 130.654 249.533 131.405C251.082 132.154 252.75 132.467 254.538 132.344ZM289.039 137.793C286.655 137.957 284.519 137.677 282.63 136.951C280.738 136.184 279.228 135.069 278.101 133.607C276.974 132.145 276.342 130.414 276.204 128.413C275.984 125.221 277.005 122.67 279.269 120.76C281.572 118.805 284.831 117.683 289.045 117.392C291.939 117.193 294.694 117.452 297.31 118.17L297.142 115.744C297.01 113.828 296.315 112.422 295.055 111.525C293.796 110.628 292.017 110.259 289.719 110.417C288.314 110.514 286.819 110.852 285.234 111.432C283.646 111.969 281.82 112.779 279.756 113.862L276.119 107.634C278.676 106.26 281.126 105.193 283.469 104.433C285.854 103.67 288.259 103.205 290.686 103.037C295.155 102.729 298.699 103.576 301.317 105.577C303.975 107.532 305.439 110.467 305.709 114.384L307.196 135.964L298.577 136.558L298.414 134.196C297.122 135.311 295.705 136.157 294.162 136.734C292.62 137.311 290.912 137.664 289.039 137.793ZM284.491 127.649C284.579 128.926 285.203 129.91 286.362 130.6C287.519 131.247 289.012 131.508 290.842 131.382C292.29 131.282 293.619 131.019 294.83 130.594C296.038 130.126 297.106 129.496 298.035 128.705L297.701 123.852C296.608 123.5 295.479 123.257 294.315 123.123C293.151 122.99 291.909 122.968 290.59 123.059C288.589 123.197 287.041 123.689 285.944 124.534C284.887 125.334 284.403 126.372 284.491 127.649ZM313.816 135.508L311.524 102.243L320.272 101.64L320.461 104.386C322.817 101.957 325.846 100.615 329.55 100.36C332.146 100.181 334.463 100.598 336.5 101.613C338.577 102.582 340.238 104.028 341.482 105.953C342.724 107.834 343.436 110.095 343.617 112.734L345.038 133.357L336.291 133.96L334.958 114.613C334.809 112.443 334.074 110.783 332.755 109.633C331.432 108.441 329.707 107.919 327.579 108.065C326.089 108.168 324.79 108.557 323.682 109.232C322.57 109.864 321.668 110.739 320.976 111.856L322.564 134.905L313.816 135.508ZM351.664 132.9L349.372 99.6352L358.119 99.0325L360.411 132.298L351.664 132.9ZM353.441 95.3775C352.079 95.4713 350.875 95.0625 349.828 94.1509C348.782 93.2394 348.212 92.1025 348.118 90.7404C348.021 89.3358 348.43 88.1315 349.344 87.1276C350.256 86.0811 351.393 85.5109 352.755 85.4171C354.159 85.3203 355.364 85.7292 356.368 86.6436C357.411 87.5126 357.981 88.6495 358.078 90.0541C358.172 91.4162 357.763 92.6205 356.852 93.667C355.983 94.7105 354.846 95.2807 353.441 95.3775ZM365.528 131.945L365.102 125.752L380.471 104.87L363.87 106.014L363.364 98.6712L391.138 96.7574L391.565 102.951L376.196 123.833L393.371 122.649L393.877 129.992L365.528 131.945ZM414.442 129.216C411.122 129.445 408.047 128.887 405.217 127.542C402.43 126.195 400.159 124.277 398.405 121.789C396.652 119.301 395.663 116.44 395.44 113.205C395.217 109.97 395.761 107.003 397.072 104.303C398.426 101.601 400.348 99.3946 402.839 97.6833C405.33 95.972 408.172 95.0064 411.364 94.7864C414.556 94.5665 417.441 95.1589 420.019 96.5637C422.596 97.9685 424.679 99.9634 426.269 102.548C427.901 105.13 428.834 108.124 429.069 111.529L429.227 113.828L404.582 115.526C405.056 116.819 405.755 117.968 406.679 118.974C407.647 119.976 408.789 120.731 410.107 121.239C411.468 121.744 412.893 121.946 414.383 121.843C415.873 121.74 417.219 121.412 418.421 120.859C419.666 120.303 420.706 119.568 421.541 118.655L427.648 123.495C425.719 125.296 423.696 126.654 421.578 127.57C419.502 128.483 417.124 129.032 414.442 129.216ZM404.023 109.277L420.176 108.164C419.788 106.865 419.155 105.754 418.279 104.831C417.442 103.862 416.451 103.139 415.307 102.662C414.201 102.139 412.989 101.924 411.67 102.015C410.307 102.108 409.092 102.47 408.023 103.1C406.955 103.729 406.073 104.581 405.377 105.656C404.721 106.685 404.269 107.892 404.023 109.277ZM431.003 137.121L434.188 120.029L443.254 119.405L437.579 136.667L431.003 137.121ZM485.048 124.351C481.728 124.58 478.581 124.22 475.607 123.27C472.631 122.277 469.985 120.813 467.671 118.877C465.399 116.938 463.55 114.627 462.125 111.946C460.74 109.218 459.935 106.237 459.713 103.002C459.487 99.7248 459.874 96.6616 460.876 93.8127C461.916 90.9183 463.45 88.3534 465.478 86.1181C467.505 83.8828 469.905 82.0923 472.677 80.7465C475.49 79.3552 478.556 78.5452 481.876 78.3165C484.345 78.1463 486.752 78.3226 489.098 78.8453C491.443 79.368 493.637 80.1791 495.68 81.2786C497.766 82.3751 499.571 83.7476 501.096 85.396L495.266 92.0205C493.51 90.1313 491.533 88.7493 489.335 87.8744C487.179 86.9965 484.887 86.6411 482.461 86.8083C480.461 86.9462 478.614 87.4583 476.922 88.3447C475.226 89.1886 473.786 90.3143 472.6 91.7218C471.411 93.0868 470.516 94.6881 469.915 96.5257C469.312 98.3208 469.082 100.261 469.226 102.347C469.367 104.39 469.861 106.281 470.707 108.018C471.551 109.714 472.678 111.176 474.089 112.404C475.496 113.59 477.098 114.485 478.893 115.089C480.73 115.689 482.692 115.917 484.778 115.774C487.119 115.612 489.277 114.972 491.253 113.852C493.229 112.732 494.941 111.203 496.39 109.264L502.869 114.848C501.582 116.647 500.001 118.232 498.128 119.601C496.255 120.97 494.193 122.075 491.942 122.914C489.73 123.708 487.432 124.187 485.048 124.351ZM508.23 122.112L505.938 88.8473L514.686 88.2446L514.941 91.9478C515.905 90.4273 517.106 89.2326 518.543 88.3637C519.98 87.4949 521.635 86.9959 523.508 86.8669C525.128 86.798 526.359 86.9698 527.2 87.3823L527.728 95.0442C527.069 94.7902 526.352 94.6258 525.577 94.5508C524.799 94.4334 524.006 94.4025 523.197 94.4582C521.494 94.5755 519.97 95.1083 518.624 96.0564C517.278 97.0045 516.234 98.2953 515.491 99.9289L516.978 121.51L508.23 122.112ZM549.31 119.923C545.99 120.152 542.915 119.594 540.085 118.25C537.298 116.902 535.027 114.984 533.273 112.496C531.519 110.008 530.531 107.147 530.308 103.912C530.085 100.677 530.629 97.7097 531.94 95.0105C533.294 92.3084 535.216 90.1017 537.707 88.3905C540.198 86.6792 543.039 85.7136 546.232 85.4936C549.424 85.2736 552.309 85.8661 554.886 87.2709C557.464 88.6757 559.547 90.6706 561.136 93.2554C562.768 95.8373 563.702 98.8309 563.936 102.236L564.095 104.535L539.449 106.233C539.923 107.526 540.623 108.675 541.547 109.681C542.514 110.683 543.657 111.439 544.975 111.947C546.336 112.452 547.761 112.653 549.251 112.55C550.74 112.447 552.086 112.119 553.289 111.566C554.533 111.01 555.573 110.275 556.408 109.363L562.516 114.202C560.587 116.003 558.563 117.361 556.445 118.277C554.37 119.19 551.991 119.739 549.31 119.923ZM538.89 99.9845L555.044 98.8715C554.655 97.5725 554.023 96.4613 553.146 95.538C552.31 94.5693 551.319 93.8463 550.174 93.3692C549.069 92.8466 547.857 92.6308 546.537 92.7217C545.175 92.8156 543.96 93.1773 542.891 93.8069C541.823 94.4365 540.94 95.2885 540.245 96.3629C539.588 97.3917 539.137 98.599 538.89 99.9845ZM580.847 117.686C578.463 117.851 576.327 117.57 574.438 116.845C572.546 116.077 571.037 114.962 569.909 113.5C568.782 112.038 568.15 110.307 568.012 108.306C567.792 105.114 568.814 102.563 571.077 100.654C573.38 98.6987 576.639 97.576 580.853 97.2856C583.747 97.0862 586.502 97.3454 589.118 98.0633L588.95 95.6371C588.818 93.7216 588.123 92.3155 586.864 91.4186C585.604 90.5217 583.825 90.1524 581.527 90.3108C580.122 90.4076 578.627 90.7458 577.042 91.3255C575.454 91.8626 573.628 92.6727 571.564 93.7558L567.927 87.5271C570.484 86.1534 572.934 85.0865 575.277 84.3263C577.662 83.5632 580.068 83.0981 582.494 82.9309C586.963 82.6229 590.507 83.4693 593.125 85.4701C595.783 87.4253 597.247 90.361 597.517 94.277L599.004 115.858L590.385 116.452L590.222 114.089C588.93 115.205 587.513 116.051 585.97 116.628C584.428 117.204 582.72 117.557 580.847 117.686ZM576.299 107.543C576.387 108.82 577.011 109.803 578.17 110.493C579.327 111.141 580.82 111.401 582.651 111.275C584.098 111.175 585.427 110.913 586.638 110.487C587.846 110.019 588.914 109.389 589.844 108.598L589.509 103.746C588.416 103.394 587.287 103.151 586.123 103.017C584.959 102.883 583.717 102.862 582.398 102.953C580.397 103.091 578.849 103.582 577.752 104.428C576.695 105.228 576.211 106.266 576.299 107.543ZM620.495 114.89C616.792 115.145 613.925 114.509 611.895 112.981C609.905 111.407 608.799 109.003 608.576 105.768L607.432 89.1674L600.6 89.6381L600.099 82.3594L606.93 81.8886L606.345 73.3968L614.956 70.8147L615.678 81.2859L625.191 80.6304L625.693 87.9092L616.179 88.5647L617.2 103.378C617.305 104.91 617.722 105.993 618.45 106.627C619.175 107.219 620.389 107.456 622.092 107.339C622.943 107.28 623.706 107.185 624.381 107.053C625.096 106.875 625.869 106.608 626.7 106.251L627.197 113.466C626.324 113.826 625.212 114.138 623.861 114.402C622.554 114.663 621.432 114.826 620.495 114.89ZM647.701 113.144C644.381 113.373 641.306 112.815 638.476 111.47C635.689 110.123 633.419 108.205 631.665 105.717C629.911 103.229 628.923 100.367 628.7 97.1323C628.477 93.8973 629.021 90.9302 630.332 88.231C631.685 85.5289 633.607 83.3222 636.098 81.611C638.589 79.8997 641.431 78.9341 644.623 78.7141C647.816 78.4941 650.701 79.0866 653.278 80.4914C655.855 81.8962 657.939 83.891 659.528 86.4759C661.16 89.0578 662.094 92.0514 662.328 95.4567L662.487 97.7552L637.841 99.4534C638.315 100.747 639.014 101.896 639.939 102.901C640.906 103.904 642.049 104.659 643.367 105.167C644.727 105.672 646.153 105.873 647.642 105.771C649.132 105.668 650.478 105.34 651.68 104.787C652.925 104.23 653.965 103.496 654.8 102.583L660.907 107.423C658.979 109.223 656.955 110.582 654.837 111.498C652.762 112.41 650.383 112.959 647.701 113.144ZM637.282 93.205L653.436 92.092C653.047 90.793 652.414 89.6818 651.538 88.7585C650.702 87.7897 649.711 87.0668 648.566 86.5897C647.461 86.0671 646.248 85.8513 644.929 85.9422C643.567 86.036 642.352 86.3978 641.283 87.0274C640.214 87.657 639.332 88.509 638.636 89.5834C637.98 90.6122 637.529 91.8194 637.282 93.205ZM664.262 121.048L667.447 103.957L676.514 103.332L670.839 120.595L664.262 121.048ZM696.236 109.158L693.156 64.4642L715.567 62.9201C718.504 62.7177 721.12 63.1362 723.416 64.1755C725.754 65.2119 727.635 66.7502 729.058 68.7905C730.479 70.7883 731.285 73.1705 731.475 75.9373C731.657 78.5764 731.182 80.9828 730.048 83.1565C728.915 85.3302 727.261 87.0907 725.088 88.438C722.914 89.7852 720.38 90.5586 717.485 90.758L704.332 91.6643L705.494 108.52L696.236 109.158ZM703.804 84.0025L715.936 83.1666C717.936 83.0288 719.494 82.3654 720.61 81.1766C721.768 79.9848 722.284 78.4738 722.158 76.6434C722.029 74.7706 721.309 73.3233 719.998 72.3016C718.73 71.277 717.096 70.8337 715.095 70.9715L702.964 71.8074L703.804 84.0025ZM739.121 106.203L736.041 61.5093L744.687 59.4381L747.868 105.601L739.121 106.203ZM765.347 104.974C762.963 105.138 760.827 104.857 758.938 104.132C757.046 103.364 755.537 102.25 754.409 100.788C753.282 99.3256 752.65 97.5943 752.512 95.5937C752.292 92.4013 753.314 89.8504 755.577 87.9409C757.88 85.986 761.139 84.8633 765.353 84.573C768.247 84.3735 771.002 84.6328 773.618 85.3507L773.451 82.9244C773.319 81.009 772.623 79.6028 771.364 78.7059C770.104 77.809 768.325 77.4398 766.027 77.5981C764.622 77.6949 763.127 78.0332 761.542 78.6128C759.954 79.1499 758.128 79.96 756.064 81.0431L752.427 74.8144C754.984 73.4407 757.434 72.3738 759.777 71.6136C762.162 70.8505 764.568 70.3854 766.994 70.2182C771.463 69.9103 775.007 70.7567 777.626 72.7574C780.284 74.7126 781.747 77.6483 782.017 81.5643L783.504 103.145L774.885 103.739L774.722 101.377C773.43 102.492 772.013 103.338 770.47 103.915C768.928 104.492 767.22 104.845 765.347 104.974ZM760.799 94.8303C760.887 96.1072 761.511 97.0907 762.67 97.7806C763.827 98.428 765.32 98.6886 767.151 98.5625C768.598 98.4628 769.927 98.2001 771.138 97.7745C772.346 97.3064 773.414 96.6768 774.344 95.8857L774.009 91.0332C772.916 90.6809 771.787 90.4379 770.623 90.3043C769.459 90.1706 768.217 90.1493 766.898 90.2402C764.897 90.378 763.349 90.8696 762.252 91.715C761.195 92.5149 760.711 93.5533 760.799 94.8303ZM790.125 102.689L787.833 69.4239L796.58 68.8212L796.769 71.5667C799.125 69.1376 802.154 67.7955 805.858 67.5404C808.454 67.3615 810.771 67.7792 812.808 68.7936C814.885 69.7624 816.546 71.209 817.79 73.1333C819.032 75.0151 819.744 77.2755 819.926 79.9146L821.347 100.538L812.599 101.14L811.266 81.7943C811.117 79.6234 810.382 77.9633 809.063 76.814C807.74 75.6221 806.015 75.0994 803.887 75.2461C802.397 75.3487 801.098 75.7376 799.99 76.4127C798.879 77.0453 797.977 77.92 797.284 79.0369L798.872 102.086L790.125 102.689ZM851.455 99.0405C849.072 99.2047 846.935 98.9243 845.046 98.1991C843.154 97.4313 841.645 96.3164 840.518 94.8544C839.391 93.3925 838.758 91.6612 838.62 89.6606C838.4 86.4682 839.422 83.9172 841.685 82.0078C843.988 80.0528 847.247 78.9302 851.461 78.6398C854.355 78.4404 857.11 78.6996 859.726 79.4175L859.559 76.9913C859.427 75.0758 858.731 73.6697 857.472 72.7728C856.213 71.8759 854.434 71.5066 852.135 71.665C850.73 71.7618 849.236 72.1 847.65 72.6797C846.062 73.2168 844.236 74.0269 842.172 75.11L838.536 68.8813C841.093 67.5076 843.542 66.4406 845.885 65.6805C848.27 64.9174 850.676 64.4522 853.102 64.2851C857.572 63.9771 861.115 64.8235 863.734 66.8243C866.392 68.7795 867.856 71.7151 868.126 75.6312L869.613 97.212L860.993 97.8059L860.83 95.4435C859.539 96.559 858.121 97.4051 856.579 97.9818C855.036 98.5585 853.328 98.9114 851.455 99.0405ZM846.907 88.8971C846.995 90.1741 847.619 91.1575 848.779 91.8475C849.935 92.4948 851.429 92.7555 853.259 92.6293C854.706 92.5296 856.035 92.267 857.246 91.8414C858.454 91.3732 859.523 90.7436 860.452 89.9526L860.118 85.1001C859.024 84.7477 857.895 84.5047 856.731 84.3711C855.568 84.2375 854.326 84.2161 853.006 84.307C851.006 84.4449 849.457 84.9365 848.361 85.7819C847.304 86.5817 846.819 87.6202 846.907 88.8971ZM876.233 96.7559L873.941 63.4907L882.688 62.888L882.877 65.6335C885.233 63.2045 888.263 61.8624 891.966 61.6072C894.563 61.4283 896.879 61.846 898.917 62.8604C900.993 63.8293 902.654 65.2759 903.899 67.2002C905.14 69.082 905.852 71.3424 906.034 73.9815L907.455 94.6046L898.708 95.2073L897.375 75.8612C897.225 73.6903 896.491 72.0302 895.171 70.8808C893.849 69.6889 892.123 69.1663 889.995 69.3129C888.505 69.4156 887.206 69.8045 886.098 70.4796C884.987 71.1121 884.085 71.9869 883.392 73.1038L884.98 96.1532L876.233 96.7559ZM929.499 93.5347C926.349 93.7518 923.444 93.1821 920.785 91.8257C918.125 90.4693 915.941 88.5669 914.233 86.1186C912.564 83.6247 911.62 80.7816 911.4 77.5891C911.18 74.3967 911.727 71.4722 913.041 68.8156C914.394 66.1135 916.318 63.9281 918.812 62.2594C921.303 60.5481 924.166 59.581 927.401 59.3581C929.061 59.2437 930.673 59.3679 932.238 59.7305C933.799 60.0506 935.269 60.5908 936.648 61.3512L935.711 47.7514L944.357 45.6802L947.537 91.8428L938.918 92.4367L938.729 89.6912C936.151 92.0072 933.075 93.2884 929.499 93.5347ZM930.389 85.9676C932.006 85.8562 933.457 85.4996 934.742 84.8979C936.066 84.2507 937.181 83.3613 938.086 82.2297L937.193 69.2684C936.147 68.3569 934.923 67.6713 933.523 67.2118C932.123 66.7523 930.635 66.5768 929.06 66.6854C927.23 66.8115 925.599 67.3515 924.168 68.3055C922.777 69.214 921.707 70.4424 920.958 71.9909C920.206 73.4968 919.894 75.1649 920.02 76.9952C920.146 78.8255 920.684 80.435 921.635 81.8236C922.586 83.2121 923.815 84.2822 925.321 85.0338C926.869 85.7825 928.559 86.0938 930.389 85.9676ZM979.974 89.6077L977.458 53.0863L962.39 54.1246L961.827 45.952L1001.16 43.2419L1001.72 51.4146L986.716 52.4484L989.232 88.9698L979.974 89.6077ZM1006.11 87.8067L1003.82 54.5416L1012.57 53.9389L1012.82 57.6421C1013.79 56.1216 1014.99 54.9269 1016.42 54.058C1017.86 53.1892 1019.52 52.6902 1021.39 52.5612C1023.01 52.4923 1024.24 52.6641 1025.08 53.0766L1025.61 60.7384C1024.95 60.4845 1024.23 60.32 1023.46 60.2451C1022.68 60.1277 1021.89 60.0968 1021.08 60.1525C1019.38 60.2698 1017.85 60.8026 1016.51 61.7507C1015.16 62.6988 1014.12 63.9896 1013.37 65.6232L1014.86 87.204L1006.11 87.8067ZM1041.88 85.9197C1039.5 86.0839 1037.36 85.8034 1035.47 85.0782C1033.58 84.3105 1032.07 83.1956 1030.94 81.7336C1029.81 80.2717 1029.18 78.5404 1029.04 76.5398C1028.82 73.3474 1029.85 70.7964 1032.11 68.887C1034.41 66.932 1037.67 65.8094 1041.88 65.519C1044.78 65.3196 1047.53 65.5788 1050.15 66.2967L1049.98 63.8705C1049.85 61.955 1049.15 60.5489 1047.9 59.652C1046.64 58.7551 1044.86 58.3858 1042.56 58.5442C1041.15 58.641 1039.66 58.9792 1038.07 59.5589C1036.49 60.096 1034.66 60.9061 1032.6 61.9892L1028.96 55.7604C1031.52 54.3868 1033.97 53.3198 1036.31 52.5597C1038.69 51.7966 1041.1 51.3314 1043.53 51.1643C1048 50.8563 1051.54 51.7027 1054.16 53.7034C1056.82 55.6587 1058.28 58.5943 1058.55 62.5104L1060.04 84.0912L1051.42 84.6851L1051.25 82.3227C1049.96 83.4382 1048.54 84.2843 1047 84.861C1045.46 85.4377 1043.75 85.7906 1041.88 85.9197ZM1037.33 75.7763C1037.42 77.0533 1038.04 78.0367 1039.2 78.7267C1040.36 79.374 1041.85 79.6347 1043.68 79.5085C1045.13 79.4088 1046.46 79.1462 1047.67 78.7206C1048.88 78.2524 1049.95 77.6228 1050.88 76.8318L1050.54 71.9793C1049.45 71.6269 1048.32 71.3839 1047.15 71.2503C1045.99 71.1167 1044.75 71.0953 1043.43 71.1862C1041.43 71.3241 1039.88 71.8157 1038.78 72.6611C1037.73 73.4609 1037.24 74.4993 1037.33 75.7763ZM1082.6 83.1781C1079.32 83.4039 1076.31 82.8629 1073.57 81.5549C1070.83 80.2044 1068.6 78.2837 1066.89 75.7927C1065.17 73.2592 1064.2 70.375 1063.98 67.14C1063.75 63.8624 1064.32 60.8726 1065.67 58.1705C1067.03 55.4684 1068.97 53.2603 1071.5 51.5461C1074.04 49.8319 1076.94 48.8618 1080.22 48.636C1082.86 48.4542 1085.4 48.7919 1087.86 49.6492C1090.36 50.5036 1092.54 51.8284 1094.42 53.6237L1089.45 59.6757C1088.12 58.3987 1086.75 57.4878 1085.35 56.9432C1083.98 56.3531 1082.51 56.1123 1080.93 56.2208C1079.23 56.3381 1077.73 56.8693 1076.42 57.8145C1075.16 58.7568 1074.18 59.9793 1073.47 61.4823C1072.8 62.9823 1072.53 64.6688 1072.66 66.5417C1072.79 68.3295 1073.28 69.9418 1074.15 71.3788C1075.06 72.7704 1076.25 73.8434 1077.71 74.5979C1079.17 75.3099 1080.75 75.6072 1082.45 75.4899C1083.94 75.3872 1085.31 74.9939 1086.54 74.31C1087.82 73.5806 1089.01 72.5577 1090.12 71.2411L1095.73 76.3714C1094.15 78.319 1092.21 79.907 1089.9 81.1354C1087.59 82.3212 1085.15 83.0021 1082.6 83.1781ZM1100.64 81.2936L1097.56 36.5996L1106.2 34.5283L1108.06 61.4086L1121.46 46.4359L1131.36 45.754L1116.7 62.0961L1134.61 78.9531L1123.43 79.723L1108.34 65.4949L1109.39 80.6909L1100.64 81.2936Z" fill="white"/>
<path d="M312.809 256.37C310.426 256.534 308.289 256.254 306.4 255.529C304.508 254.761 302.999 253.646 301.872 252.184C300.744 250.722 300.112 248.991 299.974 246.99C299.754 243.798 300.776 241.247 303.039 239.337C305.342 237.382 308.601 236.26 312.815 235.969C315.709 235.77 318.464 236.029 321.08 236.747L320.913 234.321C320.781 232.405 320.085 230.999 318.826 230.102C317.566 229.205 315.788 228.836 313.489 228.994C312.084 229.091 310.589 229.429 309.004 230.009C307.416 230.546 305.59 231.356 303.526 232.439L299.889 226.211C302.446 224.837 304.896 223.77 307.239 223.01C309.624 222.247 312.03 221.782 314.456 221.615C318.925 221.307 322.469 222.153 325.088 224.154C327.746 226.109 329.21 229.045 329.479 232.961L330.966 254.542L322.347 255.135L322.184 252.773C320.892 253.888 319.475 254.735 317.933 255.311C316.39 255.888 314.682 256.241 312.809 256.37ZM308.261 246.227C308.349 247.504 308.973 248.487 310.132 249.177C311.289 249.824 312.782 250.085 314.613 249.959C316.06 249.859 317.389 249.596 318.6 249.171C319.808 248.703 320.877 248.073 321.806 247.282L321.471 242.43C320.378 242.077 319.249 241.834 318.085 241.701C316.921 241.567 315.68 241.546 314.36 241.637C312.36 241.774 310.811 242.266 309.714 243.111C308.658 243.911 308.173 244.95 308.261 246.227ZM337.587 254.085L334.507 209.391L343.153 207.32L346.334 253.483L337.587 254.085ZM353.175 253.011L350.095 208.317L358.741 206.246L361.922 252.409L353.175 253.011ZM385.81 264.555C385.043 264.608 384.296 264.617 383.566 264.582C382.882 264.586 382.303 264.562 381.829 264.509L381.31 256.975C382.173 257.086 383.2 257.101 384.392 257.019C387.585 256.799 389.694 255.135 390.72 252.028L391.143 250.716L375.868 218.025L385.509 217.36L395.371 239.455L403.195 216.142L412.644 215.491L399.797 252.493C398.833 255.254 397.725 257.49 396.475 259.201C395.224 260.913 393.73 262.192 391.992 263.039C390.297 263.883 388.236 264.388 385.81 264.555ZM433.784 248.099C430.464 248.327 427.41 247.768 424.623 246.42C421.836 245.073 419.565 243.155 417.811 240.667C416.057 238.179 415.069 235.317 414.846 232.082C414.623 228.847 415.188 225.879 416.542 223.177C417.935 220.429 419.92 218.197 422.496 216.48C425.114 214.76 428.084 213.785 431.404 213.556C434.724 213.328 437.778 213.887 440.565 215.235C443.395 216.579 445.667 218.518 447.381 221.052C449.135 223.54 450.123 226.401 450.346 229.636C450.569 232.871 449.982 235.841 448.586 238.546C447.233 241.249 445.268 243.458 442.692 245.175C440.116 246.892 437.146 247.867 433.784 248.099ZM433.26 240.501C435.005 240.38 436.53 239.848 437.833 238.902C439.179 237.954 440.207 236.729 440.916 235.226C441.664 233.677 441.977 232.009 441.854 230.222C441.728 228.391 441.189 226.782 440.238 225.393C439.33 224.002 438.144 222.929 436.681 222.174C435.257 221.374 433.672 221.034 431.927 221.154C430.225 221.272 428.702 221.826 427.359 222.816C426.013 223.765 424.985 224.99 424.276 226.493C423.567 227.996 423.276 229.663 423.402 231.493C423.525 233.281 424.042 234.892 424.954 236.326C425.862 237.717 427.048 238.79 428.511 239.545C429.975 240.299 431.558 240.618 433.26 240.501ZM469.808 245.616C467.254 245.792 464.939 245.396 462.862 244.427C460.824 243.413 459.162 241.945 457.875 240.023C456.631 238.099 455.919 235.839 455.74 233.242L454.319 212.619L463.066 212.016L464.399 231.362C464.546 233.491 465.28 235.151 466.603 236.343C467.968 237.532 469.714 238.053 471.843 237.906C473.29 237.807 474.569 237.44 475.68 236.808C476.831 236.13 477.753 235.232 478.446 234.115L476.858 211.066L485.605 210.463L487.897 243.728L479.15 244.331L478.965 241.65C476.563 244.039 473.511 245.361 469.808 245.616ZM494.714 243.259L492.422 209.994L501.169 209.391L501.425 213.094C502.389 211.574 503.59 210.379 505.027 209.51C506.464 208.641 508.119 208.142 509.992 208.013C511.612 207.944 512.843 208.116 513.684 208.529L514.212 216.19C513.553 215.936 512.836 215.772 512.061 215.697C511.283 215.58 510.489 215.549 509.681 215.605C507.978 215.722 506.454 216.255 505.108 217.203C503.762 218.151 502.717 219.442 501.974 221.075L503.461 242.656L494.714 243.259ZM549.947 240.095C546.627 240.323 543.552 239.765 540.722 238.421C537.935 237.073 535.665 235.155 533.911 232.667C532.157 230.179 531.169 227.318 530.946 224.083C530.723 220.848 531.267 217.881 532.578 215.182C533.931 212.479 535.853 210.273 538.344 208.562C540.835 206.85 543.677 205.885 546.869 205.665C550.062 205.445 552.947 206.037 555.524 207.442C558.101 208.847 560.185 210.842 561.774 213.426C563.406 216.008 564.34 219.002 564.574 222.407L564.733 224.706L540.087 226.404C540.561 227.697 541.26 228.846 542.185 229.852C543.152 230.854 544.295 231.61 545.613 232.118C546.973 232.623 548.399 232.824 549.888 232.721C551.378 232.618 552.724 232.291 553.926 231.737C555.171 231.181 556.211 230.446 557.046 229.534L563.153 234.373C561.225 236.174 559.201 237.532 557.083 238.448C555.008 239.361 552.629 239.91 549.947 240.095ZM539.528 220.156L555.682 219.043C555.293 217.744 554.66 216.632 553.784 215.709C552.948 214.74 551.957 214.017 550.812 213.54C549.707 213.018 548.494 212.802 547.175 212.893C545.813 212.987 544.598 213.348 543.529 213.978C542.46 214.608 541.578 215.46 540.882 216.534C540.226 217.563 539.775 218.77 539.528 220.156ZM580.888 237.321L564.358 205.037L573.872 204.381L584.528 225.908L592.068 203.128L601.39 202.485L589.38 236.736L580.888 237.321ZM622.525 235.094C619.205 235.322 616.13 234.764 613.3 233.42C610.513 232.072 608.243 230.154 606.489 227.666C604.735 225.178 603.747 222.317 603.524 219.082C603.301 215.847 603.845 212.88 605.156 210.181C606.509 207.479 608.431 205.272 610.922 203.561C613.413 201.849 616.255 200.884 619.447 200.664C622.64 200.444 625.525 201.036 628.102 202.441C630.679 203.846 632.763 205.841 634.352 208.426C635.984 211.008 636.917 214.001 637.152 217.406L637.31 219.705L612.665 221.403C613.139 222.696 613.838 223.846 614.763 224.851C615.73 225.854 616.873 226.609 618.191 227.117C619.551 227.622 620.976 227.823 622.466 227.72C623.956 227.618 625.302 227.29 626.504 226.736C627.749 226.18 628.789 225.446 629.624 224.533L635.731 229.372C633.802 231.173 631.779 232.531 629.661 233.447C627.585 234.36 625.207 234.909 622.525 235.094ZM612.106 215.155L628.26 214.042C627.871 212.743 627.238 211.632 626.362 210.708C625.526 209.739 624.535 209.017 623.39 208.539C622.285 208.017 621.072 207.801 619.753 207.892C618.391 207.986 617.175 208.347 616.107 208.977C615.038 209.607 614.156 210.459 613.46 211.533C612.804 212.562 612.353 213.769 612.106 215.155ZM643.611 232.999L641.319 199.734L650.066 199.131L650.256 201.877C652.611 199.448 655.641 198.106 659.344 197.851C661.941 197.672 664.258 198.089 666.295 199.104C668.372 200.073 670.032 201.519 671.277 203.444C672.519 205.325 673.23 207.586 673.412 210.225L674.833 230.848L666.086 231.451L664.753 212.105C664.603 209.934 663.869 208.274 662.549 207.124C661.227 205.932 659.502 205.41 657.373 205.556C655.884 205.659 654.584 206.048 653.476 206.723C652.365 207.356 651.463 208.23 650.77 209.347L652.358 232.397L643.611 232.999ZM696.329 229.88C692.626 230.135 689.76 229.499 687.73 227.971C685.74 226.397 684.633 223.993 684.41 220.758L683.266 204.157L676.435 204.628L675.933 197.349L682.765 196.878L682.18 188.387L690.791 185.804L691.512 196.276L701.026 195.62L701.527 202.899L692.014 203.554L693.034 218.367C693.14 219.9 693.557 220.983 694.285 221.617C695.01 222.209 696.224 222.446 697.926 222.328C698.777 222.27 699.541 222.174 700.216 222.042C700.931 221.865 701.704 221.598 702.534 221.241L703.031 228.456C702.158 228.815 701.046 229.127 699.696 229.391C698.388 229.653 697.266 229.815 696.329 229.88ZM720.703 228.329C717.638 228.54 714.781 228.352 712.131 227.765C709.479 227.135 707.144 226.141 705.126 224.783L709.067 218.674C711.071 219.819 712.967 220.651 714.756 221.169C716.588 221.684 718.376 221.882 720.122 221.761C722.08 221.626 723.611 221.2 724.717 220.482C725.862 219.719 726.397 218.806 726.324 217.741C726.265 216.89 725.878 216.233 725.162 215.769C724.488 215.302 723.42 215.012 721.958 214.899L715.507 214.381C712.152 214.099 709.567 213.208 707.753 211.708C705.936 210.165 704.935 208.053 704.751 205.371C704.601 203.2 705.027 201.311 706.028 199.702C707.069 198.048 708.581 196.725 710.566 195.733C712.59 194.695 715.028 194.078 717.88 193.881C720.306 193.714 722.692 193.892 725.037 194.415C727.426 194.934 729.69 195.826 731.829 197.09L728.007 203.063C726.097 202.04 724.295 201.33 722.6 200.934C720.905 200.537 719.206 200.398 717.503 200.515C715.928 200.624 714.672 201.01 713.734 201.673C712.838 202.333 712.424 203.153 712.492 204.132C712.553 205.026 712.942 205.705 713.659 206.169C714.375 206.633 715.57 206.914 717.245 207.012L723.632 207.534C726.984 207.774 729.59 208.663 731.45 210.203C733.307 211.701 734.324 213.747 734.503 216.344C734.65 218.472 734.142 220.41 732.979 222.158C731.814 223.864 730.179 225.281 728.076 226.41C725.97 227.496 723.512 228.135 720.703 228.329ZM763.054 225.347C760.67 225.511 758.534 225.23 756.645 224.505C754.753 223.737 753.244 222.623 752.117 221.161C750.989 219.699 750.357 217.967 750.219 215.967C749.999 212.774 751.021 210.223 753.284 208.314C755.587 206.359 758.846 205.236 763.06 204.946C765.954 204.747 768.709 205.006 771.325 205.724L771.158 203.297C771.026 201.382 770.33 199.976 769.071 199.079C767.811 198.182 766.033 197.813 763.734 197.971C762.329 198.068 760.834 198.406 759.249 198.986C757.661 199.523 755.835 200.333 753.771 201.416L750.134 195.187C752.691 193.814 755.141 192.747 757.484 191.987C759.869 191.224 762.275 190.758 764.701 190.591C769.17 190.283 772.714 191.13 775.333 193.13C777.991 195.086 779.455 198.021 779.724 201.937L781.211 223.518L772.592 224.112L772.429 221.75C771.137 222.865 769.72 223.711 768.178 224.288C766.635 224.865 764.927 225.218 763.054 225.347ZM758.506 215.203C758.594 216.48 759.218 217.464 760.377 218.154C761.534 218.801 763.027 219.062 764.858 218.935C766.305 218.836 767.634 218.573 768.845 218.148C770.053 217.679 771.122 217.05 772.051 216.259L771.716 211.406C770.623 211.054 769.494 210.811 768.33 210.677C767.166 210.544 765.925 210.522 764.605 210.613C762.604 210.751 761.056 211.243 759.959 212.088C758.903 212.888 758.418 213.926 758.506 215.203ZM802.702 222.551C798.999 222.806 796.133 222.169 794.103 220.641C792.112 219.068 791.006 216.663 790.783 213.428L789.639 196.828L782.807 197.298L782.306 190.02L789.138 189.549L788.553 181.057L797.163 178.475L797.885 188.946L807.398 188.291L807.9 195.569L798.386 196.225L799.407 211.038C799.513 212.57 799.929 213.653 800.657 214.288C801.382 214.879 802.596 215.116 804.299 214.999C805.15 214.94 805.913 214.845 806.589 214.713C807.304 214.535 808.076 214.268 808.907 213.912L809.404 221.127C808.531 221.486 807.419 221.798 806.069 222.062C804.761 222.323 803.639 222.486 802.702 222.551ZM837.44 220.221C835.057 220.385 832.92 220.105 831.031 219.38C829.139 218.612 827.63 217.497 826.503 216.035C825.376 214.573 824.743 212.842 824.605 210.841C824.385 207.649 825.407 205.098 827.67 203.188C829.973 201.234 833.232 200.111 837.446 199.821C840.34 199.621 843.095 199.88 845.711 200.598L845.544 198.172C845.412 196.257 844.716 194.85 843.457 193.953C842.198 193.057 840.419 192.687 838.12 192.846C836.715 192.942 835.22 193.281 833.635 193.86C832.047 194.397 830.221 195.208 828.157 196.291L824.521 190.062C827.078 188.688 829.527 187.621 831.87 186.861C834.255 186.098 836.661 185.633 839.087 185.466C843.557 185.158 847.1 186.004 849.719 188.005C852.377 189.96 853.841 192.896 854.111 196.812L855.598 218.393L846.978 218.987L846.815 216.624C845.524 217.74 844.106 218.586 842.564 219.162C841.021 219.739 839.313 220.092 837.44 220.221ZM832.892 210.078C832.98 211.355 833.604 212.338 834.764 213.028C835.92 213.676 837.414 213.936 839.244 213.81C840.691 213.71 842.02 213.448 843.231 213.022C844.439 212.554 845.508 211.924 846.437 211.133L846.103 206.281C845.009 205.928 843.88 205.685 842.716 205.552C841.552 205.418 840.311 205.397 838.991 205.488C836.991 205.626 835.442 206.117 834.346 206.963C833.289 207.762 832.804 208.801 832.892 210.078ZM890.868 216.476C887.165 216.731 884.298 216.094 882.269 214.566C880.278 212.993 879.172 210.588 878.949 207.353L877.805 190.753L870.973 191.223L870.472 183.945L877.304 183.474L876.718 174.982L885.329 172.4L886.051 182.871L895.564 182.216L896.066 189.495L886.552 190.15L887.573 204.963C887.679 206.495 888.095 207.579 888.823 208.213C889.548 208.804 890.762 209.041 892.465 208.924C893.316 208.865 894.079 208.77 894.755 208.638C895.469 208.46 896.242 208.193 897.073 207.837L897.57 215.052C896.697 215.411 895.585 215.723 894.235 215.987C892.927 216.248 891.805 216.411 890.868 216.476ZM902.123 215.187L899.831 181.922L908.578 181.319L910.871 214.584L902.123 215.187ZM903.9 177.664C902.538 177.758 901.334 177.349 900.287 176.437C899.241 175.526 898.671 174.389 898.577 173.027C898.48 171.622 898.889 170.418 899.803 169.414C900.715 168.368 901.852 167.797 903.214 167.704C904.618 167.607 905.823 168.016 906.827 168.93C907.87 169.799 908.44 170.936 908.537 172.341C908.631 173.703 908.222 174.907 907.311 175.954C906.442 176.997 905.305 177.567 903.9 177.664ZM917.711 214.113L915.419 180.848L924.166 180.245L924.342 182.799C926.579 180.506 929.401 179.243 932.806 179.008C934.977 178.859 936.944 179.172 938.709 179.949C940.47 180.683 941.958 181.799 943.173 183.298C944.424 181.586 945.935 180.242 947.707 179.265C949.521 178.284 951.556 177.716 953.812 177.561C956.323 177.388 958.555 177.811 960.507 178.832C962.499 179.806 964.096 181.257 965.298 183.185C966.539 185.066 967.251 187.327 967.433 189.966L968.854 210.589L960.171 211.187L958.838 191.841C958.688 189.67 957.996 188.007 956.762 186.852C955.524 185.654 953.948 185.121 952.033 185.253C950.713 185.344 949.519 185.705 948.45 186.334C947.424 186.961 946.566 187.854 945.877 189.013C945.946 189.394 946.014 189.774 946.083 190.154C946.152 190.534 946.203 190.958 946.235 191.426L947.656 212.05L938.909 212.652L937.576 193.306C937.426 191.135 936.734 189.472 935.5 188.317C934.305 187.116 932.75 186.582 930.835 186.714C929.515 186.805 928.341 187.142 927.312 187.726C926.326 188.308 925.506 189.134 924.853 190.205L926.459 213.51L917.711 214.113ZM991.837 209.647C988.517 209.876 985.442 209.318 982.612 207.973C979.825 206.625 977.554 204.708 975.801 202.22C974.047 199.732 973.058 196.87 972.836 193.635C972.613 190.4 973.157 187.433 974.468 184.734C975.821 182.032 977.743 179.825 980.234 178.114C982.725 176.403 985.567 175.437 988.759 175.217C991.952 174.997 994.836 175.589 997.414 176.994C999.991 178.399 1002.07 180.394 1003.66 182.979C1005.3 185.561 1006.23 188.554 1006.46 191.96L1006.62 194.258L981.977 195.956C982.451 197.249 983.15 198.399 984.075 199.404C985.042 200.407 986.185 201.162 987.503 201.67C988.863 202.175 990.288 202.376 991.778 202.273C993.268 202.171 994.614 201.843 995.816 201.29C997.061 200.733 998.101 199.999 998.936 199.086L1005.04 203.926C1003.11 205.726 1001.09 207.085 998.973 208C996.897 208.913 994.519 209.462 991.837 209.647ZM981.418 189.708L997.572 188.595C997.183 187.296 996.55 186.185 995.674 185.261C994.837 184.293 993.847 183.57 992.702 183.093C991.597 182.57 990.384 182.354 989.065 182.445C987.703 182.539 986.487 182.901 985.419 183.53C984.35 184.16 983.468 185.012 982.772 186.086C982.116 187.115 981.665 188.322 981.418 189.708Z" fill="#FFFBFC"/>
<path d="M1192.81 42.2195C1190.72 41.4976 1188.44 42.6049 1187.72 44.6928C1187 46.7807 1188.1 49.0584 1190.19 49.7803L1192.81 42.2195ZM1069.44 179.746L1027.82 164.509L1032.18 210.491L1070.2 187.711L1069.44 179.746ZM1190.19 49.7803C1213.78 57.9343 1237.57 68.4542 1255.02 80.0709C1263.75 85.8845 1270.69 91.8494 1275.25 97.7715C1279.8 103.686 1281.71 109.227 1281.12 114.403C1280.53 119.561 1277.34 125.257 1269.74 131.272C1262.12 137.304 1250.37 143.396 1233.43 149.295C1199.58 161.087 1145.89 171.797 1065.45 180.124L1066.28 188.082C1146.91 179.734 1201.33 168.948 1236.06 156.85C1253.43 150.804 1266.1 144.353 1274.7 137.545C1283.32 130.722 1288.15 123.284 1289.07 115.315C1289.98 107.365 1286.89 99.7874 1281.59 92.8952C1276.3 86.0103 1268.56 79.4796 1259.45 73.4123C1241.21 61.2671 1216.71 50.4837 1192.81 42.2195L1190.19 49.7803Z" fill="#FED3D3"/>
<path d="M96.6404 118.216C98.6399 117.276 101.022 118.136 101.962 120.135C102.901 122.135 102.041 124.517 100.042 125.457L96.6404 118.216ZM237.009 244.08L276.777 224.507L277.331 270.692L237.105 252.079L237.009 244.08ZM100.042 125.457C77.0377 136.263 54.0678 149.492 37.6609 163.147C29.4501 169.98 23.0587 176.777 19.0921 183.274C15.1308 189.762 13.7902 195.596 14.971 200.795C16.1483 205.979 20.0343 211.417 28.4229 216.693C36.8314 221.982 49.429 226.881 67.2655 231.019C102.922 239.292 158.572 244.317 241.078 244.031L241.105 252.031C158.397 252.318 102.018 247.295 65.4574 238.812C47.1857 234.573 33.6283 229.418 24.1637 223.465C14.679 217.5 8.97353 210.509 7.16964 202.567C5.36918 194.639 7.65764 186.65 12.2641 179.105C16.8653 171.569 23.9805 164.124 32.5434 156.998C49.6842 142.732 73.3309 129.166 96.6404 118.216L100.042 125.457Z" fill="#FED3D3"/>
<defs>
<linearGradient id="paint0_linear_4001_5665" x1="92" y1="128.114" x2="1192" y2="128.114" gradientUnits="userSpaceOnUse">
<stop stop-color="#E91B41"/>
<stop offset="1" stop-color="#E91B41"/>
</linearGradient>
</defs>
</svg>
