<svg width="1728" height="356" viewBox="0 0 1728 356" fill="none" xmlns="http://www.w3.org/2000/svg">
<g clip-path="url(#clip0_2211_6807)">
<mask id="path-1-inside-1_2211_6807" fill="white">
<path d="M0 0H1728V356H0V0Z"/>
</mask>
<path d="M0 0H1728V356H0V0Z" fill="url(#paint0_linear_2211_6807)"/>
<g opacity="0.05">
<path d="M1145 32.1604C1136.9 16.4869 1125.63 4.06569 1111.24 -5.10322C1096.8 -14.3089 1080.6 -18.9209 1062.61 -18.9209C1048.75 -18.9209 1035.95 -15.4665 1024.2 -8.59439C1012.44 -1.74067 1003.06 7.61199 995.999 19.4085V-13.2615H952.599V234.354L998.259 188.693V171.917L997.304 149.464C997.616 149.997 997.929 150.529 998.259 151.062C1004.75 161.646 1013.53 170.135 1024.68 176.566C1036.39 183.273 1049.23 186.635 1063.2 186.635C1080.93 186.635 1096.95 182.079 1111.24 172.873C1125.49 163.704 1136.71 151.246 1144.91 135.609C1153.12 119.917 1157.18 102.664 1157.18 83.7562C1157.18 65.0693 1153.12 47.8523 1145 32.1604ZM1104.15 115.893C1098.97 125.062 1092.06 132.155 1083.39 137.098C1074.7 142.077 1065.2 144.576 1054.89 144.576C1044.58 144.576 1035.05 141.93 1026.26 136.712C1017.53 131.53 1010.59 124.291 1005.44 115.03C1000.26 105.769 997.671 95.3689 997.671 83.7562C997.671 72.7315 1000.23 62.5152 1005.35 53.2177C1010.44 43.9202 1017.35 36.5703 1026.12 31.2049C1034.84 25.8763 1044.4 23.1936 1054.71 23.1936C1065.16 23.1936 1074.75 25.7293 1083.48 30.8742C1092.21 35.9456 1099.15 43.0933 1104.24 52.2622C1109.33 61.4679 1111.87 71.9597 1111.87 83.7562C1111.87 95.9937 1109.28 106.688 1104.15 115.893Z" fill="#231F20"/>
<path d="M1321.23 -13.2259V19.6095C1314.93 7.53736 1305.65 -1.94392 1293.39 -8.79764C1281.12 -15.6514 1267.06 -19.0874 1251.2 -19.0874C1234.21 -19.0874 1218.77 -14.457 1204.86 -5.2146C1190.95 4.04618 1180 16.5225 1172.03 32.2512C1164.04 47.9798 1160.03 65.16 1160.03 83.7918C1160.03 102.534 1164 119.769 1171.94 135.498C1179.86 151.227 1190.81 163.684 1204.77 172.872C1218.74 182.059 1234.28 186.653 1251.39 186.653C1267.12 186.653 1281.12 183.253 1293.39 176.455C1305.65 169.656 1314.93 160.23 1321.23 148.14V180.81H1364.63V-13.2259H1321.23ZM1311.79 114.459C1306.75 123.701 1299.86 131.014 1291.11 136.343C1282.37 141.708 1272.78 144.373 1262.34 144.373C1252.01 144.373 1242.51 141.911 1233.84 137.005C1225.15 132.099 1218.24 125.061 1213.08 115.874C1207.91 106.687 1205.34 95.9926 1205.34 83.7918C1205.34 71.9586 1207.88 61.4483 1212.99 52.2611C1218.08 43.0738 1224.97 35.9445 1233.66 30.8363C1242.33 25.7466 1251.88 23.1925 1262.34 23.1925C1272.78 23.1925 1282.35 25.9119 1291.02 31.3141C1299.71 36.7346 1306.6 44.0476 1311.69 53.3084C1316.78 62.5508 1319.34 72.712 1319.34 83.7918C1319.34 94.982 1316.82 105.217 1311.79 114.459Z" fill="#231F20"/>
<path d="M1469.53 -13.2217C1457.18 -13.2217 1446.6 -10.1164 1437.72 -3.8874C1428.85 2.34158 1422.08 10.9409 1417.42 21.8738V-13.2217H1373.63V180.814H1419.31V90.5763C1419.31 76.9975 1421.51 65.3664 1425.92 55.6646C1430.32 45.9812 1436.49 38.613 1444.41 33.5784C1452.35 28.5437 1461.53 26.0264 1471.97 26.0264H1490.29V-13.2217H1469.53Z" fill="#231F20"/>
<path d="M1569.39 -13.2243V-70.4243L1523.71 -70.0385V-13.2243H1483.51V26.0238H1523.71V107.001C1523.71 135.683 1529.81 155.16 1542.01 165.413C1554.23 175.685 1569.58 180.811 1588.08 180.811H1627.53V142.868H1597.52C1578.76 142.868 1569.39 131.604 1569.39 109.077V26.0238H1627.53V-13.2243H1569.39Z" fill="#231F20"/>
<path d="M1766.09 -13.0379L1721.17 104.357L1716.08 124.183L1711.17 104.173L1665.49 -13.2217H1617.35L1627.53 12.0985L1691.73 171.755L1689.45 178.352C1686.57 185.904 1683.63 191.875 1680.69 196.285C1677.73 200.677 1674.07 203.947 1669.74 206.097C1665.38 208.229 1659.89 209.313 1653.22 209.313H1627.53V247.054H1653.6C1668.56 247.054 1680.87 245.143 1690.5 241.303C1700.13 237.463 1708.71 230.535 1716.26 220.54C1723.81 210.544 1731.42 195.844 1739.1 176.459L1814.79 -13.2217L1766.09 -13.0379Z" fill="#231F20"/>
<path d="M1150.09 254.79C1148.66 250.858 1146.93 247.072 1145 243.324C1136.9 227.65 1125.63 215.229 1111.24 206.024C1108.36 204.186 1105.44 202.569 1102.42 201.118C1101.95 200.879 1101.47 200.64 1100.97 200.456C1094.36 197.332 1087.45 195.127 1080.17 193.841C1074.51 192.776 1068.65 192.243 1062.61 192.243C1052.68 192.243 1043.3 194.025 1034.51 197.535C1031.06 198.913 1027.7 200.548 1024.39 202.459C1012.74 209.221 1003.68 218.298 997.102 229.617L998.002 209.827L952.599 255.231V391.956H995.999V359.286C1002.67 371.285 1012.02 380.674 1024 387.528C1036.04 394.4 1049.08 397.799 1063.2 397.799C1080.93 397.799 1096.95 393.187 1111.24 384.036C1125.49 374.831 1136.71 362.41 1144.91 346.773C1146.87 343.08 1148.56 339.239 1150.03 335.362C1150.03 335.307 1150.09 335.307 1150.09 335.27C1154.83 322.739 1157.18 309.325 1157.18 294.938C1157.18 280.643 1154.83 267.266 1150.09 254.79ZM1104.15 327.02C1098.97 336.226 1092.06 343.263 1083.39 348.261C1074.7 353.241 1065.2 355.74 1054.89 355.74C1044.58 355.74 1035.05 353.094 1026.26 347.875C1017.53 342.639 1010.59 335.399 1005.44 326.193C1000.26 316.933 997.671 306.533 997.671 294.938C997.671 283.858 1000.23 273.679 1005.35 264.381C1010.44 255.029 1017.35 247.734 1026.12 242.369C1032.49 238.491 1039.36 235.993 1046.6 234.927C1049.23 234.541 1051.91 234.357 1054.71 234.357C1057.54 234.357 1060.31 234.541 1062.99 234.927C1070.29 235.937 1077.1 238.289 1083.48 241.983C1092.21 247.072 1099.15 254.257 1104.24 263.426C1109.33 272.631 1111.87 283.123 1111.87 294.938C1111.87 307.157 1109.28 317.851 1104.15 327.02Z" fill="#231F20"/>
<path d="M1321.85 201.119V230.757C1315.57 218.722 1306.25 209.222 1293.98 202.369C1293.21 201.946 1292.4 201.505 1291.59 201.119H1213.65C1210.87 202.571 1208.19 204.188 1205.51 205.97C1191.6 215.231 1180.61 227.689 1172.65 243.417C1170.78 247.111 1169.11 250.914 1167.66 254.791C1163.01 267.304 1160.65 280.681 1160.65 294.94C1160.65 309.272 1162.97 322.796 1167.62 335.364C1169.05 339.204 1170.69 342.989 1172.56 346.683C1180.46 362.411 1191.39 374.869 1205.4 384.038C1219.36 393.244 1234.91 397.801 1252.01 397.801C1267.74 397.801 1281.76 394.438 1293.98 387.639C1306.25 380.822 1315.57 371.378 1321.85 359.343V391.994H1365.26V201.119H1321.85ZM1312.39 325.625C1307.36 334.886 1300.47 342.162 1291.74 347.546C1282.99 352.856 1273.4 355.557 1262.95 355.557C1252.64 355.557 1243.16 353.095 1234.46 348.171C1225.79 343.265 1218.83 336.227 1213.7 327.058C1208.52 317.853 1205.93 307.159 1205.93 294.94C1205.93 283.125 1208.52 272.633 1213.61 263.427C1218.68 254.258 1225.59 247.111 1234.28 242.039C1242.95 236.894 1252.51 234.359 1262.95 234.359C1273.4 234.359 1282.96 237.097 1291.63 242.462C1300.32 247.882 1307.23 255.214 1312.3 264.475C1317.39 273.735 1319.98 283.897 1319.98 294.94C1319.98 306.148 1317.43 316.364 1312.39 325.625Z" fill="#231F20"/>
<path d="M1541.63 216.609C1536.5 210.141 1530.31 205.015 1523.16 201.119H1445.05C1444.46 201.358 1443.95 201.707 1443.36 201.983C1431.47 208.598 1422.69 217.344 1417.03 228.13V201.119H1373.63V391.994H1419.29V292.863C1419.29 280.681 1421.64 270.134 1426.38 261.259C1431.09 252.384 1437.37 245.677 1445.14 241.065C1452.95 236.472 1461.44 234.175 1470.65 234.175C1485 234.175 1496.08 238.53 1503.85 247.313C1511.66 256.041 1515.54 269.711 1515.54 288.362V391.994H1561.25V287.406C1561.25 256.555 1554.68 232.962 1541.63 216.609Z" fill="#231F20"/>
<path d="M1660.11 325.46L1717.8 251.851H1662.22L1613.77 312.579V201.119H1568.11V391.994H1613.77V371.231L1626.87 355.3L1677.27 442.726H1728.59L1660.11 325.46Z" fill="#231F20"/>
<path d="M998.26 188.695V193.215C996.974 192.977 995.687 192.756 994.383 192.572L998.26 188.695Z" fill="white"/>
<path d="M1700.17 356.125C1700.89 338.357 1716.32 323.602 1733.98 323.841C1752.41 324.08 1767.5 339.827 1767.11 358.495C1766.74 377.017 1750.61 392.433 1732.45 391.643C1713.93 390.834 1699.42 374.849 1700.17 356.125Z" fill="black"/>
</g>
</g>
<path d="M1728 346H0V366H1728V346Z" fill="#E91B41" mask="url(#path-1-inside-1_2211_6807)"/>
<defs>
<linearGradient id="paint0_linear_2211_6807" x1="864" y1="0" x2="864" y2="356" gradientUnits="userSpaceOnUse">
<stop stop-color="#E91B41"/>
<stop offset="1" stop-color="#9E3AC3"/>
</linearGradient>
<clipPath id="clip0_2211_6807">
<path d="M0 0H1728V356H0V0Z" fill="white"/>
</clipPath>
</defs>
</svg>
